<svg xmlns="http://www.w3.org/2000/svg" viewBox="0 0 600 478.23"><defs><style>.a{fill:#fff;}</style></defs><title>20170623110506619</title><path d="M456.48,4.05a51.06,51.06,0,0,1,6.63-.53c4,.16,8,.62,11.94,1,.55.06,1,.6,1.61.75a9.73,9.73,0,0,0,2,0c1.65,2,2.31,4.91,2.3,8,0,3.69-.11,7.39,0,11.07.17,4.93.71,9.86.75,14.79.06,7.14-.21,14.28-.27,21.42,0,2.6-.63,5.6.43,7.72,2,4,0,7.61,0,11.38,0,.32,0,.64,0,1-.16,5.75-.52,11.5-.43,17.24.12,7.48.61,15,.88,22.44,0,.84-.37,1.69-.4,2.55-.07,1.85-.06,3.7,0,5.55,0,5.36.33,10.74.24,16.07,0,2.48-.34,5.17-.4,7.73a84,84,0,0,0,.75,11.28c.07.58,1.27,1,2,1.58-1,2.29-3.4,1.69-5.29,2-6.39.93-12.83,1.52-19.21,2.5-8,1.23-16,2.69-23.91,4.13s-15.86,3.18-23.84,4.44c-7.66,1.21-15.39,2-23.1,2.91-1.27.15-2.6-.16-3.84.08a38.46,38.46,0,0,0-3.84,1.39,9.47,9.47,0,0,1-2.67.47c-4.12,0-8.26-.16-12.37.08-3.69.21-7.34.9-11,1.33-3.3.38-6.6.76-9.91,1-5,.38-10,.67-15,1-3.59.21-7.19.35-10.78.5-7.06.3-14.14,1-21.18.73-3.93-.13-7.13,1.61-10.69,2.29a17.57,17.57,0,0,1-3.19-.12c-7.46,0-14.93,0-22.39,0a14.11,14.11,0,0,1-3.3-1c-2.36.44-5.36.95-8.34,1.57-1.74.36-2.1-.29-1.61-1.73l-5.9.65a26.66,26.66,0,0,1-1-4.34c-.28-3.92-.41-7.85-.52-11.77-.2-7.3-.28-14.61-.51-21.91-.26-8.2-.48-16.4-1-24.59-.39-6.14-1.87-12.19-1.39-18.4a17.92,17.92,0,0,1,.6-4.86c1.11-2.92.6-5.68.08-8.59a62.33,62.33,0,0,1-.67-8q-.49-10-.87-20c-.22-5.66-.59-11.33-.53-17,.06-6.11.68-12.22.77-18.34,0-2.09-.86-4.19-1.21-6.3a29,29,0,0,1-.42-4.77c0-2.51.21-5,.32-7.52,0-.48.14-1.11-.11-1.41-2.12-2.55.52-2.48,1.66-2.72A32.9,32.9,0,0,1,245,8.13c1,0,2.24,1.24,3,1,2.16-.81,4.29-.12,6.4-.35,2.4-.26,4.84-.23,7.24-.53,5.51-.7,11-1.64,16.5-2.22,1.74-.18,3.56.5,5.34.73a10.07,10.07,0,0,0,2.4,0C290.39,6.23,295,6,299.45,5c5.59-1.24,11,.65,16.47.36,6.5-.34,13.08-1.17,19.5-.54,3.46.33,6.49-1.15,9.9-.59,2.7.45,5.62-.55,8.45-.74,2.11-.15,4.25,0,6.36-.08a25.17,25.17,0,0,0,3.07-.76c.64-.12,1.34.07,2-.1a23.81,23.81,0,0,0,2.68-1.05A4,4,0,0,1,369,1q13.86-.52,27.72-1c.52,0,1,.46,1.58.65s1,.42,1.28.24c2.65-2.06,5.57-.14,8.35-.6a53.78,53.78,0,0,1,9-.29c1.73,0,3.47.4,5.2.43C426.57.58,431,.3,435.4.59c5.9.4,11.78,1.21,17.67,1.82.87.09,1.78,0,2.64.11C455.94,2.57,456.08,3.23,456.48,4.05ZM348.72,182l.06-.62a11.89,11.89,0,0,1,1.77-.25c2.74,0,5.5.22,8.23.1,6.09-.28,12.19-.63,18.27-1.1,5.54-.43,11.06-1,16.58-1.64,4.64-.51,9.28-1.11,13.91-1.72,3.7-.48,7.43-.85,11.08-1.59,7.19-1.44,14.31-3.2,21.5-4.64,4.85-1,9.76-1.69,14.66-2.41s10-1.3,15-2c3.56-.47,7.12-1,10.71-1.45-.33-4.37-.82-8.38-.9-12.4-.14-7.67-.07-15.35-.05-23,0-4.61.15-9.22.11-13.83,0-5.08-.35-10.17-.31-15.25.06-8.07.37-16.15.45-24.22,0-4.32-.26-8.64-.23-13,0-4,.37-7.94.42-11.91,0-2.73.35-5.61-.39-8.15-1-3.48-2-6.75-.35-10.24a2.19,2.19,0,0,0,0-1c-.19-2-.78-4.15-.53-6.13.75-5.75.08-11.39-.61-17.06-.15-1.21-.27-2.15-1.85-1.33-.26.14-.73-.15-1.1-.2-2.64-.35-5.41-1.36-7.89-.9-5.13,1-10.23.74-15.36.67-3,0-6.05-.23-9.06-.52-3.84-.37-7.66-1-11.5-1.35s-7.6-.36-11.39-.65c-4.71-.36-9.4-1.17-14.1-1.24-7.46-.1-14.93.17-22.39.44-4.36.16-8.7.6-13,1-7.49.62-15,1.27-22.48,1.9-3.28.28-6.55.8-9.83.78-5.66,0-11.31-.5-17-.56-5.27-.06-10.54.17-15.81.29-1.84,0-3.67.16-5.51.25-3.18.16-6.19,1.37-9.21,1.87-5.25.88-10.74.42-16.13.45-3.28,0-6.57-.25-9.85-.12-3.66.14-7.31.65-11,.87-4.07.24-8.14.36-12.22.49-1.51.05-2.38.55-2.24,2.27.23,2.69.44,5.39.48,8.09.08,4.89,0,9.79,0,14.68,0,4,.28,8,.27,12,0,5.14-.41,10.28-.23,15.41.28,8.06.95,16.11,1.37,24.17.38,7.18.64,14.37,1,21.55.11,2.22.51,4.44.42,6.64-.11,2.83-.85,5.66-.8,8.48.08,5.07.6,10.13.84,15.2.23,4.84.35,9.68.49,14.52.18,6.38.32,12.76.5,19.14,0,.94.26,1.87.36,2.8.38,3.39.75,6.79,1.18,10.72,6.32.19,12.93.54,19.54.54,3.95,0,7.9-.7,11.85-.79,4.53-.09,9.07.36,13.59.19,6.27-.24,12.52-.87,18.78-1.28,3.37-.22,6.75-.34,10.13-.5,8.24-.41,16.48-.84,24.72-1.21,2.13-.1,4.28,0,7.06,0Z"/><path d="M466.81,459.82c-.19,0-.74,0-.9.25-2.64,3.78-6.68,2.63-10.21,2.72-5.34.13-10.69-.37-16-.37-5,0-9.93.32-14.9.43-1.7,0-3.42-.3-5.11-.17-5.93.47-11.91.72-17.76,1.75-4.45.78-8.81.19-13.2.4-2.13.1-4.23.65-6.35.85-1.47.14-3,0-4.69,0l-.11,1.5c-3.75,0-7.63-.19-11.48.05-3.56.22-7.09,1-10.64,1.37-4.74.54-9.49,1-14.24,1.43q-12.34,1.05-24.69,2c-7.15.53-14.31,1-21.47,1.44-6.85.47-13.73.71-20.54,1.54-4.07.5-8.05,1.84-12,3-2,.59-1.84.13-2.64-1.67-2-4.46-.68-9.12-1.58-13.59a26.71,26.71,0,0,1-.24-3.29c-.63-8.43-1.23-16.87-1.9-25.3-.36-4.49-.92-9-1.21-13.47-.48-7.23-.72-14.48-1.25-21.7q-.77-10.46-1.93-20.89c-.55-5-1.33-9.92-2.16-14.86-.65-3.85-1.38-7.7-2.33-11.48-1.3-5.2-.6-10.39-.24-15.59a1.56,1.56,0,0,1,1-1.1c2.67-.63,5.39-1.71,8-1.6,6.51.29,12.58-2.06,18.94-2.62,3.86-.34,7.62-1.72,11.46-2.51,2.54-.52,5.19-.58,7.67-1.27a45.19,45.19,0,0,1,9.57-2.1c2.52-.15,5-.52,7.54-.77,4.78-.48,9.57-1.42,14.33-1.26,3.4.11,6.12-2.3,9.45-1.65,6.12-3.57,13-2.68,19.6-3.39,2.22-.24,4.37-1.09,6.59-1.37,2.67-.34,5.38-.4,8.08-.5,1.9-.07,3.8,0,5.81,0,.43-2.47,2.78-2.11,4.59-2.36a79,79,0,0,1,10.14-.88c2.74,0,5.48.63,8.23.82,1.93.14,3.88,0,5.82,0,3.61,0,7.22-.06,10.83,0,2.86.06,5.72.24,8.57.49a19.2,19.2,0,0,1,3.16.82c.15,0,.4.14.45.08,2.32-2.67,5-.22,7.5-.54,2.17-.27,4.38-.32,6.58-.38s4.52,0,6.79,0c4,0,7.92-.08,11.88,0a13.18,13.18,0,0,1,4.08,1,3.6,3.6,0,0,1,2.49,3.69c.3,7.26.94,14.5,1.36,21.76.25,4.42.38,8.84.47,13.27.08,4-.09,8,.06,12,.16,4.33.72,8.64.79,13,.08,4.67-.27,9.35-.33,14-.07,5.33,0,10.66-.07,16-.15,7.26-.55,14.52-.63,21.77-.08,7.42-1.27,14.85.11,22.28.24,1.27-.54,2.72-.78,4.1C467,457.83,466.92,458.74,466.81,459.82ZM261.07,474c2.83-.18,5.63-.32,8.43-.54,3.58-.28,7.14-.68,10.72-.94,7.28-.52,14.57-1,21.86-1.46,7.53-.49,15.06-.95,22.59-1.46,4.33-.29,8.68-.54,13-1,7.75-.86,15.49-1.9,23.24-2.81,3.57-.42,7.17-.63,10.74-1,5.33-.59,10.65-1.39,16-1.84s10.86-.26,16-2.3a4.14,4.14,0,0,1,1.66-.12c2.69.13,5.39.34,8.08.42.92,0,2-.62,2.73-.3,4.55,2,9.2.22,13.78.43,7.39.34,14.83-.36,22.25-.56,3.38-.09,6.77.07,10.15-.06,2.06-.08,2.77-1.44,2.43-3.6a37.19,37.19,0,0,1-.56-6c0-3.26.27-6.52.44-9.78.15-3,1-5.81.59-8.88a14.39,14.39,0,0,1,.62-6.57c1-2.84.48-6.18.56-9.3.15-6.54.32-13.09.33-19.63,0-2.6-.4-5.19-.59-7.79-.17-2.39.53-4.69.07-7.21-.68-3.71-.45-7.6-.53-11.42-.08-4,.06-8.1-.14-12.14-.38-7.71-1-15.4-1.36-23.11-.1-2,.48-4.12.39-6.17a53.38,53.38,0,0,0-1-8.45c-.24-1.17.41-3.16-1.74-3.41a48.77,48.77,0,0,0-5.92-.47c-2.94,0-5.88.42-8.82.34-4-.1-8-.57-12-.74-2.1-.08-4.21.3-6.31.21-3.69-.16-7,1.65-10.89,1.32-7.49-.62-15.08-.06-22.63.1-7.26.16-14.52.43-21.79.65a19.16,19.16,0,0,0-2.16,0c-5.29.77-10.58,1.62-15.87,2.36s-10.39,1.2-15.55,2c-6.9,1.07-13.76,2.37-20.64,3.54-6.19,1.06-12.37,2.21-18.58,3.08-6.85,1-13.78,1.34-20.58,2.54-10.25,1.8-20.42,4.09-31,6.25.42,3.14.87,6.34,1.27,9.54q.79,6.34,1.52,12.69c.63,5.44,1.33,10.87,1.83,16.31.59,6.35.91,12.73,1.52,19.08.87,9.12,1.95,18.22,2.81,27.34.36,3.83.35,7.69.58,11.53q.9,15,1.86,30.08C260.62,467.79,260.85,470.79,261.07,474Z"/><path d="M340.68,261.79c4.45,2.28,7.94-1.16,11.68-1.15-.29-2.36.15-4.85-.89-6-2-2.18-1.89-4.86-2.72-7.25-1.82-5.27-3-10.77-4.79-16-1.46-4.21-3.82-8.11-5.22-12.33-.72-2.17-1.4-4.33-2.29-6.44-.79-1.85-.11-3.27,1.85-3.63a39.7,39.7,0,0,0,10.95-4c1.12-.57,2.87.09,4.52.2L353,208.6l.46-.53a13.87,13.87,0,0,1,1.2,2.15c2.8,8,5.61,16,8.31,24,1.72,5.11,3.24,10.28,4.86,15.42.65,2.05,1.32,4.1,2.08,6.47,2.18-2.08,4.12-2,6.51-.92s2.47,2.89,1.91,4.77c-1.29,4.32-2.85,8.56-4.26,12.85-1.63,5-3.22,10-4.82,14.95a31.25,31.25,0,0,1-1.63,4.82c-.47.91-1.67,2.13-2.43,2.05a5.66,5.66,0,0,1-3.78-1.86,124.59,124.59,0,0,1-7.5-12.2c-3.16-6-8.42-10.07-12.75-15C340,264.25,339.9,264.34,340.68,261.79Z"/><path d="M121.21,106.73l1-2.14c.52.34,1,.89,1.35.84,2.62-.37,5.21-1,7.83-1.31,3.15-.42,6.31-.78,9.48-1s6.35-.21,9.53-.2c3.92,0,7.84.15,11.76.19,2.42,0,4.84,0,7.26,0,3.36,0,6.73-.06,10.09,0,1.32,0,2.21-.29,2.35-1.65.33-3.21.59-6.44.91-10-2.23.19-4.41.51-6.59.55-7.27.12-14.55,0-21.81.23-6.1.21-12.2.72-18.29,1.3-2.85.27-5.65,1.08-8.49,1.51a26.18,26.18,0,0,1-3.81,0,6.36,6.36,0,0,0-.44-1.6c-1-1.75,0-2.05,1.47-2.43,11-2.93,22.23-1.56,33.36-1.91,3.34-.11,6.75-.79,10-.35,3.66.5,7.2-.46,10.79-.11,1.18.12,2.38.11,3.65.16v-11c1.8.86,3.46,1.79,5.23,2.47,4.06,1.56,8.25,2.81,12.24,4.51,5.09,2.17,10.09,4.56,15,7a73.47,73.47,0,0,1,8.45,5,12.23,12.23,0,0,1,3.48,3.74,2,2,0,0,1-1.18,3.15c-3.07.92-6.1,2-9.21,2.73-4.64,1.15-9.33,2.09-14,3.13-5.34,1.2-10.67,2.43-16,3.58-.4.09-.92-.39-1.22-.9-1.77.35-2.73-.07-2.6-2.28a34.4,34.4,0,0,0-.36-4.64c-3.18.35-6.38.87-9.61,1-4.09.2-8.21,0-12.3.15q-7.15.21-14.3.69c-1.93.13-3.86.9-5.76.82a85.1,85.1,0,0,1-8.5-1.12c-.22,0-.43-.18-.64-.18Z"/><path d="M126,159.86c20-3.88,40.24-4.86,60.9-5.52l-1.62-17.93c-22.63,3.38-45.12,6.36-67.74,8.23l-.29-.89c1.4-.54,2.84-1.61,4.21-1.53,8.33.53,16.31-1.62,24.38-3,6.43-1.08,12.83-2.39,19.29-3.31,5.17-.74,10.39-1,15.59-1.53,1.25-.12,2.49-.39,4.11-.65-.13-1.26-.17-2.57-.43-3.85-.51-2.46.5-3.5,2.89-2.72a29.29,29.29,0,0,1,5,1.93c5.32,2.9,11.2,3.9,17,5.35a72.34,72.34,0,0,1,19.73,8.22c-.3,2.2-1.63,3.5-3.17,5-4.13,4-9.7,4.47-14.65,6.36-5.54,2.11-11.33,3.55-17,5.44a47.47,47.47,0,0,0-5.74,2.87l-1.87-4.8c-4.51.14-9.34.13-14.14.5-5.82.44-11.62,1.23-17.44,1.8-4.32.43-8.65.71-13,1.13-3.26.31-6.5.76-9.76,1.09a21.65,21.65,0,0,1-4.51.19c-.73-.08-1.36-.94-2-1.44Z"/><path d="M553.05,383.38l1.22-9.59a5.31,5.31,0,0,0,1.35.37,17.93,17.93,0,0,0,2.17-.18,3.94,3.94,0,0,1,1.55,0c4.09,1.52,8.22,2.92,12.2,4.7,4.19,1.88,8.22,4.12,12.28,6.19,0,.31-.06.43-.07.55-.53,4.76-4.78,5.37-8,7.2-1.17.67-2.12,1.77-3.32,2.36-4.93,2.41-10,4.62-14.88,7.05-2.05,1-3.92,2.4-6.2,3.82l-.89-1.64,1.07-5.71-53.89,7.12a6.38,6.38,0,0,1,5-3.77c8.48-1.36,17-2.4,25.53-3.47,6.77-.86,13.55-1.63,20.33-2.39a22.59,22.59,0,0,1,3.3.13l1.5-8.95c-4,.6-7.71,1.19-11.44,1.7-4.69.64-9.38,1.22-14.08,1.79-6.58.8-13.14,1.74-19.74,2.3-3.56.3-7.18-.1-10.77-.15a3,3,0,0,1-1.57-.18c.46-.61.8-1.59,1.39-1.78a48.76,48.76,0,0,1,6.67-1.61c3.7-.62,7.44-1.07,11.16-1.56q3.52-.47,7-.86c4.71-.53,9.42-1.06,14.14-1.53,2.86-.29,5.75-1.37,8.59.32.44.26,1.3-.07,1.93-.25C548.71,384.73,550.78,384.07,553.05,383.38Z"/><path d="M600,122.4c-1.85,1.07-4.23,2.51-6.67,3.83a38.08,38.08,0,0,1-13.66,4.11c-6,.74-11.92,1.4-18.39,2.15l1.18-5.77a7.88,7.88,0,0,0-2.28-.44c-2.9.22-5.79.87-8.68.86-8.75,0-17.51-.33-26.26-.45-5-.07-9.92,0-14.87,0a6.67,6.67,0,0,1-2.15-.86c.53-.5,1-1.27,1.62-1.44a9.4,9.4,0,0,1,2.9-.07c3.08.15,6.16.38,9.24.5,9,.35,18.1.65,27.15,1a14.07,14.07,0,0,0,2,.29c.78-.09,2.14.89,2.25-1,0-.13,1-.27,1.51-.28,2.11,0,4.21,0,6.34,0,.05-.89,0-1.63.15-2.34.43-3,.44-2.88-2.73-3-9.16-.28-18.33-.92-27.49-.86-8,.05-15.91.91-23.87,1.31a10.76,10.76,0,0,1-3.09-.8v-.92a69.21,69.21,0,0,1,7.83-.46c3.39.16,6.72.85,10.08-.47a11.75,11.75,0,0,1,4.23-.44c3.16,0,6.32.2,9.48.23,4.13,0,8.27-.09,12.4,0,3.63.12,7.24.61,10.87.74,2.5.09,3.18-.76,3.26-3.32,0-.56,0-1.12,0-1.68,0-3.54,1.21-4.85,4.56-4.3,6.21,1,12.4,2.15,18.54,3.51,4.94,1.09,8.79,4.24,12.41,7.59A18.49,18.49,0,0,1,600,122.4Z"/><path d="M595.27,74.26c-2.45,2.51-4.67,4.57-8.26,5.47-4.66,1.17-9,3.69-13.47,5.54-3.33,1.37-6.74,2.55-10.1,3.87-.85.33-1.64.85-2.92,1.53l-1.65-8.06h-42.5l-.15-.58c.72-.35,1.43-1,2.15-1,6.73,0,13.47.2,20.19,0,6.9-.18,13.85,1.55,20.69-.56.67-.21,1.33-.44,2.1-.7,0-.37.06-.76.06-1.14s0-.73-.05-1.1c-.2,0-.3,0-.34,0s0,.16-.08.22-.21.28-.37.48l.53-6.14c-15.21-2.35-30,.89-45.61.61,1-.92,1.41-1.6,2-1.77a14.18,14.18,0,0,1,3.73-.58c5.75-.06,11.51.07,17.26-.07,3.07-.07,6.13-.65,9.2-.78,2.1-.09,4.22.26,6.33.32s4.47,0,7.34,0l1.07-4.36,1-4,2.41,1.77-.24-1.85C572.47,62.21,585.48,66.83,595.27,74.26Z"/><path d="M137.41,208.8c1.29-2.85,3.88-3,6.06-3.87,5-2,10-3.94,15.08-5.89,5.63-2.18,11.27-4.31,16.9-6.49,4-1.56,7.92-3.61,12.07-4.6,2.13-.51,4.16-1.33,6.56-1.81L191.79,174c6-.67,12.19-1.32,18.37-2s12.28-.42,18.81-1.05c-4.88,4.54-9.14,8.57-13.5,12.51-3.76,3.4-7.71,6.6-11.41,10.07-1.09,1-1.61,2.49-3.37,2.87-2.51.55-3,.18-3.4-2.28a16.78,16.78,0,0,0-1.59-4.62c-.47-1-1.24-1.3-2.56-.73-8.48,3.7-17,7.34-25.56,10.81q-9.56,3.87-19.33,7.23c-2,.69-4.3.5-6.44.85C140.38,207.88,139,208.37,137.41,208.8Z"/><path d="M186.48,59.74l.83-10.39c-9.49-.22-18.83-.23-28.14-.72s-18.47-.84-27.69.61l-.24-.69c.65-.44,1.27-1.17,2-1.25,2.61-.3,5.24-.48,7.86-.52,5-.09,10,0,15-.08,6.12-.09,12.25-.39,18.37-.38,4.31,0,8.63.4,13.22.64.21-2.86.43-5.44.57-8a2.69,2.69,0,0,1,3.44-2.72c1.57.38,3.09,1,4.66,1.38,2.87.7,6,.83,8.6,2.05,5.52,2.57,10.82,5.62,16.12,8.63a9.71,9.71,0,0,1,2.81,3c.35.5.14,1.38.17,1.83C211.51,54.55,199,55.84,186.48,59.74Z"/><path d="M532.34,336.88a77.21,77.21,0,0,1-3.51-7.51c-.17-.47,1.17-1.87,2.06-2.23a38.34,38.34,0,0,1,4.75-1.05c5.33-1.4,10.72-.33,16.08-.42,1.94,0,4.22,4.27,3.24,6.48a20.69,20.69,0,0,1-4.07,6.5A73.12,73.12,0,0,1,541,346.5c-1.11.76-3,.38-4.75.55l-3-5.9c-1.53,1-3.2,2.09-4.78,3.27-6.62,4.94-13.29,9.82-19.8,14.91a80.05,80.05,0,0,0-8.72,7.89c-2.7,2.83-5,3.59-7.17,1.68-1.5-1.3-1.43-2.44,0-3.74,9.37-8.24,20.15-14.5,30.31-21.63C526.25,341.32,529.34,339,532.34,336.88Z"/><path d="M548.64,444.46c-11.44-2.1-22.51-4.21-33.61-6.13-5.65-1-11.37-1.58-17-2.47a33.05,33.05,0,0,1-6.11-1.58c-.45-.16-.48-1.45-.76-2.39L549.3,442c.87-2.92-1.44-6.63,1.59-9.44a92.39,92.39,0,0,1,10.23,2,24.08,24.08,0,0,1,11.08,6.71c2.73,3.06-.14,10-3.62,11.45-6,2.45-12.18,4.37-18.84,3a3.35,3.35,0,0,0-1.38.23c-1.57.4-2-.14-1.65-1.71C547.39,451.15,547.94,448.06,548.64,444.46Z"/><path d="M149.89,421.57a86.73,86.73,0,0,1,9.85-1.5c8.39-.35,16.79-.36,25.19-.57a46.64,46.64,0,0,0,4.86-.66c-.39-1.35-.8-2.62-1.14-3.92-.21-.82-.74-2-.39-2.42a3.28,3.28,0,0,1,2.55-1.09,66.21,66.21,0,0,1,7.77,1.53c2.57.64,5.1,1.45,7.63,2.25a65.57,65.57,0,0,1,7.06,2.5,3.9,3.9,0,0,1,1.76,2.42c.12.46-.81,1.44-1.47,1.82-5.39,3-10.85,5.94-16.25,9-2.2,1.23-4.3,2.63-7,4.33l-1.41-8-39.07,3.59c-.19-1.72,1-2,2.46-2.15,7.34-.79,14.68-1.66,22-2.35,3.63-.34,7.28-.35,10.93-.54,1.4-.07,2.8-.25,4.12-.37,1.05-4.25-.23-4.84-4.19-4.17a59.36,59.36,0,0,1-6.71.22c-8.57.45-17.14,1-25.71,1.4a11.61,11.61,0,0,1-2.74-.53Z"/><path d="M158.44,461.25c2.58-2.31,5.79-2.69,8.91-3.18,6.37-1,12.77-1.89,19.16-2.79,1.46-.2,3-.23,4.92-.38-.2-3-.36-6-.61-8.92-.11-1.27,1.38-2.23,2.9-1.8,5.65,1.58,11.32,3.12,17,4.75a62.45,62.45,0,0,1,5.94,2.17c.4.16,1,.89.89,1.08-.86,1.82-1.46,4-2.87,5.26a23,23,0,0,1-6.93,4c-3.87,1.47-6.68,4.24-9.72,6.8-1,.85-2.22,1.62-3.18.08l-1.72,1.27a10.47,10.47,0,0,1-1-1.64,14.13,14.13,0,0,1-1.06-3.36c-.3-2.54-.4-5.11-.59-7.82Z"/><path d="M580.71,19.85c-4.57,2.89-9.16,5.74-13.69,8.69a32.81,32.81,0,0,0-3.4,3l-3.85-8c-7.83,3.9-15.52,7.84-23.32,11.57-7,3.34-14.11,6.43-21.16,9.65-2.05.94-4.06,2-6.13,2.88a5.18,5.18,0,0,1-1.84.06c.39-.5.68-1.2,1.2-1.46,2.3-1.2,4.74-2.14,7-3.44,1.32-.77,2.21-2.57,3.56-3,4.79-1.35,8.6-4.59,13.2-6.3s9.2-4,13.75-6.13c3.9-1.8,7.79-3.63,11.6-5.61a2.83,2.83,0,0,0,1.24-2.31c-.6-3.61-.76-3.9,2.6-4.74A75.82,75.82,0,0,1,574,12.68c2.78-.22,5.64.52,8.46.89.41.05.78.44,1.25.71l-2.57,5Z"/><path d="M193.3,391l-39.88,2.44c1.4-2.92,4.13-2,6-2.24,4.27-.43,8.61-.81,12.94.23,1.6.38,3.43-.25,5.17-.36,5.46-.36,10.93-.69,16.23-1l-.54-9-2.15-.32c.77-1.8,3.62-3.26,4.84-2.32,2,1.51,4.15,1.59,6.37,1.33,1.29-.15,2.3-.59,3.13,1,.29.55,1.83.43,2.79.66,1.21.29,2.4.63,3.61.92,2,.48,4,.82,5.9,1.46.8.27,2,1.17,2,1.71a4.15,4.15,0,0,1-1.47,2.94c-6.44,3.95-13,7.74-19.53,11.52a45.55,45.55,0,0,1-4.48,1.95Z"/><path d="M431.47,219.65a4.8,4.8,0,0,1-.47,1.55c-2,2.7-2.05,2.74.2,5.35.12.14,0,.49,0,.76,4.52-1.55,4.57-5.42,5.25-9.15.37-2.05.26-4.38,2.43-6s4.42-1.94,6.18-.27c2.05,2,2.06,3.86.18,6.17-1.23,1.51-2.32,3.13-3.44,4.66.92.57,2.31.3,3.79-1.11s2.36-3.82,5.69-3.07c-1.15-2.39-1.83-4.58-3.13-6.3s-1.13-3.17.18-4.1c.8-.57,2.46.06,3.74.15l.08.78,2.79-3,2,3.92c-1.21,2.28-3.08,4.41-.61,7.12,1,1.12-.33,3.18-2.14,3.36a15,15,0,0,1-2.84-.25c-1.19,5.21-5.51,7.32-12.78,6.53-1.27,1.31-2.15,2.62-3.37,3.4-3.63,2.3-7.25,1.22-9-2.66-.61-1.34-1.18-2.32-2.78-2.64-1.33-.27-1.57-2.19-.33-3.24,1.66-1.39,1.77-3.1,1.55-5-.13-1.11-.27-2.23-.46-3.33-.25-1.41.36-2.74,1.62-2.59a3.9,3.9,0,0,1,2.52,2.42c.43,1.43.11,3.09.11,4.53,1,.8,3.2-1.37,3,1.48l-.05.23Z"/><path d="M459.34,204.19l3.35.38c.05-3.24,2.3-5.47,5.4-6.79,1-.41,2.38.25,4,.47,3.79-4,3.79-4,10.15,1.5-.68-4.79,4.73-10.2,9.28-9.27,1.25.26,2.64,3.09,2.27,4.63l-.41,1.77c.68-.83.86-1.22,1.18-1.41.73-.43,1.51-.77,2.28-1.15.4,1.1,1.44,2.47,1.1,3.24a16.36,16.36,0,0,1-9.21,8.85,2.72,2.72,0,0,1-1.39.22,9.59,9.59,0,0,0-5.8.39c-1.61.69-2.55-.82-2.86-2.42,0-.07.07-.15.07-.23,0-1.65-.9-3.42-2.31-3.29-1.24.11-2,1.84-1.26,3.59a9.37,9.37,0,0,1,.85,3.63,3.69,3.69,0,0,1-1.05,2.58,2.88,2.88,0,0,1-2.59.42c-.62-.32-.8-1.54-1.14-2.37-.42-1-.8-2-1.2-3-.33-.82-.66-1.64-1.32-3.26a14,14,0,0,0-.85,2.45c-.29,2.52-2.3,3.82-4.42,2.5-1.24-.77-2.07-.28-3.08.06Z"/><path d="M505.17,181.08c1.22,2,1,3.39-.64,4.75-1.27,1-1.29,5.08-.25,6.39.63.79,1.28,1.56,2.31,2.8a87.77,87.77,0,0,0,6.4-6.29c1.19-1.42,2.44-1.4,3.46-.56,1.3,1.08,1.1,2.71-.06,3.89-1.76,1.8-3.74,3.39-5.5,5.2-3.86,3.95-8.65,1.15-10.55-3.31a8,8,0,0,1-.53-2.18c-.14-1.22-.45-1.58-1.85-1.18-.8.23-1.91-.68-2.88-1.07.42-1,.56-2.39,1.31-3,2.06-1.7,2.52-3.42,1.36-5.84-.42-.88-.77-2.27-.36-2.94a3.17,3.17,0,0,1,2.76-1.23A3.41,3.41,0,0,1,502,179C502.2,181.25,503.3,181.59,505.17,181.08Z"/><path d="M422,232.56h-3.38L416,227.38a11,11,0,0,0-4.8,7.37c-.25,1.6-.61,3.44-2.72,3.12-1.94-.29-3-1.65-2.35-3.81.06-.22-.16-.53-.35-1.1-.52.46-.84,1-1.2,1-1.1.09-2.43.34-3.24-.16-.5-.31-.52-2-.23-2.86a10.25,10.25,0,0,1,2.1-3.84c1.24-1.3,2.83-2,4.31,0a10.24,10.24,0,0,0,1.83,1.58c1.66-3.7,5.41-6.3,8-5.52C420.16,224.09,422.29,228.24,422,232.56Z"/><path d="M78.27,408.42a6,6,0,0,0-.62-.81c-4.19-2.59-1.21-6.05-1-9.08a24.81,24.81,0,0,1,1.81-7.18,6.35,6.35,0,0,1,3-3c.43-.21,2.13,1.16,2.53,2.11,1.93,4.66,3.66,9.42,5.36,14.18a3.35,3.35,0,0,1-.37,2c-.13.33-.79.79-.92.71a2.36,2.36,0,0,1-.94-1.1c-.65-1.67-1-3.56-1.94-5-.44-.64-2.27-.73-3.29-.44-.7.2-1.2,1.43-1.59,2.29C79.61,404.78,79,406.46,78.27,408.42Zm2.88-9.5,3.36-.48L82,394.29Z"/><path d="M29.87,110.33l1.71-.77a8.27,8.27,0,0,1,.55,1.72c.35,3.62-2.57,5.88-3.78,8.86-.09.21-.33.35-.45.56C26,123.9,25,123.8,23,120.51a54.49,54.49,0,0,0-4.61-6.32c-1.53-1.83-1.5-3.18.2-5.09,1.95-2.19,3.71-4.54,5.57-6.81,1-1.16,1.56-.62,2.07.45C27.42,105.28,28.65,107.81,29.87,110.33Zm-4.25,9.49c1.13-2,2.46-3.71,3.08-5.63,1.2-3.69-3.2-5.28-3.37-9.06-1.62,2.46-2.95,4.38-4.13,6.38a2.08,2.08,0,0,0,.19,1.74C22.65,115.33,24,117.33,25.62,119.82Z"/><path d="M396.08,245.28c-.4-.35-1.93-1-2.09-2a64.35,64.35,0,0,0-4.29-13.52c-1.07-2.59-1.81-5.47-4.72-6.94a2.57,2.57,0,0,1-.48-2.4,3,3,0,0,1,2.64-.7c3.95,2,5.05,6,6.64,9.67,1.82,4.15,3.3,8.44,5,12.66C399.52,244.08,398.9,245.25,396.08,245.28Z"/><path d="M58.51,95.91c.36,1.5,1.49,3-1.25,3.6-.87.17-1.6,1-2.44,1.39-4.36,2.21-4.36,2.2-3.66,7.6l7.15-3.66c.72,2.14.3,3.16-1.85,3.76a24.7,24.7,0,0,0-5.22,2.61,1.74,1.74,0,0,0-.76,1.22c-.09,1.66,0,3.34,0,5.2,2.38-.53,4.49-1.11,6.64-1.41.61-.08,1.34.66,2,1-.5.5-.92,1.31-1.5,1.44-2.15.51-4.4.64-6.51,1.24-.77.22-1.28,1.37-2.58,2.13,0-1.68,0-3.36,0-5s0-3.22,0-4.83c.15-3.1.21-6.22.66-9.27a5,5,0,0,1,2.15-2.82C53.53,98.62,55.9,97.41,58.51,95.91Z"/><path d="M58.22,400.13c-.3.5-.69,1.26-1.18,2-1.38,2-2.87,3.88-4.17,5.9-1,1.5-1.8,1.06-2.58,0-1.08-1.44-2-3-3.07-4.44-.51-.64-1.55-.84-2.09-1.47s-1-1.65-.74-2.1c1.69-3.05,3.61-6,5.39-9,.89-1.52,1.84-1.06,2.6-.08,2,2.51,3.8,5.11,5.64,7.71C58.22,398.91,58.13,399.4,58.22,400.13Zm-2.2-.59-2.15-.42.61-.48-3.23-5.31c-1.78,3-4,5.37-1.8,8.95,1.58,2.61,2.58,2.94,4.41.56C54.59,401.89,55.18,400.84,56,399.54Z"/><path d="M12.4,124.62c-.89-.41-1.79-.6-1.82-.88-.3-3.12-.51-6.25-.67-9.38-.18-3.58-.25-7.17-.51-10.74,0-.37-1-.94-1.61-.94-2,0-3.94.25-5.91.38-.63,0-1.26,0-1.89,0,.1-2.24,1.26-2.82,3.25-2.9,3.87-.15,7.73-.6,11.6-.9.87-.07,1.74,0,2.73,0v2.93a11,11,0,0,0-1.58-.42c-3.43-.38-4.67.68-4.53,4.19.21,5.06.62,10.11.93,15.16C12.45,122.07,12.4,123,12.4,124.62Z"/><path d="M62.18,410.39c-.62-6.73-1.91-13.46.3-20.22.21-.63.31-1.29.77-1.63,1.57,2.8,6.25,5.17,8.61,4.72,1.12,1.77.69,2.89-1.17,4a42.29,42.29,0,0,0-5,3.95,3.89,3.89,0,0,0-1.82,3.48,35.12,35.12,0,0,1-.69,5.87Zm7.15-14.22,0-.81-6-2.15.81,6.34Z"/><path d="M37.72,412.17l-1.38-18.9-7.89,2.06-.83-2.83,15.17-2.32c1.21,2,.91,2.9-1.27,2.8-2.78-.13-3.19.61-2.77,3.42.66,4.47.49,9.06.59,13.6a8.79,8.79,0,0,1-.62,2.34Z"/><path d="M43.9,100.56l-1.63.32c.16,2.61.51,5.23.42,7.85-.11,3.29-.53,6.58-.94,9.86-.07.56-.75,1-1.15,1.56l-.68-.27V102.19l-5.08,1.5c-.17-2.33,1.09-3,2.83-3.53,1.33-.41,2.42-1.55,3.74-2,.6-.21,1.6.29,2.23.74C43.94,99.1,43.82,99.92,43.9,100.56Z"/><path d="M48.21,410.47c7.94-.48,7.94-.48,9,2-1.86.41-3.77.79-5.67,1.26C48,414.59,47.84,414.47,48.21,410.47Z"/><path d="M459.34,204.19l1,3.45L457,210l-2-3.92a24.81,24.81,0,0,1,2.62-1.74A5,5,0,0,1,459.34,204.19Z"/><path class="a" d="M431.47,219.65l-.05-.23.05-.23Z"/><path d="M580.71,19.85l.38-.52Z"/><path class="a" d="M348.72,182l2.09,1.25c-2.79,0-4.93-.08-7.06,0-8.24.37-16.48.8-24.72,1.21-3.38.17-6.76.28-10.13.5-6.26.41-12.52,1-18.78,1.28-4.52.17-9.07-.29-13.59-.19-4,.08-7.9.79-11.85.79-6.61,0-13.22-.35-19.54-.54-.43-3.94-.8-7.33-1.18-10.72-.11-.94-.34-1.87-.36-2.8-.19-6.38-.32-12.76-.5-19.14-.14-4.84-.26-9.68-.49-14.52-.24-5.07-.76-10.13-.84-15.2,0-2.82.7-5.65.8-8.48.08-2.21-.32-4.43-.42-6.64-.35-7.18-.61-14.37-1-21.55-.43-8.06-1.09-16.11-1.37-24.17-.18-5.13.22-10.27.23-15.41,0-4-.23-8-.27-12-.05-4.89,0-9.79,0-14.68,0-2.7-.25-5.4-.48-8.09-.14-1.72.73-2.22,2.24-2.27,4.07-.14,8.15-.25,12.22-.49,3.66-.22,7.31-.73,11-.87,3.28-.12,6.57.14,9.85.12,5.39,0,10.87.43,16.13-.45,3-.51,6-1.72,9.21-1.87,1.84-.09,3.67-.21,5.51-.25,5.27-.13,10.54-.35,15.81-.29,5.66.06,11.31.53,17,.56,3.28,0,6.55-.5,9.83-.78,7.49-.64,15-1.28,22.48-1.9,4.35-.36,8.69-.8,13-1,7.46-.27,14.93-.54,22.39-.44,4.71.07,9.4.87,14.1,1.24,3.79.29,7.6.32,11.39.65s7.66,1,11.5,1.35c3,.29,6,.48,9.06.52,5.12.07,10.22.29,15.36-.67,2.49-.47,5.26.54,7.89.9.38.05.84.34,1.1.2,1.58-.82,1.71.12,1.85,1.33.69,5.67,1.35,11.31.61,17.06-.26,2,.33,4.08.53,6.13a2.19,2.19,0,0,1,0,1c-1.68,3.5-.66,6.76.35,10.24.74,2.54.43,5.42.39,8.15-.06,4-.4,7.94-.42,11.91,0,4.32.27,8.64.23,13-.08,8.07-.39,16.15-.45,24.22,0,5.08.27,10.17.31,15.25,0,4.61-.1,9.22-.11,13.83,0,7.68-.09,15.35.05,23,.08,4,.57,8,.9,12.4-3.59.49-7.15,1-10.71,1.45-5,.66-10,1.23-15,2s-9.81,1.43-14.66,2.41c-7.19,1.44-14.31,3.19-21.5,4.64-3.65.73-7.38,1.1-11.08,1.59-4.63.61-9.27,1.21-13.91,1.72-5.52.61-11,1.2-16.58,1.64-6.08.48-12.17.83-18.27,1.1-2.74.12-5.49-.08-8.23-.1a11.89,11.89,0,0,0-1.77.25Zm14.75-34.65c-.25-.14-.51-.27-.75-.43-3.2-2.23-5.94-1.11-8.45,1.23a26.37,26.37,0,0,0-2.78,3c-1.15,1.48-2.56,2.91-3.17,4.61s-1,4-.29,5.43c2.31,4.52,6.19,7.48,11.46,7.24a19.41,19.41,0,0,0,7.92-2.41c4.37-2.33,6.25-10.11,2.87-14.3Zm4.32-91.06c-3.63,1-8,.55-11.22,4-.44.47-1.24.6-1.82,1A24.75,24.75,0,0,0,350.59,64a45.43,45.43,0,0,0-3.71,4.54,18.31,18.31,0,0,0-3.7,10.58,26.07,26.07,0,0,0,1.11,7.85c.72,2.88,1.63,5.95,4.49,7.39a49.16,49.16,0,0,0,9.91,3.88c3.13.8,6.54.47,9.7,1.18A12.72,12.72,0,0,0,377,98.24a20,20,0,0,0,8.68-9,42.45,42.45,0,0,0,1.7-5.11A16.2,16.2,0,0,0,385,68.39c-2.52-3.26-6-5.74-9-8.63A12.77,12.77,0,0,0,367.78,56.3Zm-94,92.88a17.11,17.11,0,0,0-9,10.35c-2.33,7.36,3,15.86,11.77,15.13,5.37-.45,10.15-2.88,12.78-8.19,1.65-3.33,1.63-7,2-10.51.19-2.1-1-3.54-2.65-4.62a11.92,11.92,0,0,1-2-1.21c-2.32-2.31-5-2.52-8.08-1.94-1.91.36-4.06-.26-5,2.35Zm44.85,22.34c4.26-.32,8.54-1.29,12.07-4.13,1.38-1.1,2.87-2.72,3.2-4.33.59-2.83,1.39-5.88-.24-8.75-1.84-3.25-4.2-6.26-7.8-7.22-3-.8-6.63-2.28-9.32,1.18,0,.05-.15.05-.22.07a7.09,7.09,0,0,0-5.19,5,32.73,32.73,0,0,0-1.49,8.59C309.34,168.66,312.22,170.68,318.59,171.52ZM285,144.61c1.12-.11,1.81,0,2.2-.26a72,72,0,0,0,6.38-5c4.4-4,8.6-8.32,13-12.36,5-4.6,10.2-9.06,15.34-13.54,3.47-3,7-5.92,10.45-9,.73-.66,1.55-2.49,1.28-2.79-1.34-1.42-2,.36-2.76,1-2,1.75-4,3.58-5.92,5.43-2.41,2.29-4.69,4.74-7.19,6.92-1.76,1.54-3.41,3.15-5.1,4.76-1.22,1.16-2.89,1.83-4.22,2.89-4,3.2-7.95,6.49-11.91,9.74C292.35,136,288,139.33,285,144.61ZM340.86,17.69l-.66.67a15.16,15.16,0,0,0,1.21,2.2c1.46,1.86,3.07,3.61,4.45,5.53a2.36,2.36,0,0,1,.18,2.14c-1.6,2.29-3.51,4.37-5,6.7-.45.69,0,2,0,3,.92-.29,2.11-.31,2.72-.91,2-1.94,3.71-4.1,5.65-6.31l6.28,7.15.76-.44a10.56,10.56,0,0,0-.9-2.63A27.91,27.91,0,0,0,352,30.32c-1.26-1.23-.62-1.95.22-2.89,1.69-1.87,3.4-3.73,4.92-5.73.49-.65.37-1.75.53-2.64-.74.08-1.65-.09-2.2.27-2.54,1.69-5,3.54-7.54,5.39L344.13,19l-1.06.58ZM286,29l1-.08c.7,2.76,1.38,5.53,2.11,8.28.26,1,.68,1.91,1,2.86l.52-.23,3.23-9.23,1.3,11.74,1.31-.09c1.59-6.2-.49-12.48-.18-18.78-2.88,2.81-4,6.57-5.88,10.27l-3.85-12a21.89,21.89,0,0,0-2.53,6c-1.41,5.2-2.78,10.42-4,15.66-.26,1.1-.32,2.71,1.75,2.35Zm36.27,9.64c1.89,2.62,4.07,3.54,6.2,2.77,2.31-.84,3.84-3.87,3.71-6.91-.11-2.52-2.37-2.55-3.75-2.89a5.7,5.7,0,0,0-4.19,1.34c-1.17.94-1.77,2.58-2.68,4-1.37-2.21-3.32-2.1-5.28-.93-.49.29-.55,1.28-.85,2.06,1.22,0,2,0,2.82,0,.48,0,1.26.08,1.35.32.19.51.19,1.56-.05,1.67a7.81,7.81,0,0,1-3.27.83,2.59,2.59,0,0,1-1.85-1.46c-.8-2.27.51-6,2.51-7.5a2.43,2.43,0,0,1,1.92-.43c2.42.94,2.39,1,3-1.49-3.53-1.73-6.94-.66-7.88,2.55-.64,2.18-1.14,4.4-1.6,6.62-.28,1.39-.27,2.73,1.41,3.44C318.45,44.59,320.67,43.6,322.3,38.62Zm93.8,117.75a24.71,24.71,0,0,0-.25-3.45c-1.07-5.08-5-7.15-9.46-8.07-3.32-.69-6.71-.82-9.95,1.5-2.79,2-4.09,4.71-5.48,7.52a7.07,7.07,0,0,0-.94,2.33c-.57,6.56,5.22,10.71,10.81,10.38a36,36,0,0,0,8.46-1.85C414,163.27,416.47,161.47,416.09,156.37Zm14.7-12.31a13.32,13.32,0,0,0-1.45-2.73c-2.14-2.32-4.52-4.43-6.57-6.82-3.34-3.89-6.44-8-9.73-11.92-4.51-5.41-9.61-10.41-13.52-16.21-3.35-5-8.47-8-12-12.63-.11-.15-.41-.16-1.07-.4a7.15,7.15,0,0,0,.67,2.29c1.18,1.46,2.54,2.78,3.79,4.19,1.77,2,3.45,4.06,5.27,6,.71.76,1.82,1.17,2.48,2,1.35,1.63,2.41,3.5,3.77,5.13,3,3.61,6.22,7.08,9.21,10.71s5.6,7.17,8.39,10.77c.43.56.73,1.37,1.3,1.64,2.64,1.27,3.11,1.82,3.51,4.74,0,.14.24.28.4.37Zm-51.86-39.4-.77.11c.06.57-.1,1.42.21,1.65,1.91,1.41.8,4,2.5,5.71,1.54,1.59,1.66,4.46,2.78,6.57,1.43,2.7,3.23,5.21,4.88,7.79q3.59,5.62,7.18,11.22c.59.92,1.22,1.83,1.83,2.74l1.49-2.93-.69.32C391.67,126.92,386.84,114.84,378.93,104.66Zm71.68,48.6c.62-2-.69-3.24-2.22-4.53-4.42-3.73-9.74-4.67-14.28-2.47-.29.14-.56.81-.68.77-2.16-.71-3,.92-3.65,2.3a39.89,39.89,0,0,0-2.11,6c-.88,3.06,1,7.93,3.65,8.51a29.39,29.39,0,0,0,9.41.77C445.85,164.06,451.44,158,450.61,153.26Zm-100-48.12c-4.25,1.13-4.88,4.34-6.22,7.1-1.46,3-3.14,5.89-4.86,8.74-1.55,2.56-3.38,4.94-4.92,7.5-2.9,4.82-5.7,9.71-8.46,14.61a5.6,5.6,0,0,0-.19,2.18c.67-.36,1.59-.56,2-1.12,3.2-4.9,6.41-9.81,9.4-14.84,4.19-7,8.21-14.18,12.27-21.31A19.53,19.53,0,0,0,350.66,105.14Zm13.2,37.54a20.11,20.11,0,0,0,.54-3.41c-.05-2.77-.37-5.54-.39-8.31-.06-7.55,0-15.1-.07-22.64a5.83,5.83,0,0,0-.8-1.94l-.68.13a20,20,0,0,0-.39,2.42c-.19,4.68-.27,9.37-.51,14.05s-.71,9.25-.88,13.87c0,1,.78,1.94,1.2,2.91C362.14,140.81,361.31,142.24,363.85,142.68ZM308.49,38.38l.07-1.53a3.89,3.89,0,0,0-.87-.18c-1.83.15-3.46-.11-3.59-2.38s1.88-1.92,3.2-2.49a12.06,12.06,0,0,0,2.32-1.74l-.42-.75h-2.44l-1.55-5.93-2.87,2.55,2.36,3.64-.64-.17a19.58,19.58,0,0,0-1.69,3.76c-.41,1.84-.11,3.86-.68,5.62-1.32,4,.38,6.66,4.64,6.51a38.28,38.28,0,0,0,4.39-.68l-.87-3.23c-1.87,2.3-3.87,2.44-5.78,1.29a3.16,3.16,0,0,1-.54-2.43A38.22,38.22,0,0,1,308.49,38.38Z"/><path class="a" d="M261.07,474c-.23-3.2-.46-6.21-.64-9.22q-.94-15-1.86-30.08c-.23-3.84-.22-7.7-.58-11.53-.86-9.12-1.94-18.22-2.81-27.34-.6-6.35-.93-12.73-1.52-19.08-.51-5.45-1.2-10.88-1.83-16.31q-.74-6.35-1.52-12.69c-.4-3.21-.85-6.41-1.27-9.54,10.6-2.16,20.77-4.45,31-6.25,6.8-1.19,13.74-1.58,20.58-2.54,6.22-.87,12.39-2,18.58-3.08,6.88-1.17,13.74-2.47,20.64-3.54,5.16-.8,10.37-1.29,15.55-2s10.58-1.59,15.87-2.36a19.16,19.16,0,0,1,2.16,0c7.26-.22,14.52-.49,21.79-.65,7.55-.16,15.14-.72,22.63-.1,3.91.32,7.2-1.48,10.89-1.32,2.1.09,4.21-.3,6.31-.21,4,.16,8,.63,12,.74,2.93.07,5.88-.33,8.82-.34a48.77,48.77,0,0,1,5.92.47c2.15.25,1.5,2.24,1.74,3.41a53.38,53.38,0,0,1,1,8.45c.09,2-.49,4.12-.39,6.17.38,7.71,1,15.4,1.36,23.11.2,4,.05,8.09.14,12.14.08,3.82-.15,7.7.53,11.42.46,2.52-.24,4.81-.07,7.21.19,2.6.59,5.19.59,7.79,0,6.54-.18,13.09-.33,19.63-.07,3.12.41,6.46-.56,9.3a14.39,14.39,0,0,0-.62,6.57c.39,3.06-.44,5.92-.59,8.88-.17,3.26-.42,6.52-.44,9.78a37.19,37.19,0,0,0,.56,6c.34,2.15-.37,3.51-2.43,3.6-3.38.14-6.77,0-10.15.06-7.42.2-14.86.9-22.25.56-4.58-.21-9.24,1.62-13.78-.43-.72-.32-1.82.33-2.73.3-2.7-.08-5.39-.29-8.08-.42a4.14,4.14,0,0,0-1.66.12c-5.17,2-10.64,1.84-16,2.3s-10.66,1.26-16,1.84c-3.58.39-7.17.61-10.74,1-7.75.9-15.48,1.95-23.24,2.81-4.32.48-8.66.73-13,1-7.53.51-15.06,1-22.59,1.46-7.29.47-14.58.94-21.86,1.46-3.58.26-7.15.66-10.72.94C266.71,473.68,263.9,473.82,261.07,474Zm99.52-39.46a11.65,11.65,0,0,0,2.54-.63,53.92,53.92,0,0,0,5.72-3.18,18.09,18.09,0,0,0,6.42-8c1.71-3.89,3.79-8.1,3.76-12.16,0-5.78-1.81-11.56-2.94-17.31a16.28,16.28,0,0,0-9.44-12.21c-.35-.17-.67-.41-1-.59-4.93-2.52-10.09-3.83-15.64-2.89-2.23.38-4.42,1-6.65,1.44-5.66,1.08-9.77,4.57-13,9-1.63,2.19-2.31,5.08-3.47,7.63,0,.06-.56-.12-.78-.17-.35,2.25-1.22,4.65-1,6.94.35,3.37-.41,7.08,2.12,10,.18.2.11.61.16.93a29,29,0,0,0,6.14,13.52c1.29,1.59,3.4,2.53,4.64,4.15a10.75,10.75,0,0,0,7.77,4.37,45.88,45.88,0,0,0,6.25.45c2.64-.07,5.41.58,7.89-.93Zm21-86c1.52-5.59-3.07-8-5.09-12,1.21-3.21,4.7-5.49,4.9-9.51-3.19,1.48-4.58,4.6-6.89,7.11a9.31,9.31,0,0,0-4.88-4.94,2.49,2.49,0,0,0-2.13,0,1.43,1.43,0,0,0-.32,2.38,40.89,40.89,0,0,1,3.17,4.11c1.16,1.62,1,1.55,0,3.19-2,3.2-3.78,6.51-5.57,9.81-.23.42.07,1.11.12,1.68a9.46,9.46,0,0,0,1.47-.2c1.52-.45,1.34-2,2-3A74.27,74.27,0,0,1,374,340Zm-85.69-3c-1-1.64-2.24-3.33-3.19-5.15-.4-.78.24-2.44-1.41-2-1,.29-2.31.81-2.28,2.56a30.82,30.82,0,0,1-.57,6.84c-.68,3.18-1.74,6.28-2.68,9.58,2.82-.21,3.22-.64,3.53-2.48.55-3.36,1.25-6.69,1.94-10.27,3.75,1.26,2.45,5.4,5,7.18l2.91-9.34,1,0,1.5,12.88c1.77-.46,2-1.06,1.74-2.89-.62-3.72-1-7.47-1.66-11.19a33.16,33.16,0,0,0-1.32-4.18Zm38.16.33c0,3.5,2.1,5.66,5.51,5.66,3.07,0,6.07-3.34,6-6.73,0-2.84-2.31-4.76-5.58-4.68A6.08,6.08,0,0,0,334.11,345.83ZM312.56,350c-.4,1.71-1.68,4-1,5,1.41,2,4,1.18,6.24.73,1.66-.34,1.79-1.57,1.82-3.26a17.3,17.3,0,0,1-3.14.58,10.6,10.6,0,0,1-2.53-.62l.16-.75a5.93,5.93,0,0,1,2.11,0c2.67,1.11,2.56-.46,2.45-2.24-5.15-.69-5.73-1.12-5.5-4.1,1-.08,2.05-.12,3.07-.28.51-.08,1.32-.29,1.39-.59a2,2,0,0,0-.39-1.7c-1.19-1.13-4.82,0-5.79,1.4-1.58,2.19-1.31,4.43-.74,6.77,0,.07.28.08.48.14l-.09-1.09Zm19.4-8.45c-3.19,0-6.39-.6-8.4,3.09s-1.81,6.16,1.76,8c1.91,1,4.21,1.86,6.21.31a3.39,3.39,0,0,0,1-4.41,3.51,3.51,0,0,0-4.57-1.45c-.61.23-1,1-1.49,1.58a15.46,15.46,0,0,0,1.88.59,14,14,0,0,0,1.92.1c-1.18,2.16-2.54,2.36-4.85.84-1.22-.8-1.21-2.82-.09-4.41,1.38-2,4-2.81,6.66-.52Zm-20.86-6.67c1.26,3.76,1.26,3.76,3.17,3.43C314.39,334.75,313.65,333.87,311.09,334.86Z"/><path class="a" d="M81.15,398.92l.84-4.64,2.51,4.15Z"/><path d="M367.78,56.3a12.77,12.77,0,0,1,8.2,3.45c3,2.9,6.52,5.38,9,8.63a16.2,16.2,0,0,1,2.39,15.78,42.45,42.45,0,0,1-1.7,5.11,20,20,0,0,1-8.68,9,12.72,12.72,0,0,1-8.65,1.14c-3.16-.72-6.57-.39-9.7-1.18a49.16,49.16,0,0,1-9.91-3.88c-2.86-1.44-3.77-4.51-4.49-7.39a26.07,26.07,0,0,1-1.11-7.85,18.31,18.31,0,0,1,3.7-10.58A45.43,45.43,0,0,1,350.59,64a24.75,24.75,0,0,1,4.15-2.74c.59-.36,1.38-.49,1.82-1C359.74,56.85,364.16,57.27,367.78,56.3Zm9.77,19.09c-.15,1.9-2,3.23-4.08,3.51a4.58,4.58,0,0,1-4.82-3c-.73-1.59-2.43-1-3.72-.93-.51,0-1.15.86-1.43,1.47-1.33,3-4.07,4-6.79,2.21-1.1-.73-1.77-2.13-2.86-3.52-2.76.92-5.4-.45-7.79-2.72-2.36,6.26-.9,11.72,2,16.82,2.67,4.76,7.8,5.8,12.55,7.05a26.52,26.52,0,0,0,8.44.91c3.14-.22,6.53-.66,9.25-2.08,5.08-2.66,7-7.71,7.86-13.16A19.29,19.29,0,0,0,385,72.8Zm-.48-3.11c1.37,0,2.56.32,3.41-.08a12.08,12.08,0,0,0,2.69-2.41c-.45-.45-.82-1.12-1.37-1.32-3.06-1.14-6.24-2-9.23-3.27-3.33-1.42-6.73-2.88-10.31-2.05-5.29,1.21-9.82,4.13-14,7.33,1.62,3.14,4.3,2.21,5.93,2.22,1.19-1.31,1.85-2.18,2.66-2.89,3.24-2.87,6.2-2.12,7.67,1.9.49,1.33,2.56,1.67,3.22.36,1.25-2.52,3.66-2.15,5.7-2.62S377,69.75,377.07,72.28Zm-16.28-2c-1.87,1.41-5.44,1.44-3.51,5,1.12,2,3,1,4.25.15C364.22,73.46,361.3,72.07,360.8,70.25Zm13.73,6.23,1-.52-.21-4.61c-1,.06-2.53-.27-2.93.25a4.77,4.77,0,0,0-1,3.61C371.58,75.87,373.43,76.07,374.53,76.48Z"/><path d="M370.28,151.78c3.38,4.18,1.5,12-2.87,14.3a19.41,19.41,0,0,1-7.92,2.41c-5.26.24-9.14-2.72-11.46-7.24-.73-1.42-.31-3.76.29-5.43s2-3.13,3.17-4.61a26.37,26.37,0,0,1,2.78-3c2.51-2.35,5.25-3.47,8.45-1.23.23.16.5.29.75.43l-1.76.16,1.48,1.13a31.9,31.9,0,0,1-5.47-.24,2.76,2.76,0,0,0-1.72.53c-1.26,1-2.39,2.08-3.62,3.08-4.37,3.52-2.17,10,1.73,12.31-.27-1.57-.65-3.42-.91-5.3a27.71,27.71,0,0,1-.34-4.2c0-2.06,1.86-1.66,3.08-2.18.14.31.18.58.33.72,2.69,2.4,2.2,4.35-.68,6.22-.92.6.18,3.41,1.34,3.7a4.79,4.79,0,0,0,5.84-2.45,19.62,19.62,0,0,0,1.1-3.09l-.56.43c-.79-.82-1.95-1.53-2.28-2.51a4.66,4.66,0,0,1,.16-3.6c.9-1.35,3.26-.94,4.62.27,1.66,1.47,1.21,2.89.13,4.39-.21.29-.65.63-.6.87a6.47,6.47,0,0,1-5,7.65c-.27.06-.49.34-1,.74,4.68,0,8.34-1.58,10.55-5.11a7.5,7.5,0,0,0-.44-8.09Z"/><path class="a" d="M370.28,151.78l-.83,1a7.5,7.5,0,0,1,.44,8.09c-2.21,3.54-5.87,5.12-10.55,5.11.53-.4.75-.68,1-.74a6.47,6.47,0,0,0,5-7.65c0-.24.39-.58.6-.87,1.08-1.5,1.52-2.92-.13-4.39-1.36-1.21-3.71-1.62-4.62-.27a4.66,4.66,0,0,0-.16,3.6c.33,1,1.49,1.68,2.28,2.51l.56-.43a19.62,19.62,0,0,1-1.1,3.09,4.79,4.79,0,0,1-5.84,2.45c-1.16-.29-2.26-3.1-1.34-3.7,2.88-1.88,3.36-3.82.68-6.22-.15-.14-.19-.4-.33-.72-1.23.52-3.06.12-3.08,2.18a27.71,27.71,0,0,0,.34,4.2c.26,1.87.64,3.73.91,5.3-3.9-2.3-6.1-8.79-1.73-12.31,1.23-1,2.36-2.12,3.62-3.08a2.76,2.76,0,0,1,1.72-.53,31.9,31.9,0,0,0,5.47.24l-1.48-1.13,1.76-.16Z"/><path d="M273.74,149.18l-.2,1.36c.91-2.61,3.06-2,5-2.35,3.09-.59,5.75-.37,8.08,1.94a11.92,11.92,0,0,0,2,1.21c1.67,1.08,2.84,2.53,2.65,4.62-.32,3.56-.3,7.18-2,10.51-2.63,5.31-7.41,7.74-12.78,8.19-8.77.73-14.1-7.76-11.77-15.13A17.11,17.11,0,0,1,273.74,149.18Zm16.42,7.65c-.74-1.09-1.24-1.92-1.84-2.68-2-2.52-4.18-4.51-7.72-4.67-4.08-.18-7.25,2-10.05,4.19-3,2.32-5.13,5.85-4.3,10,1.24,6.21,4.45,9.36,11.24,8.31,1.23-.19,2.41-.71,3.64-.93,2.79-.5,7.23-4.91,7.71-7.67C289.25,161.11,289.75,158.86,290.16,156.83Z"/><path d="M318.59,171.52c-6.37-.85-9.25-2.87-9-9.57a32.73,32.73,0,0,1,1.49-8.59,7.09,7.09,0,0,1,5.19-5c.08,0,.18,0,.22-.07,2.69-3.46,6.3-2,9.32-1.18,3.6,1,6,4,7.8,7.22,1.62,2.87.82,5.92.24,8.75-.33,1.61-1.82,3.22-3.2,4.33C327.13,170.23,322.85,171.2,318.59,171.52Zm2.09-2.43c1.77-.65,5.23-1.8,8.6-3.17a4.43,4.43,0,0,0,2.9-5c-.26-2.12-.71-4.22-.91-6.34-.3-3.21-2.22-4.75-5.15-5.33-1.55-.31-3.12-.52-4.68-.8-2.63-.48-7.62,1.85-8.45,4.26-1.07,3.13-2.32,6.14-1.63,9.76C312.24,167,314.11,169.09,320.68,169.09Z"/><path d="M285,144.61c3-5.28,7.33-8.65,11.57-12.13,4-3.26,7.9-6.54,11.91-9.74,1.33-1.06,3-1.73,4.22-2.89,1.68-1.61,3.34-3.22,5.1-4.76,2.5-2.19,4.78-4.63,7.19-6.92,1.94-1.85,3.9-3.67,5.92-5.43.78-.68,1.43-2.46,2.76-1,.28.3-.54,2.12-1.28,2.79-3.41,3.09-7,6-10.45,9C316.8,118,311.64,122.44,306.6,127c-4.42,4-8.61,8.31-13,12.36a72,72,0,0,1-6.38,5C286.83,144.64,286.14,144.5,285,144.61Z"/><path d="M340.86,17.69l2.2,1.85,1.06-.58,3.8,5.75c2.56-1.85,5-3.69,7.54-5.39.55-.37,1.45-.2,2.2-.27-.16.89,0,2-.53,2.64-1.51,2-3.23,3.86-4.92,5.73-.85.94-1.48,1.66-.22,2.89a27.91,27.91,0,0,1,3.51,4.43,10.56,10.56,0,0,1,.9,2.63l-.76.44-6.28-7.15c-1.94,2.2-3.69,4.36-5.65,6.31-.61.6-1.8.63-2.72.91,0-1-.44-2.27,0-3,1.53-2.33,3.44-4.41,5-6.7a2.36,2.36,0,0,0-.18-2.14c-1.39-1.91-3-3.66-4.45-5.53a15.16,15.16,0,0,1-1.21-2.2Z"/><path d="M286,29l-4.23,16.74c-2.07.36-2-1.25-1.75-2.35,1.23-5.25,2.6-10.46,4-15.66a21.89,21.89,0,0,1,2.53-6l3.85,12c1.85-3.69,3-7.45,5.88-10.27-.31,6.31,1.77,12.59.18,18.78l-1.31.09-1.3-11.74-3.23,9.23-.52.23c-.34-1-.76-1.88-1-2.86-.74-2.75-1.41-5.52-2.11-8.28Z"/><path d="M322.3,38.62c-1.63,5-3.84,6-8.48,4-1.68-.71-1.7-2-1.41-3.44.45-2.22,1-4.44,1.6-6.62.94-3.21,4.35-4.28,7.88-2.55-.61,2.49-.58,2.43-3,1.49a2.43,2.43,0,0,0-1.92.43c-2,1.46-3.31,5.23-2.51,7.5a2.59,2.59,0,0,0,1.85,1.46,7.81,7.81,0,0,0,3.27-.83c.24-.1.24-1.16.05-1.67-.09-.24-.87-.29-1.35-.32-.8,0-1.6,0-2.82,0,.3-.78.37-1.77.85-2.06,2-1.17,3.91-1.28,5.28.93.91-1.42,1.51-3.06,2.68-4a5.7,5.7,0,0,1,4.19-1.34c1.37.34,3.64.37,3.75,2.89.13,3-1.4,6.07-3.71,6.91C326.37,42.16,324.18,41.24,322.3,38.62Zm2.25-1.82.1,1c.65.41,1.54,1.32,1.91,1.14a7.49,7.49,0,0,0,2.88-2.33c.17-.24-1.12-1.53-1.74-2.34Z"/><path d="M416.09,156.37c.37,5.09-2.13,6.89-6.8,8.36a36,36,0,0,1-8.46,1.85c-5.59.34-11.38-3.81-10.81-10.38a7.07,7.07,0,0,1,.94-2.33c1.4-2.81,2.7-5.53,5.48-7.52,3.23-2.32,6.63-2.19,9.95-1.5,4.44.92,8.38,3,9.46,8.07A24.71,24.71,0,0,1,416.09,156.37Zm-24.19.12c-.87,5.51,6.53,8.42,10.54,7.66,3.56-.67,7-1.28,10.25-3.08a3.33,3.33,0,0,0,1.66-1.9,11.66,11.66,0,0,0,.43-5.18c-.43-1.94-1.33-5-2.58-5.3-4.68-1.13-9.35-3.88-14.51-.46C394.65,150.23,391.91,153,391.9,156.49Z"/><path d="M430.8,144.06l-5.52-2.89c-.16-.08-.38-.23-.4-.37-.4-2.92-.88-3.47-3.51-4.74-.56-.27-.87-1.08-1.3-1.64-2.79-3.6-5.5-7.26-8.39-10.77s-6.19-7.1-9.21-10.71c-1.36-1.63-2.42-3.49-3.77-5.13-.66-.8-1.77-1.2-2.48-2-1.81-1.95-3.5-4-5.27-6-1.25-1.41-2.61-2.72-3.79-4.19a7.15,7.15,0,0,1-.67-2.29c.66.24,1,.25,1.07.4,3.5,4.65,8.63,7.65,12,12.63,3.9,5.81,9,10.81,13.52,16.21,3.29,3.93,6.39,8,9.73,11.92,2.05,2.39,4.43,4.5,6.57,6.82A13.32,13.32,0,0,1,430.8,144.06Z"/><path d="M378.93,104.66c7.91,10.18,12.73,22.26,19.43,33.19l.69-.32-1.49,2.93c-.61-.91-1.23-1.82-1.83-2.74q-3.6-5.61-7.18-11.22c-1.65-2.59-3.45-5.09-4.88-7.79-1.12-2.11-1.24-5-2.78-6.57-1.7-1.75-.59-4.31-2.5-5.71-.31-.23-.15-1.08-.21-1.65Z"/><path d="M450.61,153.26c.82,4.7-4.76,10.8-9.88,11.38a29.39,29.39,0,0,1-9.41-.77c-2.66-.58-4.53-5.45-3.65-8.51a39.89,39.89,0,0,1,2.11-6c.65-1.37,1.49-3,3.65-2.3.12,0,.39-.63.68-.77,4.54-2.2,9.85-1.26,14.28,2.47C449.92,150,451.23,151.28,450.61,153.26Zm-12.48,9.69c4.43,0,7.33-2.35,9.85-5.71,2.33-3.1.92-8.65-2.77-9.26a47.18,47.18,0,0,0-8.65-.53c-4.88.11-6.91,4.43-7.44,8.14a5.76,5.76,0,0,0,4.34,6.58C435,162.56,436.58,162.7,438.13,162.95Z"/><path d="M350.66,105.14a19.53,19.53,0,0,1-1,2.88c-4.06,7.12-8.08,14.26-12.27,21.31-3,5-6.2,9.93-9.4,14.84-.37.56-1.29.76-2,1.12a5.6,5.6,0,0,1,.19-2.18c2.76-4.9,5.56-9.79,8.46-14.61,1.54-2.56,3.37-4.95,4.92-7.5,1.73-2.85,3.41-5.75,4.86-8.74C345.77,109.49,346.4,106.27,350.66,105.14Z"/><path d="M363.85,142.68c-2.54-.44-1.71-1.87-2-2.91-.42-1-1.24-2-1.2-2.91.17-4.63.64-9.25.88-13.87s.32-9.37.51-14.05a20,20,0,0,1,.39-2.42l.68-.13a5.83,5.83,0,0,1,.8,1.94c.06,7.55,0,15.1.07,22.64,0,2.77.34,5.54.39,8.31A20.11,20.11,0,0,1,363.85,142.68Z"/><path d="M308.49,38.38a38.22,38.22,0,0,0-5,1.86,3.16,3.16,0,0,0,.54,2.43c1.91,1.15,3.91,1,5.78-1.29l.87,3.23a38.28,38.28,0,0,1-4.39.68c-4.26.15-6-2.46-4.64-6.51.57-1.76.27-3.79.68-5.62a19.58,19.58,0,0,1,1.69-3.76l.64.17-2.36-3.64,2.87-2.55,1.55,5.93h2.44l.42.75a12.06,12.06,0,0,1-2.32,1.74c-1.32.57-3.34.21-3.2,2.49s1.76,2.53,3.59,2.38a3.89,3.89,0,0,1,.87.18Z"/><path d="M360.06,434.91c-2.48,1.51-5.25.86-7.89.93a45.88,45.88,0,0,1-6.25-.45,10.75,10.75,0,0,1-7.77-4.37c-1.24-1.62-3.35-2.56-4.64-4.15a29,29,0,0,1-6.14-13.52c-.05-.31,0-.72-.16-.93-2.53-2.95-1.77-6.66-2.12-10-.24-2.29.62-4.69,1-6.94.22,0,.75.22.78.17,1.15-2.55,1.84-5.44,3.47-7.63,3.26-4.39,7.37-7.88,13-9,2.23-.42,4.42-1.06,6.65-1.44,5.55-.94,10.72.37,15.64,2.89.35.18.66.42,1,.59a16.28,16.28,0,0,1,9.44,12.21c1.14,5.76,2.9,11.53,2.94,17.31,0,4.06-2.05,8.27-3.76,12.16a18.09,18.09,0,0,1-6.42,8,53.92,53.92,0,0,1-5.72,3.18,11.64,11.64,0,0,1-2.54.63Zm7.56-37.68a3.74,3.74,0,0,0-1.57-.7c-1.12,0-2.71-.09-3.29.57-2.14,2.46-4.13,3.8-6.54,2.49-2.76-1.5-5.29-1-8-.62-.94,2.17-2.25,3.88-4.92,3.71-1.66-.1-3.31-.43-5-.47-3.14-.08-6.29,0-9.54,0,0,3.31,0,6.69,0,10.06,0,4.4,1.88,8.23,4.28,11.69A19,19,0,0,0,344,431.82a37.45,37.45,0,0,0,13.43,1.06,18.93,18.93,0,0,0,8.11-2.83c5.63-3.59,9.6-8.62,10.72-15.44.44-2.65,1.54-5.23.33-8.09-.43-1-1.38-3,.35-3.67-2.13-2.56-1.46-6.25-3.47-9.14Zm-14.25-4.09a2.39,2.39,0,0,0,.93-.76c1.69-3,4.83-3.17,6.79-.27.69,1,1.19,2.14,2.86,1.92a26.83,26.83,0,0,1,3.71.22c.15,0,.27-.75.47-1.11.29-.54.54-1.33,1-1.5a19.7,19.7,0,0,1,3.33-.69c-1.41-2.3-3.53-3.28-5.71-2.79a2.38,2.38,0,0,1-1.17-.11c-2.74-.87-5.41-2.15-8.21-2.55-4.32-.62-8.69-1-12.8,1.52-3.92,2.41-8.1,4.38-12.12,6.62-.5.28-.74,1-1.09,1.54l-1.4-1c-.28,1.11-.32,2.29.23,2.75a16.43,16.43,0,0,0,3.3,1.8l4.35-1c1.06-.94.1-4.33,3.51-4.77,3.09-.4,4.34,1.7,5.7,3.5l6.87-.82Zm4.48,4.22c2.54,0,2.71-.12,2.75-2,0-2.23-.85-3.27-2.73-3.27a2.84,2.84,0,0,0-2.91,3A2.28,2.28,0,0,0,357.85,397.37Zm-15.48-2.86c-.69,1-2.07,2.43-1.81,2.89.69,1.23,2.09,2.05,3.18,3C347,397.33,343.56,396.38,342.36,394.51Z"/><path d="M381.63,348.52,374,340a74.27,74.27,0,0,0-5.64,7.15c-.62,1-.45,2.53-2,3a9.46,9.46,0,0,1-1.47.2c-.05-.57-.35-1.26-.12-1.68,1.79-3.31,3.6-6.61,5.57-9.81,1-1.64,1.19-1.57,0-3.19a40.89,40.89,0,0,0-3.17-4.11,1.43,1.43,0,0,1,.32-2.38,2.49,2.49,0,0,1,2.13,0,9.31,9.31,0,0,1,4.88,4.94c2.31-2.51,3.7-5.63,6.89-7.11-.2,4-3.69,6.3-4.9,9.51C378.57,340.48,383.15,342.94,381.63,348.52Z"/><path d="M295.95,345.5l4.54-8.42a33.16,33.16,0,0,1,1.32,4.18c.62,3.72,1,7.47,1.66,11.19.3,1.82,0,2.43-1.74,2.89l-1.5-12.88-1,0-2.91,9.34c-2.57-1.78-1.27-5.92-5-7.18-.68,3.59-1.38,6.92-1.94,10.27-.3,1.84-.71,2.28-3.53,2.48.94-3.3,2-6.4,2.68-9.58a30.82,30.82,0,0,0,.57-6.84c0-1.74,1.25-2.26,2.28-2.56,1.66-.47,1,1.19,1.41,2C293.71,342.18,294.91,343.86,295.95,345.5Z"/><path d="M334.11,345.83a6.08,6.08,0,0,1,6-5.75c3.27-.08,5.56,1.84,5.58,4.68,0,3.39-3,6.73-6,6.73C336.21,351.49,334.11,349.34,334.11,345.83Zm6.72-3.19c-.91.78-1.25,1.1-1.62,1.38a10,10,0,0,0-2.32,1.79,2.09,2.09,0,0,0,.21,2,4.35,4.35,0,0,0,3,.85c1-.29,2.51-1.46,2.49-2.22C342.58,345.23,341.51,344,340.83,342.64Z"/><path d="M312.56,350h-1.48l.09,1.09c-.2-.05-.46-.06-.48-.14-.57-2.34-.84-4.57.74-6.77,1-1.36,4.6-2.52,5.79-1.4a2,2,0,0,1,.39,1.7c-.07.3-.88.51-1.39.59-1,.16-2.06.19-3.07.28-.23,3,.36,3.41,5.5,4.1.11,1.77.22,3.34-2.45,2.24a5.93,5.93,0,0,0-2.11,0l-.16.75a10.6,10.6,0,0,0,2.53.62,17.3,17.3,0,0,0,3.14-.58c0,1.69-.16,2.92-1.82,3.26-2.2.45-4.83,1.29-6.24-.73C310.87,354,312.15,351.7,312.56,350Z"/><path d="M332,341.53v3.7c-2.66-2.29-5.28-1.46-6.66.52-1.12,1.6-1.13,3.61.09,4.41,2.31,1.52,3.67,1.32,4.85-.84a14,14,0,0,1-1.92-.1,15.46,15.46,0,0,1-1.88-.59c.49-.54.88-1.35,1.49-1.58a3.51,3.51,0,0,1,4.57,1.45,3.39,3.39,0,0,1-1,4.41c-2,1.55-4.3.65-6.21-.31-3.57-1.81-3.81-4.21-1.76-8S328.76,341.57,332,341.53Z"/><path d="M311.09,334.86c2.56-1,3.31-.11,3.17,3.43C312.35,338.62,312.35,338.62,311.09,334.86Z"/><path class="a" d="M360.06,434.91l.53-.38Z"/><path class="a" d="M377.55,75.39,385,72.8A19.29,19.29,0,0,1,386.12,82c-.84,5.46-2.78,10.5-7.86,13.16-2.72,1.42-6.11,1.86-9.25,2.08a26.52,26.52,0,0,1-8.44-.91C355.83,95.05,350.7,94,348,89.25c-2.86-5.1-4.33-10.56-2-16.82,2.39,2.27,5,3.65,7.79,2.72,1.1,1.39,1.76,2.79,2.86,3.52,2.72,1.8,5.46.75,6.79-2.21.27-.61.92-1.45,1.43-1.47,1.28-.06,3-.66,3.72.93a4.58,4.58,0,0,0,4.82,3C375.58,78.63,377.41,77.29,377.55,75.39Zm-21.67,7.16-.7.29a6.82,6.82,0,0,0,0,2.14c1.41,4,4.35,6.12,8.54,6.07a13.63,13.63,0,0,0,4.2-.51c4.23-1.45,8.25-3.26,9.64-8.38-1,0-2.09.19-2.5.81-1.93,2.89-4.76,4.45-7.86,5.5-3.54,1.2-7.46-.05-9-2.5C357.51,84.79,356.67,83.69,355.88,82.55Z"/><path class="a" d="M377.07,72.28c-.1-2.53-1.59-3.32-3.69-2.84s-4.44.1-5.7,2.62c-.65,1.31-2.73,1-3.22-.36-1.48-4-4.44-4.77-7.67-1.9-.81.71-1.47,1.59-2.66,2.89-1.63,0-4.31.91-5.93-2.22,4.23-3.19,8.76-6.11,14-7.33,3.59-.82,7,.63,10.31,2.05,3,1.28,6.17,2.14,9.23,3.27.54.2.91.87,1.37,1.32a12.08,12.08,0,0,1-2.69,2.41C379.63,72.6,378.44,72.28,377.07,72.28Z"/><path class="a" d="M360.8,70.25c.5,1.82,3.42,3.21.73,5.1-1.21.85-3.12,1.89-4.25-.15C355.35,71.69,358.93,71.66,360.8,70.25Z"/><path class="a" d="M374.53,76.48c-1.1-.41-3-.61-3.13-1.27a4.77,4.77,0,0,1,1-3.61c.4-.53,1.92-.2,2.93-.25l.21,4.61Z"/><path class="a" d="M290.16,156.83c-.41,2-.91,4.28-1.31,6.54-.48,2.76-4.93,7.18-7.71,7.67-1.23.22-2.41.74-3.64.93-6.79,1.05-10-2.1-11.24-8.31-.83-4.15,1.32-7.68,4.3-10,2.81-2.18,6-4.37,10.05-4.19,3.54.15,5.74,2.15,7.72,4.67C288.92,154.9,289.42,155.74,290.16,156.83Zm-16.59,3.58c1.91.65,3-.75,3.06-2.3.05-1.78-1.51-2.53-3.31-2.5-2.41,0-4,1.07-3.7,2.72C270,160.46,271.71,160.47,273.57,160.41Zm-.77,3.47a18.82,18.82,0,0,0,.19,2.35,4.15,4.15,0,0,0,6.24,2.79,19.12,19.12,0,0,0,3.48-3.64c.26-.31.16-.92.23-1.39-.44.2-.9.38-1.33.61a28.44,28.44,0,0,1-5.1,2.68c-.37.11-1.45-2.05-2.36-3.41Zm6.48-4.95c.77.66,1.45,1.69,2.33,1.89,1.54.35,4.1-1.88,3.72-3.33a4.7,4.7,0,0,0-2.62-2.6C281.56,154.43,279.73,156.8,279.28,158.93Z"/><path class="a" d="M320.68,169.09c-6.57,0-8.44-2.07-9.32-6.63-.7-3.61.55-6.63,1.63-9.76.83-2.41,5.82-4.74,8.45-4.26,1.56.28,3.13.5,4.68.8,2.94.58,4.85,2.13,5.15,5.33.2,2.12.65,4.22.91,6.34a4.43,4.43,0,0,1-2.9,5C325.91,167.29,322.45,168.45,320.68,169.09Zm7.06-8.61a7.27,7.27,0,0,0-2.12,1.08c-2.63,2.86-4.41,3.08-7.41.89-.38-.28-1.12-.07-1.69-.08a9.13,9.13,0,0,0,.28,1.85c.09.25.7.28.9.54,2,2.54,4.56,1.53,6.71.81A4.41,4.41,0,0,0,327.74,160.48Zm-6-4.53c0,2.23,1.23,3.56,3.28,3.5a3.57,3.57,0,0,0,3.25-3.94,2.79,2.79,0,0,0-3-2.8C323.94,152.73,321.75,154.68,321.74,155.95Zm-1.59.44c.08-1.49-.29-2.67-2.14-2.7-2.22,0-3.57,1-3.65,2.81-.09,2.15,1.35,2.38,3,2.49C319.16,159.11,320.26,158.45,320.15,156.39Z"/><path class="a" d="M324.55,36.8l3.15-2.5c.62.81,1.91,2.1,1.74,2.34A7.49,7.49,0,0,1,326.56,39c-.38.18-1.26-.73-1.91-1.14Z"/><path class="a" d="M391.9,156.49c0-3.53,2.75-6.25,5.79-8.27,5.16-3.42,9.83-.67,14.51.46,1.25.3,2.15,3.37,2.58,5.3a11.66,11.66,0,0,1-.43,5.18,3.33,3.33,0,0,1-1.66,1.9c-3.25,1.8-6.69,2.41-10.25,3.08C398.43,164.91,391,162,391.9,156.49Zm5,1.69-.74.43c.36.69.56,1.58,1.12,2,3.73,3,10.79,1.78,13.24-2.37.37-.63.4-2.13,0-2.41-1.15-.8-1.46.18-1.6,1.21,0,.26-.43.46-.63.7C405.88,160.79,401.07,161.25,396.88,158.18Zm5.62-7.18c0,3.28,1.06,4.57,3.06,4.61,2.19,0,4.21-1.73,4.15-3.63,0-1.46-2.83-3.31-5.13-2.92C403.63,149.22,402.88,150.63,402.51,151Zm-5,4.13c3,0,4.48-.9,4.5-2.63,0-2-1.57-2.25-2.87-2.36a3.57,3.57,0,0,0-3.89,3.07C395.14,155.16,396.33,155.23,397.51,155.13Z"/><path class="a" d="M438.13,162.95c-1.56-.25-3.14-.39-4.66-.77a5.76,5.76,0,0,1-4.34-6.58c.53-3.71,2.56-8,7.44-8.14a47.18,47.18,0,0,1,8.65.53c3.69.61,5.09,6.15,2.77,9.26C445.46,160.6,442.57,163,438.13,162.95Zm-3.72-7.84c2.24-.44,4.13-2,4.2-3.48s-2.14-3.65-3.45-3.09a6.62,6.62,0,0,0-3.5,3.23C431.41,152.47,433.43,154,434.42,155.11Zm6.61-3c-.34,1.74.45,2.89,2.46,3,1.57.06,3.81-2.16,3.77-3.72,0-1.84-1.51-2.35-2.93-2.47C442.13,148.72,441,149.82,441,152.13Zm4.53,3.34-.92.27c-.06,1.83-1.89,3.12-4.55,3.46s-3.18-2.63-5.39-3.39a5.82,5.82,0,0,0,1,3.35A6.15,6.15,0,0,0,446,157.93C446.35,157.35,445.74,156.3,445.55,155.47Z"/><path class="a" d="M367.62,397.24l5.88-3.54c2,2.89,1.34,6.59,3.47,9.14-1.73.64-.78,2.66-.35,3.67,1.21,2.87.1,5.44-.33,8.09-1.12,6.82-5.1,11.84-10.72,15.44a18.93,18.93,0,0,1-8.11,2.83A37.45,37.45,0,0,1,344,431.82a19,19,0,0,1-10.92-7.88c-2.41-3.46-4.26-7.29-4.28-11.69,0-3.38,0-6.75,0-10.06,3.25,0,6.39-.06,9.54,0,1.66,0,3.3.37,5,.47,2.67.17,4-1.54,4.92-3.71,2.7-.4,5.23-.88,8,.62,2.41,1.31,4.4,0,6.54-2.49.58-.66,2.17-.58,3.29-.57A3.74,3.74,0,0,1,367.62,397.24Zm-25.34,15.29-.76.7c.36,1.31.3,3.08,1.15,3.85a43.39,43.39,0,0,0,6.44,4.34,2,2,0,0,0,1.42,0,20.3,20.3,0,0,0,11.67-9.6c.3-.51-.17-1.48-.29-2.24a8,8,0,0,0-2,.88,6.06,6.06,0,0,0-1.17,1.75c-3,5.18-7.6,6.31-12.43,3Z"/><path class="a" d="M353.36,393.15l.56,2.52-6.87.82c-1.35-1.81-2.6-3.9-5.7-3.5-3.41.44-2.45,3.82-3.51,4.77l-4.35,1a16.43,16.43,0,0,1-3.3-1.8c-.56-.46-.51-1.64-.23-2.75l1.4,1c.36-.53.6-1.27,1.09-1.54,4-2.24,8.21-4.21,12.12-6.62,4.11-2.53,8.49-2.13,12.8-1.52,2.8.4,5.47,1.69,8.21,2.55a2.38,2.38,0,0,0,1.17.11c2.18-.48,4.3.49,5.71,2.79a19.7,19.7,0,0,0-3.33.69c-.46.17-.7,1-1,1.5-.2.37-.32,1.11-.47,1.11a26.83,26.83,0,0,0-3.71-.22c-1.67.22-2.17-.9-2.86-1.92-2-2.91-5.11-2.76-6.79.27A2.39,2.39,0,0,1,353.36,393.15Z"/><path class="a" d="M357.85,397.37a2.28,2.28,0,0,1-2.89-2.28,2.84,2.84,0,0,1,2.91-3c1.88,0,2.77,1,2.73,3.27C360.56,397.25,360.38,397.39,357.85,397.37Z"/><path class="a" d="M342.36,394.51c1.19,1.87,4.59,2.82,1.36,5.9-1.09-1-2.48-1.79-3.18-3C340.29,396.94,341.68,395.55,342.36,394.51Z"/><path class="a" d="M340.83,342.64c.69,1.36,1.76,2.59,1.78,3.84,0,.76-1.48,1.93-2.49,2.22a4.35,4.35,0,0,1-3-.85,2.09,2.09,0,0,1-.21-2,10,10,0,0,1,2.32-1.79C339.58,343.74,339.92,343.42,340.83,342.64Z"/><path d="M355.88,82.55c.79,1.14,1.63,2.24,2.36,3.41,1.53,2.45,5.45,3.7,9,2.5,3.1-1.05,5.94-2.6,7.86-5.5.41-.62,1.55-.76,2.5-.81-1.39,5.12-5.41,6.93-9.64,8.38a13.63,13.63,0,0,1-4.2.51c-4.19,0-7.13-2-8.54-6.07a6.82,6.82,0,0,1,0-2.14Z"/><path d="M273.57,160.41c-1.86.06-3.61.06-4-2.09-.26-1.65,1.3-2.68,3.7-2.72,1.8,0,3.37.72,3.31,2.5C276.58,159.65,275.48,161.06,273.57,160.41Z"/><path d="M272.8,163.88h1.35c.91,1.35,2,3.52,2.36,3.41a28.44,28.44,0,0,0,5.1-2.68c.42-.24.88-.41,1.33-.61-.07.47,0,1.09-.23,1.39a19.12,19.12,0,0,1-3.48,3.64,4.15,4.15,0,0,1-6.24-2.79A18.82,18.82,0,0,1,272.8,163.88Z"/><path d="M279.28,158.93c.44-2.13,2.27-4.5,3.42-4a4.7,4.7,0,0,1,2.62,2.6c.39,1.45-2.18,3.68-3.72,3.33C280.73,160.62,280.05,159.59,279.28,158.93Z"/><path d="M327.74,160.48a4.41,4.41,0,0,1-3.31,5.1c-2.16.71-4.76,1.73-6.71-.81-.2-.26-.82-.29-.9-.54a9.13,9.13,0,0,1-.28-1.85c.57,0,1.31-.19,1.69.08,3,2.19,4.78,2,7.41-.89A7.27,7.27,0,0,1,327.74,160.48Z"/><path d="M321.74,155.95c0-1.27,2.2-3.22,3.57-3.24a2.79,2.79,0,0,1,3,2.8,3.57,3.57,0,0,1-3.25,3.94C323,159.51,321.72,158.18,321.74,155.95Zm4.48-1.92-3.15,2.55C325.72,157.56,326.29,157.13,326.22,154Z"/><path d="M320.15,156.39c.12,2.07-1,2.72-2.82,2.6-1.61-.11-3.05-.34-3-2.49.07-1.78,1.43-2.85,3.65-2.81C319.86,153.71,320.23,154.89,320.15,156.39Z"/><path d="M396.88,158.18c4.19,3.07,9,2.61,11.4-.4.2-.25.59-.45.63-.7.13-1,.45-2,1.6-1.21.39.27.37,1.78,0,2.41-2.45,4.15-9.51,5.39-13.24,2.37-.56-.45-.75-1.35-1.12-2Z"/><path d="M402.51,151c.37-.37,1.12-1.78,2.09-1.94,2.3-.39,5.08,1.46,5.13,2.92.06,1.9-2,3.67-4.15,3.63C403.57,155.57,402.48,154.28,402.51,151Zm2,.45-.15.93c.43.43,1,1.28,1.27,1.2a8.55,8.55,0,0,0,2.17-1.24c-.37-.51-.68-1.39-1.11-1.46A5.74,5.74,0,0,0,404.5,151.45Z"/><path d="M397.51,155.13c-1.18.11-2.37,0-2.25-1.92a3.57,3.57,0,0,1,3.89-3.07c1.29.11,2.9.37,2.87,2.36C402,154.22,400.54,155.12,397.51,155.13Z"/><path d="M434.42,155.11c-1-1.14-3-2.64-2.76-3.33a6.62,6.62,0,0,1,3.5-3.23c1.31-.56,3.51,1.68,3.45,3.09S436.66,154.67,434.42,155.11Z"/><path d="M441,152.13c0-2.31,1.1-3.41,3.3-3.22,1.42.13,2.89.63,2.93,2.47,0,1.56-2.21,3.78-3.77,3.72C441.48,155,440.68,153.87,441,152.13Z"/><path d="M445.55,155.47c.19.83.8,1.88.49,2.46a6.15,6.15,0,0,1-10.31,1.23,5.82,5.82,0,0,1-1-3.35c2.21.76,2.59,3.74,5.39,3.39s4.49-1.63,4.55-3.46Z"/><path d="M342.28,412.53l4,2.69c4.83,3.28,9.43,2.15,12.43-3a6.06,6.06,0,0,1,1.17-1.75,8,8,0,0,1,2-.88c.12.76.59,1.73.29,2.24a20.3,20.3,0,0,1-11.67,9.6,2,2,0,0,1-1.42,0,43.39,43.39,0,0,1-6.44-4.34c-.85-.77-.8-2.53-1.15-3.85Z"/><path class="a" d="M326.22,154c.07,3.11-.5,3.53-3.15,2.55Z"/><path class="a" d="M404.5,151.45a5.74,5.74,0,0,1,2.17-.56c.43.06.75.94,1.11,1.46a8.55,8.55,0,0,1-2.17,1.24c-.3.08-.84-.78-1.27-1.2Z"/></svg>