<svg xmlns="http://www.w3.org/2000/svg" viewBox="0 0 600 583.14"><defs><style>.a{fill:#fff;}</style></defs><title>20170623110422023</title><path d="M591.71,330.31c-.45,1.44,1,3.42-1.54,4.14-.27.08-.39,1.12-.36,1.71.42,7.4,1,14.78,1.28,22.18.2,5.1,0,10.22,0,15.34.06,6.59.27,13.18.25,19.77q0,18.16-.28,36.32c-.14,9.08-.45,18.16-.72,27.24s-.67,18.18-.83,27.27c-.14,7.72-.23,15.45,0,23.16.26,7.47,1.07,14.92,1.49,22.39a54.13,54.13,0,0,1-.47,6.79h9.27c.48,2.44-.53,3-2.59,2.87s-4.25.35-6.37.34c-.86,0-1.7-.76-2.59-.86-3.76-.41-7.54-.81-11.32-1-3.94-.21-7.89-.23-11.84-.27-3,0-5.91,0-8.87.08-2.17,0-4.34.09-6.5.09-9.8,0-19.6,0-29.4-.07-1.83,0-3.65-.68-5.49-.77s-3.46.37-5.18.27c-6-.32-11.9-.8-17.85-1.16-3.36-.2-6.72-.3-10.08-.39-7.32-.2-14.71.18-22-.66-11.49-1.35-23-.56-34.46-1-12.73-.45-25.45-1.1-38.18-1.54-5.09-.18-10.21.23-15.29-.09-7.3-.46-14.57-1.52-21.87-2a137.8,137.8,0,0,0-14.72.11c-7.37.34-14.72,1.14-22.09,1.29-4.3.09-8.61-.7-13.5-1.14,2.7-3.67,2-7.17,1.94-10.53-.05-6.58-.29-13.16-.51-19.74-.07-2.1-.56-4.2-.47-6.28.16-3.4.73-6.77.94-10.17.09-1.54-.52-3.13-.41-4.67.4-5.65,1-11.28,1.47-16.92,0-.44.08-.88.08-1.32,0-6.17.14-12.34,0-18.51-.21-7.56-.81-15.12-1-22.68-.18-8.25.15-16.52-.11-24.77-.29-9-1-18.05-1.52-27.08-.1-1.78.06-3.57,0-5.35-.51-9.74-1.08-19.47-1.54-29.21,0-1,.75-2,.79-3,0-.71-.54-1.45-1-2.53,1.11-.22,2.4-.5,3.7-.71,5.71-.94,11.41-1.95,17.14-2.73a72.33,72.33,0,0,1,9.2-.59c9-.07,18,0,26.95,0,6.19,0,12.37,0,18.58-.28,7.74-.38,15.56.83,23.34,1.35,2.89.19,5.78.45,8.67.53,7.86.22,15.71.45,23.57.51,3.81,0,7.63-.35,11.45-.47,2-.07,4.1,0,6.16,0,10.08.15,20.16.23,30.24.5,4.27.11,8.54.94,12.8.89,6.82-.07,13.65-1,20.46-.82,6.61.17,13.19,1.36,19.8,1.93,3.56.3,7.15.18,10.73.33,5.75.24,11.5.58,17.25.82,5,.21,10,.28,15.05.56,4,.23,8.08.79,12.13,1A45.68,45.68,0,0,0,591.71,330.31Zm-2.83,205.84a16.16,16.16,0,0,0,.12-1.89c-.32-5.67-.82-11.33-1-17-.14-5.08.21-10.17.12-15.25-.07-4.1-.7-8.2-.68-12.3,0-5.37.53-10.73.68-16.1.09-3.28-.3-6.58-.15-9.86.22-4.63.88-9.24,1.1-13.87.17-3.56-.13-7.14-.07-10.71.14-7.62.42-15.24.57-22.87.09-5,.07-10,.06-15,0-8.41,0-16.83-.15-25.24-.19-8.13-.67-16.26-1-24.39-.3-6.65-.61-13.3-.91-20l-19.81-.85,0,.43,3.2.31a33.19,33.19,0,0,1-7.77-.24c-4.26-.47-8.51-1.05-12.77-1.38-2.7-.21-5.42,0-8.14,0l0,.31,1.56.33c-3.31-.11-6.58,1-9.85-1.07-1.6-1-4.34-.16-6.56-.17a72.76,72.76,0,0,1-8.54-.11c-6.71-.83-13.32-1.31-20.12-.23-4.46.71-9.16-.09-13.75-.2-1.87,0-3.75,0-5.62,0-3.06-.14-6.12-.36-9.17-.6-.64,0-1.3-.51-1.88-.4-.81.15-1.63,1.05-2.33.94a31,31,0,0,0-6.71-.36c-3.28.17-6.61-.71-9.92-1.12-.11,0-.23.12-.53.28l1.85.4-.09.62-15.75-1.41c.46.39.59.52.74.62s.2,0,.24.09,0,.17,0-.21c-3.3,0-6.63.23-9.89-.08-2.09-.2-3.86,1.71-6.05.51-.57-.31-1.69.62-2.54.57-10-.61-20-1.55-30-1.89s-20,0-30-.08c-4.73,0-9.47-.29-14.2-.2-7.83.14-15.67.22-23.47.83-6.33.49-12.61,1.72-18.82,2.61a82.4,82.4,0,0,0-.64,8.73c.13,4.26.65,8.51,1,12.77.54,6.54,1.2,13.08,1.56,19.63q.74,13.46,1.08,26.94c.28,10.32.43,20.64.54,31,.08,7.85.15,15.7,0,23.55-.22,10.29-.62,20.58-1.06,30.87-.15,3.39-1,6.77-1,10.16,0,7,.24,14,.49,20.93.14,3.8.49,7.58.75,11.5l1.88-2.14c2,3.06-1.21,3-2.67,4.68,4.05.34,7.44,1,10.79.83,8.32-.32,16.63-1.36,25-1.41,6.72,0,13.44,1,20.17,1.44,7.62.46,15.24.84,22.87,1.06,5.9.17,11.81,0,17.72,0,3.26,0,6.52-.13,9.77,0,8,.44,15.91,1.21,23.87,1.48,5.1.18,10.24-.64,15.32-.36,5.73.31,11.39,1.25,17.21,1.08,6.43-.18,12.88.62,19.33.91,1.28.06,2.6-.52,3.87-.4,4.33.4,8.64,1.2,13,1.44,6.55.37,13.13.47,19.69.57,6.31.09,12.61,0,18.92,0,10.32,0,20.65,0,31,0,2.1,0,4.21.27,6.31.38C581.24,535.79,585,536,588.88,536.15Z"/><path d="M312.79,214.17c.43-.75.66-1,.68-1.21.7-7.79,1.56-15.57,2-23.37.31-5.22.06-10.48.06-15.72s-.12-10.73,0-16.09c.26-9.36.79-18.71,1-28.07.1-4.65-.47-9.32-.43-14,0-3.84.58-7.67.74-11.52a57.26,57.26,0,0,0-.27-5.9c-.16-2.62-.38-5.25-.51-7.87-.21-4.31-.59-8.62-.49-12.93.19-8.24.71-16.46,1-24.7.14-4.19,0-8.38.06-12.57a21.72,21.72,0,0,1,.67-5.7c.21-.71,1.7-1.46,2.63-1.48,6.39-.14,12.79-.08,19.19-.09L341,33c8.47-.26,16.94-.61,25.41-.73,3,0,6,.77,9,.68,13.31-.41,26.6-1.25,39.91-1.46,8-.13,16.07.64,24.11,1,4.22.17,8.45.44,12.66.35,7.9-.17,15.8-.56,23.69-.86,9.33-.35,18.67-.86,28-1,6.26-.1,12.52.3,18.78.48,5.91.17,11.81.4,17.72.51,3.91.08,7.83,0,12.36,0,.24,8,.55,15.94.68,23.85.05,3.09-.26,6.2-.48,9.29-.5,6.79-1.31,13.58-1.51,20.38-.18,6.28.46,12.57.41,18.86-.07,8.15-.44,16.3-.74,24.45-.22,6.15-.41,12.3-.87,18.43-.24,3.28-1.19,6.5-1.5,9.78-.32,3.47-.29,7-.36,10.46-.09,4.76.12,9.55-.23,14.29-.48,6.34-1.45,12.65-2.05,19-.24,2.55-.07,5.14-.06,7.71,0,1.75-.29,2.35-2.48,2-2.68-.44-5.54.06-8.3.37-3.33.38-6.64,1.39-10,1.41-4.62,0-9.25-.69-13.88-.89-3.81-.17-7.62-.12-11.43-.05-6.85.12-13.7.34-20.54.51-7.25.18-14.49.42-21.74.51-7,.09-13.91,0-20.87,0-6.79,0-13.58-.13-20.36,0-6,.16-11.92.63-17.88,1-4.46.3-8.9,1-13.36,1-8.12,0-16.24-.27-24.37-.48-4.42-.12-8.84-.62-13.24-.46-8.74.33-17.46,1.09-26.2,1.48C318.66,215,316,214.45,312.79,214.17Zm231.12-6.76c.17-3,.23-5.51.47-8,.65-6.51,1.66-13,2-19.52.35-6.93.08-13.88.08-20.82a19.24,19.24,0,0,1,0-2.13c.86-7.69,1.92-15.37,2.55-23.08.37-4.59.07-9.24.07-13.86,0-1.56,0-3.11,0-4.67.14-4.34.43-8.68.44-13,0-5.72-.3-11.44-.24-17.16,0-3.16.6-6.31.81-9.47.39-5.72.92-11.45,1-17.18.07-7.14-.26-14.29-.52-21.43a2.46,2.46,0,0,0-1.13-1.9,14.43,14.43,0,0,0-4.11-.61c-14.29-.39-28.59-.77-42.89-1.07-5.48-.11-11,0-16.45,0-.53,0-1.07,0-1.6,0-6.34.4-12.68.88-19,1.19-2.74.13-5.5-.16-8.25-.1-2.39,0-4.79.52-7.18.45-8.84-.26-17.68-.81-26.52-1s-17.9-.1-26.84,0c-4,0-8,.38-12,.54-4.3.18-8.61.4-12.91.45-1.82,0-3.66-.52-5.47-.45-6.5.26-13,.85-19.5,1-9.14.18-18.28,0-28.08,0,0,5.61.07,10.74,0,15.87-.08,4.81-.3,9.62-.5,14.43,0,.78-.29,1.54-.33,2.32-.25,4.65-.9,9.33-.61,14,.6,9.79,2.08,19.51,1,29.38-.31,3,.43,6,.41,9-.08,8.78-.31,17.55-.48,26.33,0,1,.1,2,0,3-.35,6.07-.83,12.14-1.07,18.22-.09,2.35.37,4.71.46,7.08,0,1.1-.35,2.21-.33,3.3.06,3.36.53,6.73.29,10.06-.56,7.76-1.44,15.49-2.21,23.4a46.05,46.05,0,0,0,6.69.75c7.16-.21,14.31-.69,21.47-1,3.73-.15,7.48-.11,11.22-.18,5.23-.1,10.46-.37,15.68-.33,7.68.05,15.37.59,23,.41,8.78-.21,17.55-1,26.33-1.5,4.25-.24,8.5-.43,12.75-.52,4-.09,8-.07,12,0,7.25.13,14.5.61,21.74.42,9-.22,17.9-1.22,26.85-1.42,7.93-.18,15.87.27,23.81.43,1.37,0,2.74.08,4.1,0,6.5-.42,13-.87,19.5-1.32C541.79,207.65,543,207.5,543.9,207.41Z"/><path d="M129.93,386.58c-1,.76-1.94,1.46-2.86,2.19a24.45,24.45,0,0,1-3.26,2.61c-3.39,1.83-5.84.73-6.95-3a27.21,27.21,0,0,1-.51-2.71,22.71,22.71,0,0,0-3.4,3.07c-1.14,1.53-2.31,3.23-4.29,2.21-1.73-.89-3.05-2.58-4.95-4.26,0,0-.47.68-.91,1.35a5.45,5.45,0,0,1-7.37,2.21c-3.51-1.57-6.83-1.23-10.32-.06a4.41,4.41,0,0,1-3.47-.32c-3.3-2.38-6.55-1.34-10-.67-2.9.56-6.25,1.21-8.07-2.4-8.81,6.4-10.53,3.29-14.32-2.83-2.18,2.43-4.08,4.88-6.34,6.94a8.24,8.24,0,0,1-4.67,2.26c-3.7.15-5-1.34-5.69-5.2-.57-3.31-3.21-4.73-6.11-3.27-.78.39-1.52.85-2.32,1.2-2.83,1.25-4.69.78-5.93-2-1.31-3-2.16-6.16-3.21-9.25-.05-.16,0-.44,0-.52-4.48-3.84-3.12-9.27-3.9-14.47-1.24,0-2.53.07-3.82,0-2.53-.16-3.4-1.33-2.89-3.84.65-3.21,1.34-6.41,2.06-9.84-2.68.84-3.69-.06-3.56-2.89.08-1.88.58-4.47-2.56-5a2.73,2.73,0,0,1-.15-1.77c1-2.94,2.14-5.84,3.2-8.76.2-.55.54-1.24.36-1.7-1.7-4.37-1-8.78-.36-13.2A3.26,3.26,0,0,1,3.92,311c1.87-2.06,1.91-4-.13-6-.41-.4-.42-1.26-.52-1.93s.16-1.14,0-1.58c-2.19-4.8.4-8.9,1.88-13.15.11-.32.21-.65.44-1.33-1-.3-2-.51-2.9-.85-1.67-.63-2.79-1.51-1.56-3.53,2.06-3.38,4-6.82,6-10.16l-2.42-.61c.27-6.15,4.79-9.24,8.63-12.68a2.88,2.88,0,0,0,1.19-2.7,19.12,19.12,0,0,1,4.62-13.54c1.14-1.31,2.07-2.79,3.14-4.16,2.09-2.68,4.1-2.67,6.17,0,.26.34.41.76.65,1.13,2.46,3.8,4.28,4.29,8.05,1.39a118.15,118.15,0,0,0,10.81-9.51c3.12-3.07,5.15-3.32,7.83-.28,2,2.23,4.54,2.66,7.33,1.42,4.67-2.07,8.08-5.44,11-9.57a78.18,78.18,0,0,1,8.29-9.53c1.61-1.62,3.64-1,4.12,1.22.74,3.42,1,6.95,1.36,10.43.09.78-.11,1.61.05,2.37,1,4.49,4,6,9.28,4.46,4.9-1.42,8.82-4.43,12.69-7.69s8-5.78,12-8.66c1.79-1.28,3.39-.16,4.53.79,3.76,3.13,8.36,4.15,12.81,5.47,3.52,1,5.84-1.61,8.31-3.5,1.11-.85,2.12-1.83,3.28-2.61a6.26,6.26,0,0,1,8.78,2.06,29,29,0,0,1,2.51,4.89c.81,2.44,2.61,3,4.8,3.63,3.63,1,7.72,1.76,10.56,4,6,4.65,6.84,8.5,1,15.42,1.47.81,2.8,1.69,4.24,2.32a17.71,17.71,0,0,1,9.08,8.18,7.58,7.58,0,0,1,.13,5.72c-1.85,4.23.52,6.82,3,9.32,2,2,4.34,3.87,4,7a20.19,20.19,0,0,1-1.66,6.46c-.67,1.44-.73,2.32.43,3.28a16.09,16.09,0,0,1,6,11.77,29.52,29.52,0,0,1-1.14,8.83c-.49,1.89-.93,3.42.09,5.31,3.08,5.72,3.74,12,3.1,18.3-.68,6.65,2.58,11.9,4.79,17.58,1.43,3.69,3.17,7.3,4.26,11.09s-2.86,10.82-6.42,12.38c4.81,4.54,3.21,12.35-1.44,15.94a3,3,0,0,1-2.58.57,12.6,12.6,0,0,0-7.73-1.82c-1.55.16-3.33-.37-4,1.6-1.21,3.31-4.41,4.11-7,4.06-3.52-.08-7.56-.42-9.88-4.82l-10,4.87c-3.17,1.55-6,.07-7.61-4.16a41.14,41.14,0,0,1-3.89,1.87c-4.47,1.61-6.5,1.73-6.72-3.88,0-.3-.1-.59-.2-1.21-2.89,2.64-5.54,5.08-8.21,7.49-3.07,2.78-6.35,2-7.73-1.82C130.89,390.64,130.53,388.85,129.93,386.58Zm74.68-13.92c4.54-.7,6.77-3.06,7.85-7.15,1.36-5.17-.95-9.4-2.93-13.62-2.65-5.65-6.09-10.85-5.55-17.6a57.14,57.14,0,0,0-.76-12.16c-.35-2.54-.72-5.84-2.39-7.23-2.08-1.74-1.14-2.65-.53-4.13,2.34-5.72,2.85-11.41-.71-16.83a53.78,53.78,0,0,0-4.82-5.86c-.89-1-1.5-1.46,0-2.82,3.41-3.14,3.08-7.89,0-11.08a103.6,103.6,0,0,1-6.63-8.22,1.58,1.58,0,0,1,0-1.41c3.29-5.62,3.33-6.76-1.43-11-2.23-2-5.12-3.23-7.75-4.73-3.29-1.88-3.47-2.55-1.22-5.45,3.59-4.63,2.86-9.49-2-11.53-3.57-1.49-7.36-2.44-11-3.64-1.76-.57-3.18-1.32-3.9-3.36a22.87,22.87,0,0,0-3.32-6.12c-1.09-1.44-2.84-2.43-4.77-1.12a52.79,52.79,0,0,0-4.82,3.56c-2.46,2.11-5.09,4.13-8.46,3.25-4.66-1.22-9.53-2.15-13.29-5.56-1.32-1.19-2.63-1.67-4.19-.51-4.18,3.11-8.47,6.1-12.52,9.38-5.14,4.15-10.49,7.5-17.48,6.89-4.43-.38-6-2.21-5.78-5.68a58.23,58.23,0,0,0-.5-9.75,33.22,33.22,0,0,0-1.4-5c-2.14,2.38-3.86,4.17-5.46,6.07-3,3.59-5,8-9,10.84-3.35,2.38-6.61,4.58-11.17,4.39-3.2-.13-4.28-2.5-6.75-4.4-1.68,1.6-3.32,3.36-5.17,4.87-3.5,2.85-6.9,5.93-10.76,8.2-4.12,2.42-6,1.51-8.27-2.59a9.91,9.91,0,0,0-1.14-1.43c-.95-1.13-1.72-1.51-2.72.11a49.32,49.32,0,0,1-4.28,5.9,12,12,0,0,0-2.5,11.62,2.64,2.64,0,0,1-.66,2.31c-1.37,1-3.18,1.38-4.46,2.45-2.35,2-4.78,4-5,7.65a11,11,0,0,1,1.5.12c.89.21,1.77.48,2.66.72-.55.79-1.08,1.6-1.65,2.37-2.19,2.92-4.43,5.81-6.52,8.8A2,2,0,0,0,3.45,284a38.1,38.1,0,0,0,4.67,1.31c-.17.57-.32,1.33-.6,2-1.72,4.36-4.58,8.51-2.36,13.58.44,1,.44,2.2.87,3.21,1,2.32,2.13,4.48.27,7a8.92,8.92,0,0,0-1.62,4.45c-.2,3.13-2.14,6.85,2.13,8.75l-5,11.77c3.4.66,2.61,3.24,2.94,5,.59,3.22.57,3.37,3.67,2.35.47-.15,1-.24,1.6-.4,0,.78.25,1.67,0,1.91-3.19,2.63-2.43,6.74-3.88,10-.53,1.19-.34,2.33,1.31,2.49,1.85.18,3.71.32,5.94.5a48.23,48.23,0,0,0,.1,7.54c.3,1.94-1,5.15,2.94,5.3.25,0,.54,1.25.67,1.94.49,2.54.47,5.28,1.46,7.59,2.21,5.17,2.52,5.27,7.38,2.42a4.79,4.79,0,0,1,5.85.13c.64.42,1.93-.1,2.9-.29a4.85,4.85,0,0,0,1.2-.6c.12.49.44,1,.31,1.45-.32,1-1.28,1.89-1.22,2.78.11,1.59.32,3.62,1.32,4.61,1.4,1.37,3.32,1,4.83-.69,1.77-2,3.73-3.79,5.62-5.66,3-3,3.91-2.81,5.89.85s4.5,4.16,7.72,1.49c.58-.48,1-1.38,1.64-1.5,1.1-.21,3-.38,3.32.13,1.52,2.88,3.83,2.64,6.22,1.94,3.58-1,7-1.8,10.49.49,1.15.74,3.17.15,4.8.14,2.63,0,5.25-.11,7.87,0,1.53.06,3.38,1.14,4.51.58,2.55-1.24,4.75-3.21,7.54-5.2a5.48,5.48,0,0,0,1.94,5.31c.5.34,2-.32,2.75-.91,1.44-1.16,2.59-2.68,4-3.85a7.42,7.42,0,0,1,2.53-.81c.16.69.35,1.36.47,2.06s.13,1.52.29,2.27c.55,2.64,2.48,3.46,4.66,1.91,1.14-.81,2-2,3.18-2.75,1.6-1.07,2.77-3.32,5.06-2.43.61,2.6,1,5,1.76,7.3s2.87,2.78,4.69,1.1c2.33-2.14,4.56-4.41,7-6.45a20.27,20.27,0,0,1,3.68-2,26.6,26.6,0,0,1,.81,3.66c.22,2.66,1,3.23,3.52,2.17,1.19-.51,2.32-1.15,3.51-1.64,1.6-.67,2.94-1.29,3.84,1.26,1.06,3,2.68,3.37,5.69,1.92,2.26-1.09,4.46-2.31,6.75-3.33s4.69-1.8,6.23,1.52c.4.85,2,1.42,3.11,1.61,4.4.76,7.48.63,8.77-2.74,1-2.6,1.87-5.13,5.32-2.57.23.17.64.09,1,.17,2.25.55,4.49,1.17,6.76,1.64.74.15,1.88.2,2.3-.23,3.62-3.72,5.51-9.56-.59-13.12C205.22,374.21,205,373.41,204.6,372.66Z"/><path d="M266.24,401.74c-4.11-5.3-7.87-10.13-11.61-15-2.87-3.72-5.65-7.51-8.56-11.19-3.16-4-6.56-7.82-9.61-11.9-2.68-3.58-5-7.42-7.53-11.1q-5-7.18-10-14.28c-2.45-3.45-5.38-6.65-5.19-11.84l1.91,3.13c.59,1,1.12,2,1.77,2.89,2.92,4.15,5.93,8.25,8.79,12.43,2.5,3.65,4.76,7.46,7.29,11.09,3.26,4.66,6.59,9.28,10.07,13.79,3.81,4.92,7.8,9.71,11.75,14.52,2.63,3.21,5.48,6.25,7.94,9.58a58.3,58.3,0,0,1,3.86,7l2.65-3.59-51.87-74.8.61-.68c.45.25,1.06.39,1.34.77,3.69,4.95,7.48,9.83,11,14.92,6.07,8.86,11.88,17.89,17.92,26.77q8.89,13.07,18,26a78.49,78.49,0,0,0,5.18,6l6.69-7.07c1.6,2.23,3.25,4.43,4.79,6.69,4.36,6.39,6.22,13.69,7.66,21.14.68,3.48,1.4,7,2,10.47a9.92,9.92,0,0,1-.4,2.87c-1.75-.42-3,3.89-5.06.58a1.09,1.09,0,0,0-.63-.46c-7.81-1.44-12.66-8-19.43-11.33-2.87-1.41-5-4.37-7.43-6.63-.13-.12-.23-.26-.35-.39l-2.62-2.72c1.1-.93,2.19-1.87,3.29-2.79Z"/><path d="M204.54,241.7c0-4.29,2.69-6.24,4.67-8.33,3.47-3.66,7.47-6.8,11.14-10.27,5.49-5.2,10.76-10.65,16.36-15.72,5.41-4.9,11.19-9.39,16.71-14.18,3.13-2.72,6-5.68,9.09-8.5,2.25-2.09,4.56-4.12,6.85-6.2-1.63-2.48-3.31-1.9-5-.44q-4.71,4.1-9.35,8.27c-4,3.56-7.92,7.1-11.79,10.74-7.16,6.73-14.12,13.68-21.44,20.24-4.06,3.64-8.82,6.5-13,10.06-3.16,2.71-5.86,6-8.77,9-.42.44-.82.9-1.23,1.35l-.75-.26c.47-1.3.57-3,1.46-3.82,3.89-3.73,8-7.22,12.05-10.79,4.53-4,9.09-8,13.61-12q7.3-6.48,14.56-13c6.4-5.79,12.75-11.61,19.13-17.42,1.71-1.56,3.43-3.1,5.15-4.65l0-.84-9-1.45c-.5-3.35,2.64-4.14,4.72-5.34,8.28-4.76,17.35-7.64,26.34-10.72.75-.26,1.35-1,2.1-1.21s1.48.21,2.8.44c-1.6,12-6.36,22.48-14,32.27l-6.46-8.78c-2.34,2-4.56,3.88-6.66,5.85-6.82,6.4-13.56,12.89-20.42,19.25-1.5,1.39-3.51,2.22-5,3.59-5.07,4.57-10.05,9.24-15,13.92q-7.07,6.68-14,13.49C207.8,237.8,206.44,239.55,204.54,241.7Z"/><path d="M231.85,276.95c1.44-.46,2.88-1.33,4.31-1.31a132.54,132.54,0,0,0,23.18-2.06c4.79-.79,9.78-.31,14.66-.73,4.47-.38,8.9-1.21,13.35-1.8,2-.26,4-.42,6.31-.65-.3-1.08-.57-2.39-1-3.62-1.14-3.06-3.82-1.7-5.71-1.58-6,.39-12,1.07-17.94,1.88-6.22.85-12.39,2.13-18.62,3-2.8.38-5.69.08-8.53.23-1.64.09-3.27.45-4.91.69l-2.51.38-.55-.72c.71-.66,1.33-1.74,2.15-1.91,2-.42,4.06-.37,6.08-.62q8.24-1,16.47-2.16c3.41-.47,6.8-1.11,10.22-1.52,7-.82,14-1.53,21.34-2.32-1.37-2.19-1.75-4.3,0-5.73,2.67.2,5.07.46,7.47.54,3.29.1,6.6-.05,9.89.1,2.42.11,4.9,1,7.23.7,3.74-.53,6.76,1,10,2.23,1.11.41,2.24.8,3.3,1.17.21,2.87-2.23,3.78-3.67,5.32-3,3.24-7,5.12-11,6.84-5,2.12-9.88,4.47-14.76,6.83a12,12,0,0,0-2.43,2.09l-1.59-8.73c-10.43.85-20.88,1.88-31.35,2.5s-20.62,3.26-31.09,2.33Z"/><path d="M530.74,221.22,532.12,269l2.87.3c0-4.2-.08-8.21,0-12.22q.34-14.63.82-29.25c.09-2.76,0-5.65,2.79-8.42-.27,2.83-.63,4.95-.66,7.07-.08,5.76.11,11.52-.06,17.28-.22,7.64-.68,15.28-1,22.92,0,.88,0,1.76,0,2.82a65.83,65.83,0,0,1,7-.69c.5,0,1.47,1.41,1.44,2.12-.26,4.86-.82,9.69-2.83,14.21-2.7,6.07-5.22,12.22-8.18,18.16-.81,1.63-2.88,2.63-4.46,4-1.14-4.06-2-7.48-3.07-10.79-1.18-3.5-3.06-6.8-3.92-10.35a108.37,108.37,0,0,1-2.29-14.72c-.06-.64,2-1.92,3.15-2.14,1.95-.36,4-.1,6.66-.1-.44-7.45-.93-14.7-1.28-22-.17-3.5-.13-7-.15-10.51,0-2.54,0-5.08.09-7.62.08-2.35.25-4.7.45-7a6.52,6.52,0,0,1,.63-1.67Z"/><path d="M283.42,305.19c-5-.85-9.81-1.62-14.61-2.5s-9.49-1.94-14.26-2.79c-6.1-1.09-12.23-2-18.33-3.09a7,7,0,0,1-2-1.14c.69-.49,1.42-1.47,2-1.4,3.83.41,7.65,1,11.44,1.65,9.37,1.73,18.53,4.58,28.12,5.24,3,.2,6,.91,9,1.4l1.69-6.88-51.28-6c-.07-2,1.1-2.16,3-1.89q10.72,1.49,21.49,2.65c3.31.36,6.68.26,10,.62,4.82.51,9.63,1.13,14.41,1.93,2.32.38,3.82.23,3.74-2.61,0-.48.37-1,.46-1.47.31-1.77,1-2.13,2.82-1.42,8.38,3.33,16.45,7.16,23.2,13.31a4.52,4.52,0,0,1,.53.66c-3.32,5.61-9.25,6.49-14.57,8.06-4.46,1.31-9.23,1.55-13.86,2.27a8.78,8.78,0,0,0-1.72.35c-1.49.56-2.25,0-2.13-1.51C282.78,308.82,283.14,307.06,283.42,305.19Z"/><path d="M268.3,351.75c-7.43-7.88-14.54-15.9-22.17-23.38-7.26-7.13-15.07-13.71-22.63-20.53l.39-.68a6.67,6.67,0,0,1,2.26.65c2.84,2.17,5.69,4.35,8.35,6.73,4.92,4.4,9.88,8.78,14.5,13.48,5.21,5.31,10,11,15.09,16.46a46.41,46.41,0,0,0,5.25,4.61c.34.27,1.16-.06,1.76-.11-.17-.68-.12-1.56-.53-2-2.91-3.12-6-6-8.86-9.23-4.67-5.3-8.94-11-13.79-16.1-5.77-6.09-12-11.77-18-17.64a15.61,15.61,0,0,1-1.43-1.94c2.94-1.24,4,1.25,5.28,2.33,3.3,2.89,6.13,6.31,9.19,9.49,2.64,2.74,5.43,5.35,8,8.17,3.68,4.05,7.19,8.27,10.82,12.36,3.17,3.57,6.34,7.16,9.71,10.54.61.62,2.18.5,3.26.36a3.68,3.68,0,0,0,1.84-1.36c2.81-3.19,3.23-3.18,5.63.1a64.64,64.64,0,0,1,9.5,19.52,43.14,43.14,0,0,1,1.48,4.61c.48,2.6-.29,3.28-2.84,2.5-2.89-.88-5.74-1.92-8.56-3-5.89-2.26-10.65-6.28-15.46-10.19a3.22,3.22,0,0,0-1.22-.8c-1.75-.32-1.44-1.29-.57-2.1A41.78,41.78,0,0,1,268.3,351.75Z"/><path d="M499.77,251.22c-2.41-.21-4.8-.26-7.12-.67-3.57-.63-4.44-2.21-2.73-5.43,3-5.73,6.4-11.29,9.49-17,1.47-2.71,2.55-5.62,4-8.33.48-.9,1.57-1.47,2.39-2.19a13.52,13.52,0,0,1,1.24,2.06c1.92,5,3.91,10,5.63,15.06,1,3,1.6,6.18,2.36,9.29.06.25,0,.54.06.79.44,1.54,1.6,4.19,1.22,4.42A10.43,10.43,0,0,1,510.8,251c-2.94-.09-3.51,1.17-3.22,3.64a21.17,21.17,0,0,1,0,2.92c-.17,8.29-.27,16.59-.56,24.88-.2,5.5-.68,11-1,16.55-1.53-.29-1.93-.59-1.72-2.22.53-4.12.5-8.31.66-12.48.2-5.29.43-10.58.52-15.87.09-5.49,0-11,0-16.62h-5a83.82,83.82,0,0,0-1.35,9.47c-.26,7.45,0,14.91-.31,22.36-.18,5.1-.85,10.18-1.34,15.63-2.51-1.35-1.59-3.33-1.52-4.81.16-3.84.85-7.65.93-11.49.1-4.8-.37-9.61-.28-14.41a107.14,107.14,0,0,1,1-12.51C497.82,254.39,499,252.91,499.77,251.22Z"/><path d="M301.11,204c-.58,10-5.34,17.22-10.81,23.55-2-.53-3.72-.46-4.45-1.27-1-1.12-1.3-2.9-1.79-4.15-6,4.24-11.88,8.45-17.82,12.56-1.66,1.15-3.41,2.45-5.83,1.24,2.07-1.33,4.15-2.55,6.1-4,5.07-3.64,10.12-7.32,15.07-11.13.47-.36.19-1.71.31-3.35-5.53,3.92-10.21,7.3-14.95,10.59s-9.8,6.56-14.6,10-9.46,7.26-14.42,10.56c-4.71,3.14-8.56,7.65-13.86,9.88l-1-1.26c1.66-1.51,3.22-3.16,5-4.5,3.46-2.59,7-5,10.6-7.49,2.41-1.66,5-3.12,7.3-4.86s4.64-3.82,7-5.7c3.46-2.78,6.6-6.4,10.55-8,2.53-1,3.61-3.36,6.14-4.1a12.09,12.09,0,0,0,5-3.53c1.32-1.43,1.46-3.42-.48-5.53l3.84.52.38-.45-5.21-3.9c2.71-4.11,7.39-5.07,11.77-5.6C290.24,203.48,295.6,204,301.11,204Z"/><path d="M32.29,7A7.43,7.43,0,0,1,33,9.24c-.06,3-.43,5.95-.38,8.92s.45,5.76.7,8.65a3.34,3.34,0,0,1-3.43-3.5c-.09-5,0-10.09,0-15.33C27,7.72,24.75,11.7,21.4,9.8,24,6.69,27.5,5.71,31.12,4.58S38,1.64,41.75,0c-.43,3-.46,3-2.75,3.92S34.3,6.08,32.29,7Z"/><path d="M74.94,7.1c2-.92,4.09-2.07,6.34-2.9.82-.3,1.92.14,2.9.24a10.73,10.73,0,0,1-1.93,2c-1.16.7-2.74.87-3.66,1.76s-1.22,2.37-1.8,3.6l.74.56a39,39,0,0,1,4.29-2.13,7.1,7.1,0,0,1,2.57.07c-.37.63-.58,1.52-1.13,1.83-2.09,1.21-4.3,2.24-6.59,3.4l1.22,3.14c1.14-.17,2.51-.33,3.86-.59,1.2-.23,2.38-.58,4-1-.94,2.51-2.14,3.29-4.2,3.25-1.5,0-3,.66-4.53,1-2.62.67-3.74-.53-3.34-3.23C74.21,14.49,74.52,10.84,74.94,7.1Z"/><path d="M45.84,26.58A68,68,0,0,0,42,20.3c-1.49-1.94-.71-3.6.25-5.21a56.93,56.93,0,0,1,3.87-5.54c1-1.25,1.94-1.76,2.91.22a10.36,10.36,0,0,0,2.52,3.11c1.77,1.55,1.73,3.14.67,5-1.34,2.39-2.45,4.91-3.93,7.21C47.8,25.91,46.5,26.2,45.84,26.58Zm.8-4.92c3.78-5.09,3.91-6.32.88-8.68C43.18,17.25,43.25,18.9,46.63,21.66Z"/><path d="M409.69,583.1c-2.77-.22-5.31-.93-6.38-3.89-.95-2.63-1.69-5.09.93-7.55s7.56-3.22,10.45-.89c.14.11.35.26.35.38-.06,2.71.39,5.58-.39,8.07C414.06,581.09,412.66,583.48,409.69,583.1Zm-4.86-7.23c.26,3.31,2,5.22,4.64,5.08,2.32-.12,4.74-3.56,4.47-6.36-.21-2.21-2.19-3.48-5-3.21C407.56,571.5,404.73,574.62,404.83,575.87Z"/><path d="M261,238.23q-16.37,12.52-32.76,25c-.11.08-.67-.44-1.4-.95,1.18-1,2.09-2.31,3.27-2.63,3.2-.87,5.3-3.21,7.64-5.2,2.52-2.14,4.6-4.8,7.16-6.87,4.08-3.31,8.34-6.4,12.65-9.41.81-.57,2.18-.34,3.29-.47Z"/><path d="M373.78,267.37c-1.87-.33-3.29-.16-4-.79-1.25-1.1-3.06-2.86-2.85-4,.45-2.59,1.15-5.63,4.59-6.34,1.24-.26,2.46-.66,3.71-.81,2-.24,6.17,1.67,6.73,3s-1.32,5.75-3.16,6.82A41.45,41.45,0,0,1,373.78,267.37Zm6.13-7.63a8,8,0,0,0-.7-1.09c-1.66-2-5.82-1.52-7.78.77a2.69,2.69,0,0,1-1.18.88c-1.49.41-2,1.39-1.11,2.55,1.15,1.55,2.63,2.88,4.83,2.39C376.55,264.66,379.84,261.68,379.91,259.74Z"/><path d="M60.62,21.57l1-12.06a10.17,10.17,0,0,1-2.72.5,9,9,0,0,1-2.43-1,8.06,8.06,0,0,1,1.7-1.56,8.08,8.08,0,0,1,2.51-.58c2.68-.36,5.47-.12,7.77-2.13.48-.42,1.79.1,2.72.18-.42.79-.76,2.22-1.27,2.28-5,.61-6.12,3.66-5.57,8.1a12.22,12.22,0,0,1-.5,4.07C63.54,20.82,63,22.21,60.62,21.57Z"/><path d="M356.51,576.43c0-4.59,1.39-6.79,4.6-7.83,1.73-.56,6.82.78,7.8,2.25a2.75,2.75,0,0,1,.25,2.24,45.09,45.09,0,0,1-3.36,6.7c-1.41,2.18-3.82,2.06-6,1.47C357.21,580.54,355.89,578.72,356.51,576.43Zm10.64-4.14c-3.89-2.58-6-2.61-7.83.43-.78,1.27-.69,3.37-.31,4.93.18.74,2,1.61,3,1.52,1.49-.12,3.21-.5,3.6-2.65A25.58,25.58,0,0,1,367.16,572.29Z"/><path d="M392,263.2c.16-4.11,2.61-6.43,6.61-6.25s6.5,2.41,6.36,5.57c-.14,3-3.87,6.5-6.81,6.44C394.38,268.87,391.83,266.49,392,263.2Zm6.11,3.32a5,5,0,0,0,4.73-4.4c0-1.67-2-3.06-4.37-3a5.08,5.08,0,0,0-4.65,4.47C393.74,265,396,266.54,398.06,266.52Z"/><path d="M384.18,580.95c-3.69,0-5.71-1.14-6.71-3.79-.84-2.22.21-5.69,2.43-7.55A3.15,3.15,0,0,1,382,569a34.4,34.4,0,0,1,5.39.85c.75.19,1.92.9,1.94,1.41a34.62,34.62,0,0,1-.34,7.3C388.51,581.15,386.19,580.93,384.18,580.95Zm-.28-2.13c3.29,0,3.83-.68,3.79-4.56,0-2.18-1.47-3-3.25-3.29-2.41-.33-5.14,2.23-5.05,4.5C379.46,577.37,381.41,578.82,383.9,578.82Z"/><path d="M418.21,255.88c3.46,0,6,1.86,5.86,4.38-.14,3.73-3.62,7.31-7.13,7.33-3,0-5.66-2.29-5.57-4.88C411.49,259.29,414.9,255.89,418.21,255.88ZM414,262.31c-.16,2.09,1.35,2.86,2.91,3.07,2.28.3,5-2.8,5.07-5.38s-2.19-2-3.41-2.25C416.79,257.33,413.95,260.45,414,262.31Z"/><path class="a" d="M588.88,536.15c-3.89-.19-7.64-.36-11.38-.55-2.11-.11-4.21-.37-6.31-.38-10.32,0-20.65,0-31,0-6.31,0-12.61.06-18.92,0-6.57-.09-13.14-.19-19.69-.57-4.34-.25-8.65-1-13-1.44-1.26-.12-2.58.46-3.87.4-6.45-.29-12.9-1.09-19.33-.91-5.82.16-11.48-.78-17.21-1.08-5.09-.27-10.22.54-15.32.36-8-.28-15.91-1-23.87-1.48-3.25-.18-6.51,0-9.77,0-5.91,0-11.82.13-17.72,0-7.63-.22-15.25-.6-22.87-1.06-6.73-.41-13.45-1.48-20.17-1.44-8.32,0-16.63,1.08-25,1.41-3.35.13-6.74-.49-10.79-.83,1.46-1.68,4.63-1.63,2.67-4.68l-1.88,2.14c-.26-3.92-.62-7.71-.75-11.5-.25-7-.51-14-.49-20.93,0-3.39.82-6.76,1-10.16.45-10.29.85-20.58,1.06-30.87.17-7.85.1-15.7,0-23.55-.11-10.32-.26-20.64-.54-31q-.36-13.47-1.08-26.94c-.36-6.55-1-13.09-1.56-19.63-.35-4.26-.87-8.51-1-12.77a82.4,82.4,0,0,1,.64-8.73c6.21-.89,12.49-2.12,18.82-2.61,7.8-.61,15.64-.68,23.47-.83,4.73-.09,9.47.18,14.2.2,10,0,20-.25,30,.08s20,1.28,30,1.89c.84.05,2-.88,2.54-.57,2.2,1.2,4-.71,6.05-.51,3.27.32,6.59.08,9.89.08,0,.38,0,.27,0,.21s-.17,0-.24-.09-.28-.23-.74-.62l15.75,1.41.09-.62-1.85-.4c.3-.16.43-.29.53-.28,3.31.42,6.64,1.3,9.92,1.12a31,31,0,0,1,6.71.36c.7.11,1.51-.79,2.33-.94.58-.11,1.24.35,1.88.4,3.06.23,6.11.45,9.17.6,1.87.09,3.75,0,5.62,0,4.59.1,9.29.91,13.75.2,6.8-1.09,13.41-.6,20.12.23a72.76,72.76,0,0,0,8.54.11c2.22,0,5-.83,6.56.17,3.26,2,6.54,1,9.85,1.07l-1.56-.33,0-.31c2.71,0,5.44-.17,8.14,0,4.27.33,8.52.91,12.77,1.38a33.19,33.19,0,0,0,7.77.24l-3.2-.31,0-.43,19.81.85c.31,6.72.62,13.37.91,20,.36,8.13.84,16.25,1,24.39.2,8.41.13,16.83.15,25.24,0,5,0,10-.06,15-.14,7.62-.43,15.24-.57,22.87-.07,3.57.24,7.15.07,10.71-.22,4.63-.88,9.24-1.1,13.87-.16,3.28.23,6.58.15,9.86-.14,5.37-.65,10.73-.68,16.1,0,4.1.61,8.2.68,12.3.09,5.08-.26,10.17-.12,15.25.15,5.67.64,11.33,1,17A16.16,16.16,0,0,1,588.88,536.15ZM375.11,346.33l.08-.08c-2.68,0-3.18,2.19-3.75,4a4.35,4.35,0,0,0,.45,3.48c.49.63,2.6.92,3.08.45a13.87,13.87,0,0,0,3.72-5.31c.33-1.08-1-3-2.06-4.11a66.55,66.55,0,0,0-5.51-5c2.28-1.3,4.18-2.47,6.13.17,1.28-2.89-1.2-2.93-2.33-3.51-1.77-.9-4.42.45-5.36,2.45s.49,2.51,1.75,3.46A32,32,0,0,1,375.11,346.33ZM385.39,405l.42.64c2.19-1.47,4.35-3,6.59-4.38A9,9,0,0,0,397,395a6.38,6.38,0,0,1,1.25-2.78c2-2.54,4.2-5,5.91-7,.78,3.14,1.24,6.45,2.43,9.47,1.92,4.88,4.76,9.15,10.1,11a8.6,8.6,0,0,1,2.39,1c5,3.8,14.61,4.41,19.88,1.18,3.25-2,6.64-3.79,9.69-6.05,2.26-1.68,4.76-3.63,5.92-6.05,2.67-5.6,3.8-11.61,1.59-17.79a20.48,20.48,0,0,1-.16-2.1c-.27-1.14-.34-2.63-1.09-3.3a77.06,77.06,0,0,0-7.51-5.8c-3.79-2.64-7.6-4.75-12.69-4-4.43.62-8.94.14-13,2.82-3,2-6.83,3.08-9.53,5.43-5.29,4.62-11.45,7.55-17.66,10.47-4.87,2.29-9.81,4.42-14.42,6.49l4.71,1.65c.88-1.31,1.29-2.59,2.16-3.09,2.59-1.48,5.35-2.65,8.36-4.08l-5,6.79,1.49.69-11,6.79.88.5-3.84,2.41.34.61,7.67-2.75c-3.55,2.87-6.76,5.4-9.87,8-.43.36-.39,1.27-.56,1.92a12.3,12.3,0,0,0,1.52-.92c2.16-1.77,4.29-3.58,6.44-5.36a3.32,3.32,0,0,1,.65-.32l-.37,2.25c1-.16,1.92-.66,1.95-1.21.14-2.78,2.38-3,4.6-4.18l-4.73,5.85,2.08-.11ZM378,500.56c.6.11,1,.06,1.27.24,5.31,3.74,10.84,4.76,16.81,1.57,2.48-1.33,5-2.53,7.47-3.74l.84,12c.88-.61,1.53-.81,1.59-1.13.81-4.09,1.9-8.17,2.19-12.31.27-3.89-.31-7.84-.52-11.89-1.83.87-3.14.67-3.51-2-.13-.93-1.62-2.1-2.7-2.39-4.71-1.25-9.48-2.29-14.26-3.23a4,4,0,0,0-3.18.67,70.72,70.72,0,0,0-7.32,8.42c-1,1.44-.61,4-1.69,5.31-2.38,3-2.17,6.47-2.45,9.84a84.14,84.14,0,0,0-.17,8.91,28.67,28.67,0,0,0,.74,4c.14.86.19,1.74.32,2.92,1.69,1.29,2.33-.15,2.58-1.91C376.68,510.81,377.3,505.79,378,500.56ZM511,504.32c3.66-.22,7.83-4.58,8.18-7.94,3.06,6.24,7.88,8.19,14.15,7.34,5.66-.77,10.76-2.5,14.08-8.06,3.38,9.38,3.38,9.38,7,11.25-.41-2.48-.7-4.63-1.13-6.76-.48-2.37-.44-5.24-1.81-6.93-1.5-1.86-1.79-3.79-2.54-5.78-1.11-3-2.08-6-5.44-7.79a17,17,0,0,0-12.5-1.2,18.48,18.48,0,0,0-8.29,4.44c-2.24,2.22-3.35,5.58-5,8.41-1,1.79-2.26,3.49-3.21,5.33C513.38,498.94,512.38,501.36,511,504.32Zm-40.36-12.78c.09,1.46.11,2.57.23,3.66.64,5.91,4.67,10.28,10,9.84a108,108,0,0,0,16.85-2.82,10.93,10.93,0,0,0,4.89-18.42,20.33,20.33,0,0,0-6.32-4.16,19.54,19.54,0,0,0-17,.79c-3.19,1.69-6.34,3.47-9.59,5.05-1.43.7-2.69,1.56-2.39,3.17S468.06,492.28,470.68,491.54Zm-14.93-8c-.73-.52-1.85-.88-2.07-1.55-1-3-2.91-4.49-5.93-5.55a15.74,15.74,0,0,0-13,.81c-3.23,1.74-5.4,5.2-7,8.77-1.33,3-.37,6-.08,9,.27,2.86,1.38,4.17,4,5.31a20.32,20.32,0,0,0,9.53,1.4c4.67-.25,9-1.17,12.29-4.88C456,494,458,491.09,456.16,487,455.7,486,455.88,484.75,455.75,483.51Zm-127.11,8.11c1.51,3,2.34,6.25,4.4,8.27,3.28,3.24,8.18,4.46,12.48,4.21,7.1-.41,14.93-5.5,14.09-15.53-.21-2.54-.4-5.5-3.11-7.1s-5.2-3.58-8.08-4.45c-3.17-1-6.81-2.47-10,0a27.6,27.6,0,0,0-6,6.11C330.77,485.59,329.95,488.57,328.65,491.62Zm198.3-14.36.25-.86c-3.27-4-6.59-8-9.78-12-5.08-6.47-10-13.06-15.12-19.51-2.91-3.68-5.88-7.34-9.1-10.74-2.87-3-6.43-5.42-9.14-8.56-5.16-6-9.91-12.29-14.91-18.4a59.4,59.4,0,0,0-4.3-4.31l-1.07,1c1.27,1.64,2.53,3.3,3.82,4.93,3.06,3.84,5.94,7.84,9.24,11.47,5.69,6.25,11.68,12.22,17.46,18.4a108.27,108.27,0,0,1,7.42,8.68c4.05,5.38,7.82,11,11.86,16.36,3.31,4.41,6.78,8.71,10.34,12.91C524.43,477.22,525.9,477.06,526.94,477.26Zm-171.86-6c1.91-1.5,4-2.67,5.44-4.36,4.1-4.69,7.91-9.63,11.91-14.41,3.48-4.16,7.1-8.2,10.61-12.35,4.55-5.38,9-10.84,13.57-16.22,1.64-1.94,3.6-3.62,5.11-5.64,1-1.32,2.48-2.78,1.56-4.94-1.61,1.6-3,3-4.42,4.41a94,94,0,0,0-6.51,7c-1.41,1.81-1.87,4.39-4.6,5-.34.08-.84.66-.81,1,.38,3.28-2.32,4.56-4,6.52-2.3,2.62-4.39,5.42-6.6,8.13a3.78,3.78,0,0,1-1.15,1.09c-1.59.76-1.61.72-1.34,1.79-3.27,3.39-6.4,6.58-9.47,9.84-1.06,1.13-1.82,2.58-3,3.58C358.4,464.29,355.21,466.63,355.08,471.29Zm117.74-1.69.84.19a8.48,8.48,0,0,0,.61-1.72c.3-2.29-1.67-3.36-2.65-5a114.48,114.48,0,0,1-5.24-10.34c-2.94-6.25-5.88-12.51-8.63-18.84-2.16-5-4-10.11-6.06-15.11-1.11-2.65-2.5-5.17-3.76-7.76l-1,.48C453.53,431.78,462.66,450.92,472.82,469.6Zm-77,3.08,1,0c.17-.19.44-.35.51-.58,1.81-6.21,3.51-12.46,5.4-18.64,3-9.75,6.13-19.45,9.14-29.2a10.34,10.34,0,0,0,0-2.92l-1.08-.06c-1.44,4-3,8-4.3,12-1,3-1.48,6.24-2.42,9.29-2.42,7.83-5,15.6-7.4,23.45A42.13,42.13,0,0,0,395.8,472.67Zm35.47-52.95a4.19,4.19,0,0,0-1,4.43c3.65,11.48,5.74,23.31,8.16,35.07.58,2.79.91,5.64,1.64,8.39.22.83,1.39,1.41,2.12,2.1a7.48,7.48,0,0,0,.39-2.45c-.39-2.11-1.08-4.17-1.52-6.28-1.62-7.69-3-15.43-4.81-23.08C434.89,431.87,433,425.94,431.28,419.73ZM399,354.81c1.7.42,3.06,1.2,3.65.81a9.31,9.31,0,0,0,3.07-3.5c.92-1.87.87-3.87-1.09-5.3-1.35-1-4.72-.64-4.9.52-.24,1.46-.8,3-.51,4.39.53,2.51-1.38,2.67-2.73,3.26a3.1,3.1,0,0,1-2.29-.25,14.69,14.69,0,0,1-.1-4.14,44.06,44.06,0,0,1,1-4.48c-3-.25-2.87,1.92-3.35,3.33-.7,2.08-1.38,3.93-4.63,3.68a32.71,32.71,0,0,1,1.3-3.78,31.73,31.73,0,0,1,2.19-3.35c-3.66-.3-3.77,2.26-4.71,3.94s-1,3.73.52,5c1.35,1.15,3,.78,4.4-.51a3.81,3.81,0,0,1,1.2-.51C393.24,357.88,395.19,358,399,354.81Zm26.53-5.18a24.79,24.79,0,0,1-1.39-3.51c-.61-2.76-1-5.57-1.62-8.34a5.87,5.87,0,0,0-.88-1.55c-.55.43-1.39.75-1.62,1.32q-3.74,9.12-7.27,18.33c-.17.44.22,1.1.35,1.66.57-.19,1.33-.22,1.66-.61a7.69,7.69,0,0,0,1.74-2.87c.79-3.27,3.3-3.19,5.51-3.41,1.8,1.92.28,5.26,3.36,6.5C426.62,354.4,422.45,351.45,425.49,349.63Zm-103.56,2.66c0-3.09,0-6.3,0-9.51,0-1.78.15-3.58,2.49-3.89s3.17,1.56,2.84,4.81c-.45,4.33-.52,8.7-.75,12.92,2.53.87,2.33-.54,2.33-1.8,0-3.23-.1-6.46,0-9.68.13-2.89,0-5.9,2-8.35,0,0,0-.17-.06-.4l-12.75,1.39-.29,2.75,2.71-.53c-.25,4-.52,7.79-.71,11.55a17,17,0,0,0,.19,3.68,1.79,1.79,0,0,0,1.18,1.1c.32.08,1-.42,1.18-.8.41-1.21.63-2.48,1-4Zm21.47,11.39h1.41c0-1.6.05-3.2,0-4.8a3.84,3.84,0,0,1,1.83-3.78c1.88-1.42,3.11-3.87,4.15-6.1a3.47,3.47,0,0,0-1.17-3.23,11.71,11.71,0,0,0-5.52-.76c-.63.06-1.49,1.91-1.53,3-.13,3.52,0,7.06.17,10.58C342.79,360.25,343.16,362,343.39,363.67ZM359,349.51a23.19,23.19,0,0,0,2,3.73,3.22,3.22,0,0,0,5.35-.56c1.79-3.06,1.88-6.51-.68-7.86-.89-.47-2.64-.77-3.13-.28A32.24,32.24,0,0,0,359,349.51Zm-19.51-3.8,0-1c-1.3-.18-2.94-.94-3.84-.42-1.59.92-1.92,2.71-1,4.6a2.27,2.27,0,0,1-.44,1.9c-1.19,1.49-1.5,3-.24,4.49a3.07,3.07,0,0,0,2.36.83c1.9-.24,3.78-.78,4.19-3.38l-5.59,1.18c.78-1.38,1-2.22,1.44-2.49,3.32-1.78,1.74-3-.38-4.21-.1-.06-.08-.32-.17-.76Zm14.3,9.13c1-.76,1.75-1.06,1.88-1.54a25.2,25.2,0,0,0,.81-4.79c.14-2.26-.55-2.59-2.32-1.83ZM381,345.77c0,2,0,3.71,0,5.46,0,2,.93,2.33,2.81,1.63C381.92,350.76,384.93,347.15,381,345.77Zm19.71-1.93.77.12a27.68,27.68,0,0,0,1.74-3.9c.12-.42-.69-1.12-1.08-1.69-.48.4-1.31.75-1.37,1.19A33.85,33.85,0,0,0,400.69,343.84Z"/><path class="a" d="M543.9,207.41c-.9.09-2.11.24-3.32.32-6.5.45-13,.91-19.5,1.32-1.36.09-2.73,0-4.1,0-7.94-.16-15.88-.61-23.81-.43-9,.2-17.9,1.19-26.85,1.42-7.24.18-14.49-.3-21.74-.42-4-.07-8-.09-12,0-4.25.09-8.5.28-12.75.52-8.78.49-17.55,1.29-26.33,1.5-7.67.18-15.36-.35-23-.41-5.23,0-10.46.23-15.68.33-3.74.07-7.48,0-11.22.18-7.16.29-14.31.77-21.47,1a46.05,46.05,0,0,1-6.69-.75c.77-7.91,1.65-15.65,2.21-23.4.24-3.33-.23-6.71-.29-10.06,0-1.1.37-2.21.33-3.3-.08-2.36-.55-4.73-.46-7.08.24-6.08.72-12.14,1.07-18.22.06-1-.06-2,0-3,.16-8.78.39-17.55.48-26.33,0-3-.72-6-.41-9,1-9.87-.43-19.59-1-29.38-.29-4.62.36-9.3.61-14,0-.78.3-1.54.33-2.32.19-4.81.42-9.62.5-14.43.08-5.13,0-10.26,0-15.87,9.8,0,18.94.13,28.08,0,6.5-.12,13-.72,19.5-1,1.81-.07,3.65.48,5.47.45,4.3-.06,8.61-.27,12.91-.45,4-.17,8-.51,12-.54,8.95-.08,17.9-.16,26.84,0s17.68.73,26.52,1c2.39.07,4.78-.4,7.18-.45,2.75-.06,5.51.23,8.25.1,6.35-.31,12.68-.79,19-1.19.53,0,1.06,0,1.6,0,5.48,0,11-.1,16.45,0,14.3.3,28.59.68,42.89,1.07a14.43,14.43,0,0,1,4.11.61,2.46,2.46,0,0,1,1.13,1.9c.25,7.14.58,14.29.52,21.43-.05,5.73-.59,11.45-1,17.18-.21,3.16-.78,6.31-.81,9.47-.06,5.72.25,11.44.24,17.16,0,4.34-.3,8.68-.44,13-.05,1.55,0,3.11,0,4.67,0,4.62.3,9.27-.07,13.86-.63,7.71-1.69,15.39-2.55,23.08a19.24,19.24,0,0,0,0,2.13c0,6.94.27,13.9-.08,20.82-.33,6.52-1.35,13-2,19.52C544.13,201.9,544.07,204.39,543.9,207.41Zm-123.28-154L420.21,51l2.21-1.06,0-.69L419,48.94c.21,1.09.34,2.21.65,3.27.13.46.63.82,1,1.22-.42.7-1.16,1.38-1.21,2.1a20,20,0,0,0,.4,4.12c.15,1,.43,2,.65,3.06.31-1,.63-2,.93-3.08a3,3,0,0,0,.26-1.25C421.37,56.72,421,55.08,420.62,53.42Zm-66.18,123.7a8.36,8.36,0,0,0-.61-1c-1.62.77-3.21,1.6-4.8,2.42l.34.74,4.45-1.59a45.16,45.16,0,0,1-2.84,5.55c-2.45,3.54-1.21,6.9.35,10.15,1.23,2.57,3.37,3.75,6.43,4.08a10.71,10.71,0,0,0,6.33-1.41c3.84-2.07,7-4.83,8.4-9.49,1.05-3.52,1.58-6.06-2.34-7.87-1.79-.83-3.26-2.4-5.08-3.13C361.33,174.1,357.81,175.33,354.44,177.12Zm99.35-59.28c1.56-1.6,3.65-2.76,4.11-4.39,1.72-6,3.56-12,3-18.49-.38-4.63-2.53-7.87-5.63-10.72-3.92-3.6-8.82-5.21-13.91-6.5-4.53-1.15-9.05-.73-12.26,2.29-4.61,4.35-8.82,9.39-6.7,16.72.29,1-.17,2.25.11,3.26,1,3.53,1.3,7.73,3.49,10.31,2.54,3,6.55,5.12,10.34,6.55,5.22,2,10.67,1.26,15.72-1.36Zm-5.11,67.82c2.55,1.44,2.53,5.49,6.5,6.7a16.17,16.17,0,0,0-.7-3.11c-2-3.94-3.94-7.87-6-11.75-.85-1.59-1.7-4-3-4.36-3.31-.83-6.87-.78-10.33-.91a29.56,29.56,0,0,0-5.38.44c-1,.15-2.35,1.21-3,.86-1.5-.86-2.23,0-2.82.85-3.47,4.91-7.42,9.55-9.43,16a9.85,9.85,0,0,0,2.75-.41,11.19,11.19,0,0,0,2.17-1.88c1.78,5.86,5.79,8.56,10.88,8.73C440.26,197.1,445.76,193.6,448.68,185.66Zm19.47,14.56,1.08-.37,1.41-5.73c6.33.81,12.51,1,18-4.47-.47,2.53-.9,4.44-1.13,6.37-.07.56.47,1.19.72,1.78.51-.32,1.29-.53,1.49-1a15.93,15.93,0,0,0,1.34-4.16c.45-3.34,0-6.79,1.73-10,1.87-3.51-1.06-6.33-1.68-9.49-.06-.32-.62-.7-1-.77-3.39-.6-6.79-1.48-10.2-1.58-3.62-.1-7.26.58-11.14.94-.55,5.47-1.19,10.72-1.56,16a95.67,95.67,0,0,0,0,9.87A8.89,8.89,0,0,0,468.15,200.23Zm-54.86-17.3c1.35-4.3-1.27-6.54-4.76-8.25a17.87,17.87,0,0,0-3.59-1.49c-3.83-.91-7.61-3-11.65-1.29a21.27,21.27,0,0,0-4.77,3.13c-3.4,2.7-6.93,5.43-7.68,10.06-.3,1.87-.55,4.86.46,5.61a35.35,35.35,0,0,0,10.33,5.47c5.3,1.66,10.36,0,15.29-2.43C411.5,191.48,414.34,188.53,413.29,182.93Zm100.38-10.47a26.88,26.88,0,0,1-3.3,2,13.25,13.25,0,0,0-8.14,9.59c-.77,3.09,1.75,7.84,4.92,8.52,2.19.47,4.5.44,6.61,1.11s4.07.74,5.76-1c.95-1,1.88-2,2.91-2.9,3.39-3,4.46-8.91.36-12.59L517.06,172C516.08,174.78,514.7,172.52,513.67,172.46Zm-54.39-54c2.67,3.18,5.15,6.54,8,9.51,4.65,4.78,9.69,9.18,14.35,13.94,7,7.17,13.14,15.25,21.32,21.25.69.51,1.83.41,2.76.59l.43-1c-1-.86-1.88-1.75-2.86-2.58-1.58-1.32-3.34-2.46-4.78-3.92-3.31-3.36-6.41-6.93-9.71-10.31Q481.47,138.37,474,131c-3.76-3.7-7.61-7.31-11.45-10.92C461.36,119,460.12,118,459.28,118.44Zm-2.91,14a11.66,11.66,0,0,0,1.27,2.38c1.28,1.46,2.9,2.65,4,4.21a176.33,176.33,0,0,1,15.05,25.79c1.66,3.37,2.26,3.7,6.31,2.94l-16.42-25.91,1.15.07c-1.61-2.1-3-4-4.44-5.75-.73-.89-1.78-1.2-2.56-2.43-2-3.19-4.92-5.82-7.57-8.59-1.92-2-2.21-1.87-2.94.79.89.77,2.32,1.41,2.4,2.19C452.94,130.87,455.19,131.16,456.36,132.45Zm-38.64-9.73-.83-1.07a18.59,18.59,0,0,0-2.86,2c-4,4.09-7.94,8.26-11.91,12.39-4.52,4.7-9.06,9.38-13.57,14.09-3.56,3.71-7.18,7.38-10.58,11.24-1,1.13-1.34,2.85-2,4.3l.39.08Zm11.86,2.18-.65-.65c-.88.35-2.2.44-2.57,1.08-3.4,5.83-6.74,11.71-9.9,17.68-2.06,3.89-3.76,8-5.68,11.92-1.58,3.25-3.38,6.4-4.79,9.72-.69,1.62-.69,3.53-1,5.3l.8.1C413,154.61,420,139.08,429.58,124.9Zm6,44.91,1.06-.28,3.16-50.28-.86-.33a8,8,0,0,0-1,2.31c-.55,5.83-1.07,11.66-1.45,17.5q-.87,13.39-1.5,26.8A22,22,0,0,0,435.63,169.81ZM477.91,52.19c-2.2-1.11-2.2-1.11-2.23-3.61-.06-5-1.36-7.2-5-8.62-3.18,2.88-6.07,16.74-3.48,18.74-.26-5.1,2.87-5.67,6.47-5.46l2,4.93.85-.23c.21-.62.77-1.61.56-1.81C475.38,54.42,476.41,53.26,477.91,52.19ZM384.71,65.75c4.16.82,4.4-2.93,5.79-4.7a21.36,21.36,0,0,0,2.82,3.68c.22.2,1.79-1.1,3.31-2.09h-3.54l-.65-9c-1,.95-2,1.45-2.32,2.22-.89,2.06-1.39,4.28-2.28,6.33-.33.77-1.32,1.25-2,1.87l-1.12-.42c0-3,.07-6.08,0-9.12a7.23,7.23,0,0,0-1-2.31l-1,.27c0,6-.06,11.94.08,17.91,0,.73,1.16,1.44,1.78,2.16l.8-.47Zm47.43-14.12c-1.44,1.28-3.06,2.07-3.52,3.3a8.49,8.49,0,0,0-.12,5.1c.23.78,2.08,1.53,3.18,1.5,1.73,0,5.41-4.12,5-5.81s-1.74-3.25-3-4.6c-1.55-1.72-3.39-3.18-5.32-5L433.83,43l4,3.53c-.23-1.29-.09-2.43-.58-2.87-1.16-1-2.79-2.63-3.93-2.41-2.09.4-4,1.92-5.92,3a1.43,1.43,0,0,0-.37,2.51C428.69,48.45,430.4,50,432.13,51.63Zm-67.73,2.31c-4.54,1.27-4.19,5.35-5.8,8.52-.79-.31-2.23-.48-2.37-1-.9-3.43,1.62-5.56,3.54-7.79-1.29-1.24-2.57-1.19-3.08.2A68.41,68.41,0,0,0,354.46,62a1.73,1.73,0,0,0,.94,1.42c3.19.54,2.74,3.14,3.34,5.29A3.37,3.37,0,0,0,361,70.62c.77.15,1.73-.69,2.46-1-1.4-.83-3-1.31-3-1.87a8.24,8.24,0,0,1,.89-4.59C363,60.45,364.69,57.88,364.41,53.94Zm44.91,9.61c3.25-.8,4.69-3.53,6-6.21,1.15-2.38-.67-5.86-2.68-5.66-3.29.34-7.09,6.15-6.42,9.46.48,2.36.49,4.81.8,7.21a16.37,16.37,0,0,0,.72,2.49l1.2-.16ZM353,60c-1.09.54-2,1.07-2.95,1.44-2.12.81-3.88-.26-5.14-1.67a3.19,3.19,0,0,1,.14-3.16c1.17-1,2.92-1.17,4.33-1.89.63-.32,1-1.1,1.52-1.67a5.86,5.86,0,0,0-1.79-.72c-.94,0-1.89.31-2.83.27-1.12,0-2-.52-1.05-1.81,1.33-1.77,2.69-3.51,4.14-5.18a9.56,9.56,0,0,1,2-1.37l-.6-.55c-5.75,1.14-9.07,6.93-6.31,10.83-1.73,1.92-2.71,4.13-1.08,6.34,2,2.76,4,3.71,8,2.46C353.15,62.8,353.69,62,353,60Zm22.85,4.83h.92c0-.72.12-1.45.11-2.17,0-1.05-.18-2.11-.12-3.15.08-1.39.41-2.76.42-4.14a3.23,3.23,0,0,0-.79-2c-.18-.19-1.3.22-1.77.62-1.4,1.17-2.68,2.47-4.1,3.8-.79-1,.59-4.09-2.57-3.37-1.67.38-2.75,3.25-2.21,5.48l2.51-3c1.39,1.78-1,4.58,1.79,5.69l4.8-7C375.78,58.9,373.19,62.07,375.88,64.84Zm75.4-3.5c-3.82.27-4.86-.65-3.84-3.13s-.05-4.76-2.66-5.87-3.51.87-4.44,2.51a8.13,8.13,0,0,0-.8,3.24c-.18,2,1.47,4.33,3.09,4a6.89,6.89,0,0,1,4.74,1.09C449.18,64.18,450.43,63.4,451.28,61.34ZM404.07,63l-.46-.72c-1.65.48-2.92,3-5.28,1l3.51-4L399.63,57l3.07-2.32c-1.6-.08-3-.53-4-.08s-2.55,1.35-1.31,3.07a2.63,2.63,0,0,1,0,3.59A4.73,4.73,0,0,0,397,65c.19.57,2.14,1.14,2.93.81A21.53,21.53,0,0,0,404.07,63Z"/><path class="a" d="M204.6,372.66c.43.75.61,1.55,1.09,1.83,6.1,3.55,4.21,9.4.59,13.12-.42.43-1.56.38-2.3.23-2.27-.46-4.51-1.09-6.76-1.64-.31-.08-.72,0-1-.17-3.45-2.56-4.33,0-5.32,2.57-1.29,3.37-4.37,3.5-8.77,2.74-1.13-.19-2.72-.76-3.11-1.61-1.54-3.32-3.85-2.57-6.23-1.52s-4.49,2.24-6.75,3.33c-3,1.45-4.63,1.11-5.69-1.92-.9-2.56-2.24-1.93-3.84-1.26-1.19.5-2.32,1.14-3.51,1.64-2.48,1.06-3.3.49-3.52-2.17a26.6,26.6,0,0,0-.81-3.66,20.27,20.27,0,0,0-3.68,2c-2.41,2-4.64,4.31-7,6.45-1.82,1.67-3.87,1.29-4.69-1.1s-1.15-4.7-1.76-7.3c-2.29-.89-3.46,1.36-5.06,2.43-1.16.77-2,1.94-3.18,2.75-2.18,1.55-4.12.73-4.66-1.91-.15-.74-.16-1.52-.29-2.27s-.31-1.37-.47-2.06a7.42,7.42,0,0,0-2.53.81c-1.43,1.17-2.58,2.7-4,3.85-.74.59-2.25,1.25-2.75.91a5.48,5.48,0,0,1-1.94-5.31c-2.79,2-5,4-7.54,5.2-1.14.55-3-.52-4.51-.58-2.62-.11-5.25,0-7.87,0-1.62,0-3.65.6-4.8-.14-3.54-2.3-6.91-1.54-10.49-.49-2.4.7-4.7.94-6.22-1.94-.27-.51-2.21-.35-3.32-.13-.62.12-1.06,1-1.64,1.5-3.22,2.67-5.74,2.18-7.72-1.49s-2.92-3.8-5.89-.85c-1.89,1.88-3.84,3.69-5.62,5.66-1.51,1.68-3.43,2.06-4.83.69-1-1-1.21-3-1.32-4.61-.06-.89.89-1.81,1.22-2.78.13-.4-.19-1-.31-1.45a4.85,4.85,0,0,1-1.2.6c-1,.18-2.27.7-2.9.29a4.79,4.79,0,0,0-5.85-.13c-4.85,2.85-5.17,2.75-7.38-2.42-1-2.31-1-5.05-1.46-7.59-.13-.69-.42-1.93-.67-1.94-3.92-.15-2.64-3.36-2.94-5.3a48.23,48.23,0,0,1-.1-7.54c-2.23-.19-4.08-.32-5.94-.5-1.65-.16-1.84-1.3-1.31-2.49,1.45-3.27.69-7.38,3.88-10,.29-.24,0-1.13,0-1.91-.65.16-1.13.24-1.6.4-3.1,1-3.07.87-3.67-2.35-.33-1.79.46-4.37-2.94-5l5-11.77c-4.28-1.9-2.34-5.62-2.13-8.75a8.92,8.92,0,0,1,1.62-4.45c1.86-2.54.73-4.7-.27-7-.43-1-.43-2.2-.87-3.21-2.22-5.07.64-9.21,2.36-13.58.28-.71.44-1.46.6-2A38.1,38.1,0,0,1,3.45,284a2,2,0,0,1-.51-1.84c2.09-3,4.34-5.87,6.52-8.8.58-.77,1.1-1.58,1.65-2.37-.89-.24-1.77-.51-2.66-.72a11,11,0,0,0-1.5-.12c.22-3.62,2.64-5.69,5-7.65C13.23,261.42,15,261,16.41,260a2.64,2.64,0,0,0,.66-2.31,12,12,0,0,1,2.5-11.62,49.32,49.32,0,0,0,4.28-5.9c1-1.61,1.77-1.24,2.72-.11a9.91,9.91,0,0,1,1.14,1.43c2.3,4.1,4.15,5,8.27,2.59,3.86-2.27,7.26-5.35,10.76-8.2,1.85-1.5,3.49-3.27,5.17-4.87,2.47,1.9,3.55,4.27,6.75,4.4,4.56.18,7.82-2,11.17-4.39,4-2.81,6-7.25,9-10.84,1.6-1.9,3.31-3.69,5.46-6.07a33.22,33.22,0,0,1,1.4,5,58.23,58.23,0,0,1,.5,9.75c-.24,3.46,1.35,5.3,5.78,5.68,7,.6,12.34-2.75,17.48-6.89,4.05-3.27,8.34-6.26,12.52-9.38,1.55-1.16,2.87-.68,4.19.51,3.77,3.41,8.63,4.35,13.29,5.56,3.36.88,6-1.15,8.46-3.25a52.79,52.79,0,0,1,4.82-3.56c1.94-1.31,3.68-.32,4.77,1.12a22.87,22.87,0,0,1,3.32,6.12c.72,2,2.14,2.79,3.9,3.36,3.69,1.2,7.48,2.15,11,3.64,4.88,2,5.61,6.9,2,11.53-2.25,2.9-2.07,3.57,1.22,5.45,2.63,1.5,5.52,2.75,7.75,4.73,4.76,4.23,4.72,5.37,1.43,11a1.58,1.58,0,0,0,0,1.41,103.6,103.6,0,0,0,6.63,8.22c3,3.19,3.37,7.94,0,11.08-1.49,1.37-.88,1.81,0,2.82a53.78,53.78,0,0,1,4.82,5.86c3.55,5.42,3.05,11.12.71,16.83-.61,1.48-1.55,2.39.53,4.13,1.67,1.39,2,4.69,2.39,7.23a57.14,57.14,0,0,1,.76,12.16c-.54,6.75,2.9,12,5.55,17.6,2,4.22,4.29,8.45,2.93,13.62C211.37,369.6,209.14,372,204.6,372.66ZM67.59,275l-.76.66c.43,1.74,1.5,3.62,1.16,5.2a15.92,15.92,0,0,1-5.65,8.7c-1.89,1.58-5.87.87-6.61-1.23s.48-3.39,2.7-3.77c.34-.06.74-.9.74-1.38s-.52-.84-.93-1.08c-1.38-.84-2.81-1.6-4.23-2.39l.24-1.13,5.8-1.45-.24-.93-3.23.48.07-1.09c-5.62,2.54-5.65,2.71-1.43,7.78-2.41,3.35-2.57,5.48-.53,7.06,2.78,2.16,6.64,3,10.72-1.72a3.57,3.57,0,0,1,0,1.08c-1.64,5.35.4,9.9,3.26,14.18a3.6,3.6,0,0,0,2.86,1.26c.69-.07,1.68-1.31,1.8-2.14a32.4,32.4,0,0,0,.52-8.22c-.57-4.8-1.69-9.53-2.62-14.48l3-2.55-.55-.66-3.51,1.29Zm17.2,41.35-1.12-.56a34.86,34.86,0,0,0-2.18,3.91c-.55,1.34-.57,2.91-1.2,4.18a3.23,3.23,0,0,1-2.3,1.58c-.59,0-1.76-1.16-1.76-1.79A33.06,33.06,0,0,1,77,318c.18-1,.51-1.92.89-3.33a8.53,8.53,0,0,0-4,7.83,4.92,4.92,0,0,0,3.18,4.91c1.34.46,3.27-.78,4.76-1.22.75.75,1.72,2.49,3.12,3,2.74.91,3.23-2.05,4.52-3.82a19.34,19.34,0,0,0,1,1.79c1.34,1.79,3.6,2.37,4.85,1.27,2.12-1.85,3.4-7.68,1.54-9.78a8.88,8.88,0,0,0-5.56-2.38c-.7-.06-1.78,2.49-2.4,4-.79,1.89-1.2,3.94-2,5.85a2.08,2.08,0,0,1-1.66,1c-.43,0-1.13-.86-1.17-1.38a34.86,34.86,0,0,1-.06-5.32A37,37,0,0,1,84.79,316.31ZM39.51,351.07c-1.61,3-3.19,5.74-4.6,8.58-.87,1.75-.2,3.12,1.5,4.08,3.41,1.93,6.91,1.27,10.4.39.49-.12.8-1,1.49-1.86l-10.24.46-.36-.86,3.88-6.29c2.56,3.14,2.61-.06,3.15-.79,1.71-2.32-.75-2.88-1.77-3.67v-3.28l9-2c.14-1.63-.21-2.07-2.06-1.77-2.47.41-4.91,1-7.37,1.48-1.73.33-3.48.58-5.83,1Zm-3.93-21.81c1.55-1.4,2.79-2.59,4.12-3.68a31.66,31.66,0,0,1,3.83-2.75c.23-.14,1.33.48,1.4.87.45,2.52.73,5.08,1.13,8.07,1.91-2.13,1.44-4.19,1.08-6.18s-.89-3.76.58-4.66c-.68-1-1.73-1.91-1.81-2.86-.36-4.36-.52-8.73-.59-13.11a41.06,41.06,0,0,1,.6-5.36c-2.22.08-2.43.07-2.5,1.91A59.17,59.17,0,0,1,40,319a45.22,45.22,0,0,1-2.63,5.28l.43.13C36.78,325.73,34.38,326.31,35.58,329.27Zm115.18-48.13c-.27-2.34-.35-4.08-.71-5.75a35.45,35.45,0,0,0-1.64-5.23c-.17-.44-.88-.76-1.41-1-4.18-1.61-10,2.34-10.22,6.89-.26,5.6,2.26,7.29,7.5,5,1.18-.51,2.31-1.11,3.14-1.51ZM54.3,264c-5.51-.39-10.9-.75-16.28-1.18-1.72-.13-2.36.42-2,2.21a100,100,0,0,1,1.81,23.11c0,.27-.09.59,0,.79.33.54.75,1,1.13,1.53.46-.43,1.09-.79,1.34-1.32a3.84,3.84,0,0,0,.15-1.82q-.39-6.16-.83-12.32c-.11-1.52.28-3.6-.56-4.45C37.31,268.7,37.92,267,38,265a8.81,8.81,0,0,1,1.23-.08c3.65.33,7.3.74,10.95,1C51.78,266.05,53.64,266.5,54.3,264Zm97.93,95.13,1.62-.14a16,16,0,0,1,.22-3c.74-2.72,1.63-5.39,2.41-8.1a3.94,3.94,0,0,0-.11-1.34c-.56.08-1.28,0-1.64.3s-.55,1.25-1,1.74c-2,2.3-4.11,4.59-6.28,6.77-.32.32-1.19.08-1.81.1a5.48,5.48,0,0,1,.26-1.86,11,11,0,0,1,1.48-1.67c.73-.88,1.43-1.78,1.92-2.4l-3.2-3.69.49-.58h4.28c-2.09-2.78-4.75-2.52-7.15.56l2,3.5a40.34,40.34,0,0,0-2.33,5.14,3.33,3.33,0,0,0,.5,2.82,3.14,3.14,0,0,0,2.8.5,49.85,49.85,0,0,0,5.5-3Zm-21.18-3.83a19.93,19.93,0,0,1-.1-2.49c.18-2.31,3.32-6.22,4.91-6.22,2.11,0,2.11,0,2.41-2.34a12.5,12.5,0,0,0-2.34.16c-4.15,1.07-7.91,7-7.07,11.19a4.29,4.29,0,0,0,1.23,2.21c1.76,1.58,7.26,1.55,9.18.09,1.52-1.16,1.74-4.13.37-5.08C137,351,132.54,352.37,131.05,355.26ZM71.18,329.75C69.62,326.35,68.24,323,69.4,319c.21-.71-1.06-2.39-2-2.81a4.54,4.54,0,0,0-6.46,2.63,14.23,14.23,0,0,0-.79,5.48c.08,2.81,2.16,4.21,4.75,3.3a10.54,10.54,0,0,0,2.51-1.86C68,330.05,68.61,330.74,71.18,329.75Zm98.8,1.43c5.24-2.48,12.34-31,8.31-34.67C177,308.58,174.67,320.08,170,331.18Zm-43-19.29c1.77,1.59,3.89,2.94,2.57,5.86-.66,1.48-.78,3.68-2.86,3.39-.83-.11-1.39-2.16-2.07-3.33-.39-.67-.75-1.36-1.12-2a13.27,13.27,0,0,0-2.13,1.46,15.71,15.71,0,0,0-1.48,2.14c-.42.6-.89,1.18-1.34,1.77l-.26-.22,1.06-3.86c-2.52-.22-2.92,1.2-2.78,3.08,0,.34-.21.72-.12,1,.25.9.36,2.11,1,2.54.45.31,1.93-.16,2.42-.73a38.62,38.62,0,0,0,3-4.45c.14.94,0,2,.49,2.74.71,1,1.77,2.38,2.81,2.49s2.52-.84,3.57-1.63c.69-.52,1-1.57,1.45-2.37C133.05,316.55,130.71,312,127,311.89Zm-21.56-33a6.27,6.27,0,0,0,6.52,6.27c2.48,0,6.15-3.89,6.23-6.57.07-2.32-5.38-6.85-8.09-6.72C107.79,272,105.37,275.61,105.4,278.87Zm51.45,44.67c.58-.39.85-.48.85-.58.07-2.61.05-5.19,1.83-7.43.25-.31-.48-1.39-.76-2.11a6.57,6.57,0,0,0-1.75,1.12c-1.48,1.84-2.8,3.82-4.3,5.65-.34.42-1.17.44-2.38.84,1.9-3.26,2.64-5.88-.18-8.19,0,0,0-.17,0-.32l2-.54.12-.8c-.93-.24-2.15-1-2.72-.61-.75.45-1.63,2.17-1.34,2.61,1.44,2.2.76,4.5.71,6.75-.08,2.94,1.23,3.91,3.94,2.53a27,27,0,0,0,3.28-2.33Zm-35.28-51.08,5.69-.45c-2.94,3.21-3.44,6.3-2.08,9.53.73,1.74,2.06,3.39,4.21,3a7.43,7.43,0,0,0,6-4.85c-1.68.72-2.88,1.32-4.14,1.76-3.16,1.13-4.49.42-4.83-2.81a9.38,9.38,0,0,1,.81-3.4,6.86,6.86,0,0,1,3.79-4.31c.41-.2.35-1.36.5-2.07-.48,0-1.33-.12-1.38,0-.63,2-2.23,1.37-3.55,1.41-1.76.06-3.53,0-5.43,0Zm38-16.88-.8-.39a9.41,9.41,0,0,0-1.23,2.53c-.47,3.16-.55,6.38-1.15,9.5-1.24,6.46-2.27,13-5.4,19.16a2.38,2.38,0,0,0,1.71-.77c3.42-4.81,4.26-10.52,5.27-16.1C158.83,264.92,159.09,260.23,159.61,255.58ZM77.13,280c.13,2.55.64,5.16,3.35,5.9,1.39.38,3.9-.15,4.63-1.17,1.79-2.5,3.06-5.51,1.63-8.76a2.59,2.59,0,0,0-1.27-1.41c-1.44-.43-3.51-1.35-4.34-.74C79.2,275.23,77.06,277,77.13,280Zm40.05,73.42c-.21-2.27.45-4.92-2.83-4.32a3.13,3.13,0,0,0-2.05,1.6c-.33.82,0,1.9.1,3.23l2.6-3.11a23,23,0,0,0,.06,4.07,4.49,4.49,0,0,0,1.39,2c.09.09,1-.53,1.44-1,1.24-1.31,2.41-2.69,3.73-4.18l.95,6.81.65.24c.44-.69,1.26-1.39,1.24-2.06a27.54,27.54,0,0,0-.82-6.15c-.52-1.92-1.88-2.15-3.34-.75C119.27,350.79,118.41,352,117.18,353.37Zm26-41.2a8.1,8.1,0,0,0-2.5-.19c-3.32.81-4.64,3.28-4.43,7.15.11,2.08,3.14,4.55,5.93,4.42,1.09-.05,2.45-1.69,3-2.91a2,2,0,0,0-1.72-3c-1.66-.2-3.32-.45-5-.67C138.93,315.37,138.93,315.37,143.14,312.17Zm-63.84,40,.32.63c1,.46,2.74.75,2.89,1.4a5,5,0,0,1-.87,3.69c-.46.59-2,.32-3.2.45l.89-4.63A3.67,3.67,0,0,0,76.85,359c.82,2.06,3,2.35,5.77,1.14l4.1,1.82a70,70,0,0,0-1.66-8,4.34,4.34,0,0,0-2.63-2.18C81.52,351.48,80.35,352,79.3,352.18ZM111.38,356l-.73-.75c-.8,1.12-1.42,2.5-2.48,3.27-.76.55-2.11.34-3.2.33-.19,0-.63-.81-.52-1,1.06-2.05,1.78-4.62,3.46-5.9,1.43-1.08,1.12-1.74,1-2.87l-8.65,1.76c.62,1.62.62,1.62,4.37,1.59-.57,1.37-1.2,2.67-1.66,4-1.3,3.84.45,5,3.24,4.82C109.26,361.05,110.72,359.75,111.38,356ZM55.94,355c-3-.28-2.08,2-2.31,3.13a4.18,4.18,0,0,0,.91,3.42,4.91,4.91,0,0,0,3.74,1.11c3.1-.63,6.74-6.29,6.05-9.38a4.54,4.54,0,0,0-2.49-2.79c-.66-.25-1.89,1-2.86,1.57l.25.68c1.51-.09,3.78-.77,3,1.85A17.4,17.4,0,0,1,59,359.82a2.61,2.61,0,0,1-2.5.49,3.41,3.41,0,0,1-1.1-2.4A11.4,11.4,0,0,1,55.94,355Zm36.94-69.19,1.17.07,6.75-12.89c-2.5-.87-2.7-.73-3.95,2.51-.78,2-1.71,4-2.57,6a19.78,19.78,0,0,1-1.13-4.9c-.24-1.66-.35-3.42-2.8-4.31ZM161.7,327l8.31-8.78c-1.82-1.44-3.66-2.23-4.21-3.56-.37-.9,1.06-2.56,1.69-3.88l-.58-.81c-1,.53-2.48.86-2.76,1.63A7.16,7.16,0,0,0,164,316c.41,1.25,1.75,2.19,2.67,3.27A12,12,0,0,0,161.7,327ZM93.63,356.23l-1.82-5.68-.93-.15a6.08,6.08,0,0,0-.61,2.26,51.81,51.81,0,0,0,1.32,5.78,7.47,7.47,0,0,0,1,1.67A6.22,6.22,0,0,0,94,359c1.79-2.49,3.5-5,5.28-7.61-1.45-1.69-2.19-1.65-3.32.41C95.25,353.14,94.55,354.5,93.63,356.23Zm13.26-39.74c.31.93.58,1.62.76,2.32a38.87,38.87,0,0,0,1,4.21c.65,1.72,1.86,1.81,2.93.34,2.22-3.06,2.37-6.65,2.91-10.16-3.42-.66-1.91,2.13-2.55,3.22-.79,1.36-.76,3.19-1.09,4.82l-.71-.05c-.2-1.09-.35-2.18-.6-3.26s-.55-2-.92-3.36Zm52.82,43.95c.83-.58,1.32-.87,1.76-1.22,3.9-3.14,6.15-7.16,3.47-11.13-.47-.7,0-2.06.1-3.11a10.3,10.3,0,0,1,.64-1.9c-.82.33-1.9.45-2.42,1a4.59,4.59,0,0,0-.24,5.78,3.7,3.7,0,0,1,.16,4.36C162,356.13,161,358.08,159.72,360.44ZM54.53,322.37c-.77-3.24-.77-3.24-2.78-2.73.32,1.52.57,3.05,1,4.54a15.71,15.71,0,0,0,1.13,2.43,10.53,10.53,0,0,0,2.17-2c1.38-2.21,2.57-4.54,4-7.09C55.92,316.65,56.74,321.38,54.53,322.37Zm19.48,27c-3.7.94-3.31,4-3.92,6.38l-3.69-3c1.29,2.62,1.09,6,4.46,7.42Zm26-31.87c1.63,2.88-.6,6.63,2.32,9.57C103.53,320.9,102.88,318.11,100,317.46Zm8.08-55.67a40.59,40.59,0,0,0,1.09,4.37c.23.64,1,1.09,1.47,1.63l.91-.59L110,260.85Zm16.77,47.52.54-.48c-.48-.8-.28-1.52,1.24-5.7a15,15,0,0,0-4,3.63C122.5,307,124.08,308.43,124.85,309.31ZM120,338.71a17.63,17.63,0,0,0-2.28,1.27,2.3,2.3,0,0,0,.69,1.47,33.46,33.46,0,0,0,3.76,1.56Z"/><path class="a" d="M404.83,575.87c-.1-1.25,2.74-4.37,4.09-4.49,2.83-.26,4.81,1,5,3.21.27,2.8-2.15,6.24-4.47,6.36C406.83,581.09,405.09,579.17,404.83,575.87Z"/><path class="a" d="M379.91,259.74c-.07,1.94-3.36,4.93-5.94,5.5-2.2.49-3.68-.84-4.83-2.39-.86-1.16-.38-2.14,1.11-2.55a2.69,2.69,0,0,0,1.18-.88c2-2.29,6.13-2.73,7.78-.77A8,8,0,0,1,379.91,259.74Z"/><path class="a" d="M367.16,572.29a25.58,25.58,0,0,0-1.56,4.24c-.39,2.14-2.11,2.53-3.6,2.65-1,.08-2.81-.78-3-1.52-.38-1.56-.46-3.66.31-4.93C361.19,569.68,363.26,569.71,367.16,572.29Z"/><path class="a" d="M398.06,266.52c-2.09,0-4.33-1.53-4.29-3a5.08,5.08,0,0,1,4.65-4.47c2.4,0,4.4,1.37,4.37,3A5,5,0,0,1,398.06,266.52Z"/><path class="a" d="M383.9,578.82c-2.49,0-4.44-1.45-4.51-3.36-.09-2.27,2.65-4.83,5.05-4.5,1.78.25,3.22,1.11,3.25,3.29C387.74,578.14,387.19,578.82,383.9,578.82Z"/><path class="a" d="M414,262.31c0-1.87,2.82-5,4.58-4.56,1.21.29,3.49-.32,3.41,2.25s-2.8,5.68-5.07,5.38C415.32,265.17,413.81,264.4,414,262.31Z"/><path d="M385.39,405l2.2-1.58-2.08.11,4.73-5.85c-2.22,1.21-4.46,1.4-4.6,4.18,0,.55-.92,1-1.95,1.21l.37-2.25a3.32,3.32,0,0,0-.65.32c-2.15,1.78-4.28,3.59-6.44,5.36a12.3,12.3,0,0,1-1.52.92c.18-.65.14-1.56.56-1.92,3.12-2.64,6.33-5.18,9.87-8l-7.67,2.75-.34-.61,3.84-2.41-.88-.5,11-6.79-1.49-.69,5-6.79c-3,1.44-5.77,2.6-8.36,4.08-.86.49-1.28,1.78-2.16,3.09l-4.71-1.65c4.61-2.07,9.55-4.21,14.42-6.49,6.21-2.92,12.37-5.85,17.66-10.47,2.7-2.35,6.48-3.42,9.53-5.43,4-2.67,8.56-2.19,13-2.82,5.09-.72,8.91,1.4,12.69,4a77.06,77.06,0,0,1,7.51,5.8c.75.67.82,2.16,1.09,3.3a20.48,20.48,0,0,0,.16,2.1c2.21,6.18,1.08,12.2-1.59,17.79-1.15,2.42-3.66,4.37-5.92,6.05-3,2.26-6.44,4.06-9.69,6.05-5.27,3.23-14.89,2.62-19.88-1.18a8.6,8.6,0,0,0-2.39-1c-5.34-1.87-8.18-6.14-10.1-11-1.19-3-1.65-6.33-2.43-9.47-1.71,2-3.88,4.44-5.91,7A6.38,6.38,0,0,0,397,395a9,9,0,0,1-4.58,6.3c-2.25,1.38-4.4,2.91-6.59,4.38Zm38.51-32.54c-2.57-.57-4,.79-5.13,2.59a9.14,9.14,0,0,1-1.38,2.11c-2.32,2-4.91,3.67-7,5.83-1.42,1.43-3.56,2.58-3.31,5.25a18.68,18.68,0,0,0,7,13.32c6.88,5.71,14.49,7.32,22.68,4.27,4.13-1.54,7.77-4.45,11.57-6.83,1.52-1,3.59-1.86,4.2-3.31,1.78-4.24,3-8.73,2.39-13.46-.06-.46,0-.93-.08-1.39-.07-.9.15-2-.31-2.63a2.65,2.65,0,0,0-2.37-.57c-2.57.82-5,1.85-7.67.19-.28-.17-.92.24-1.39.39-2-4.94-8.66-7.38-19.77-7.26Zm-30.25,17.37c2.19,1.44,2.77,1.06,5.85-3.9Z"/><path d="M378,500.56c-.69,5.23-1.31,10.25-2,15.26-.25,1.76-.88,3.2-2.58,1.91-.12-1.18-.17-2.06-.32-2.92a28.67,28.67,0,0,1-.74-4,84.14,84.14,0,0,1,.17-8.91c.28-3.38.07-6.83,2.45-9.84,1.08-1.36.66-3.87,1.69-5.31a70.72,70.72,0,0,1,7.32-8.42,4,4,0,0,1,3.18-.67c4.78.93,9.55,2,14.26,3.23,1.08.29,2.57,1.46,2.7,2.39.37,2.7,1.68,2.9,3.51,2,.21,4,.8,8,.52,11.89-.29,4.14-1.38,8.22-2.19,12.31-.06.32-.71.52-1.59,1.13l-.84-12c-2.43,1.21-5,2.41-7.47,3.74-6,3.19-11.5,2.17-16.81-1.57C379,500.62,378.59,500.67,378,500.56Zm7.68-19.74c-.16.27-.52.86-.87,1.46-2,3.48-4.14,6.89-5.89,10.49-.61,1.26-.89,3.42-.22,4.44,2.4,3.66,9.86,5.46,13.95,3.7,3.78-1.63,7.53-3.35,11.22-5,0-2,.39-3.76-.12-5.16s-1.81-2.27-2.91-3.23c-.63-.55-2-.61-2.23-1.21-1.31-3.32-3.74-4.4-7-3.72-1.13.23-2.13,1.11-3.53,1.88Z"/><path d="M511,504.32c1.34-3,2.34-5.38,3.53-7.69.95-1.84,2.17-3.54,3.21-5.33,1.64-2.84,2.75-6.19,5-8.41a18.48,18.48,0,0,1,8.29-4.44,17,17,0,0,1,12.5,1.2c3.35,1.77,4.32,4.81,5.44,7.79.74,2,1,3.92,2.54,5.78,1.37,1.69,1.33,4.56,1.81,6.93.43,2.13.72,4.28,1.13,6.76-3.65-1.87-3.65-1.87-7-11.25-3.32,5.56-8.42,7.29-14.08,8.06-6.26.85-11.09-1.09-14.15-7.34C518.87,499.73,514.7,504.1,511,504.32Zm21.06-2.87c-3.39-.54-4.23-1.26-4.5-4.55-.06-.74.62-1.54,1.2-2.86.6,2.11.64,3.5,1.32,4.43,1.32,1.79,5.07,1.73,6.26-1.19.52-1.27,1.16-2.67,3.56-1.42l-4.31,5.83a28.45,28.45,0,0,0,3.81-1.47c.86-.47,1.42-1.46,2.25-2,5.05-3.35,5.33-4.23,3-9.72-.44-1-.63-2.17-1.13-3.17-.25-.5-1-1.12-1.43-1.09a23.57,23.57,0,0,0-3.5.62l2,2.45c-4.25-1-7.57-1.83-10.93-2.45-1-.19-2.67-.16-3.13.46a58.93,58.93,0,0,0-5.1,8.06,4,4,0,0,0,.22,3.3,11.89,11.89,0,0,0,3,3.17A8.72,8.72,0,0,0,532.1,501.45Z"/><path d="M470.68,491.54c-2.62.74-3-1.3-3.33-2.9s1-2.47,2.39-3.17c3.24-1.59,6.39-3.37,9.59-5.05a19.54,19.54,0,0,1,17-.79,20.33,20.33,0,0,1,6.32,4.16,10.93,10.93,0,0,1-4.89,18.42A108,108,0,0,1,480.92,505c-5.34.44-9.38-3.93-10-9.84C470.79,494.11,470.77,493,470.68,491.54Zm30.82,7.83a8.9,8.9,0,0,1,.77-1.66c2.18-3.23,2.07-6.51.31-9.85-1.19-2.25-3-2.77-5.26-1.63a4.36,4.36,0,0,1-1.86,0c-3-.05-5.34-1.93-8.94-.92-4.52,1.27-8.18,3.72-12.23,5.61a2.39,2.39,0,0,0-1.15,1c-1.07,2.33,1.74,8.29,4.2,9.26,7.58,3,14.74.51,21.94-1.56A16.38,16.38,0,0,1,501.5,499.37Z"/><path d="M455.75,483.51c.12,1.23,0,2.52.41,3.53,1.84,4-.13,6.95-2.62,9.77-3.27,3.71-7.63,4.63-12.29,4.88a20.32,20.32,0,0,1-9.53-1.4c-2.64-1.14-3.75-2.45-4-5.31-.29-3-1.25-6,.08-9,1.56-3.57,3.73-7,7-8.77a15.74,15.74,0,0,1,13-.81c3,1.07,4.92,2.57,5.93,5.55C453.9,482.63,455,483,455.75,483.51Zm-3.49.8c-1.34-4.19-1.34-4.18-5.12-3a2.55,2.55,0,0,1-1.3.05c-1.84-.43-3.66-1.25-5.51-1.32-2.23-.09-5.29-.4-6.57.84-2.57,2.51-5.1,5.61-4.36,9.86a15.25,15.25,0,0,1,.49,3.6,3.08,3.08,0,0,0,2.3,3.37,22.14,22.14,0,0,0,16.16,0c5.39-2,7.25-6.9,4.77-11.74-1.88.32-3.59.48-4.76,2.62-1.07,2-2.91,1.31-4.68.05a8.34,8.34,0,0,0-4.38-1.24,33.17,33.17,0,0,0-5.48.68l.27-.9L432,483.07C438.77,485.79,445.36,484.45,452.26,484.31Z"/><path d="M328.65,491.62c1.3-3,2.13-6,3.76-8.48a27.6,27.6,0,0,1,6-6.11c3.17-2.48,6.81-1,10,0,2.88.87,5.42,2.88,8.08,4.45s2.89,4.56,3.11,7.1c.84,10-7,15.12-14.09,15.53-4.3.25-9.2-1-12.48-4.21C331,497.87,330.16,494.6,328.65,491.62Zm3.16,2.36a41.75,41.75,0,0,0,4.87,5.38c1.26,1,3.18,1.28,4.85,1.72,4.54,1.19,8.48-.07,12.05-3,3.82-3.14,4.58-6.89,3.17-11.56-.52-1.71-.85-2.93-2.64-3.65a12.84,12.84,0,0,1-3.9-2.52,4,4,0,0,0-2.95-1.07c-4-.28-6.28,1.43-7.78,4.81a8.27,8.27,0,0,1-1.09,1.75C336.38,488.36,334.35,490.85,331.81,494Z"/><path d="M526.94,477.26c-1-.2-2.51,0-3-.67-3.57-4.2-7-8.5-10.34-12.91-4-5.39-7.8-11-11.86-16.36a108.27,108.27,0,0,0-7.42-8.68c-5.77-6.18-11.77-12.15-17.46-18.4-3.3-3.62-6.18-7.62-9.24-11.47-1.29-1.63-2.55-3.29-3.82-4.93l1.07-1a59.4,59.4,0,0,1,4.3,4.31c5,6.11,9.74,12.44,14.91,18.4,2.72,3.14,6.28,5.53,9.14,8.56,3.22,3.4,6.19,7.06,9.1,10.74,5.1,6.45,10,13,15.12,19.51,3.19,4.06,6.52,8,9.78,12Z"/><path d="M355.08,471.29c.13-4.66,3.32-7,6.29-9.57,1.16-1,1.91-2.45,3-3.58,3.07-3.26,6.2-6.45,9.47-9.84-.27-1.07-.25-1,1.34-1.79a3.78,3.78,0,0,0,1.15-1.09c2.2-2.71,4.3-5.5,6.6-8.13,1.72-2,4.41-3.24,4-6.52,0-.29.47-.87.81-1,2.73-.63,3.19-3.2,4.6-5a94,94,0,0,1,6.51-7c1.38-1.44,2.81-2.81,4.42-4.41.93,2.16-.58,3.62-1.56,4.94-1.5,2-3.47,3.71-5.11,5.64-4.56,5.38-9,10.83-13.57,16.22-3.5,4.14-7.12,8.19-10.61,12.35-4,4.78-7.82,9.72-11.91,14.41C359,468.61,357,469.79,355.08,471.29Z"/><path d="M472.82,469.6c-10.16-18.68-19.29-37.82-25.86-58.1l1-.48c1.26,2.58,2.65,5.11,3.76,7.76,2.09,5,3.9,10.14,6.06,15.11,2.75,6.34,5.7,12.59,8.63,18.84a114.48,114.48,0,0,0,5.24,10.34c1,1.64,2.95,2.71,2.65,5a8.48,8.48,0,0,1-.61,1.72Z"/><path d="M395.8,472.67a42.13,42.13,0,0,1,.93-6.64c2.36-7.85,5-15.62,7.4-23.45.94-3.06,1.45-6.25,2.42-9.29,1.29-4,2.85-8,4.3-12l1.08.06a10.34,10.34,0,0,1,0,2.92c-3,9.75-6.15,19.45-9.14,29.2-1.9,6.18-3.6,12.43-5.4,18.64-.06.22-.33.39-.51.58Z"/><path d="M431.28,419.73c1.74,6.21,3.61,12.14,5,18.17,1.79,7.65,3.2,15.39,4.81,23.08.44,2.11,1.13,4.17,1.52,6.28a7.48,7.48,0,0,1-.39,2.45c-.73-.69-1.9-1.27-2.12-2.1-.73-2.75-1.07-5.6-1.64-8.39-2.42-11.76-4.51-23.59-8.16-35.07A4.19,4.19,0,0,1,431.28,419.73Z"/><path d="M399,354.81c-3.77,3.17-5.73,3.06-7-.84a3.8,3.8,0,0,0-1.2.51c-1.37,1.29-3,1.66-4.4.51-1.55-1.32-1.51-3.28-.52-5s1-4.24,4.71-3.94a31.73,31.73,0,0,0-2.19,3.35,32.71,32.71,0,0,0-1.3,3.78c3.26.25,3.93-1.6,4.63-3.68.48-1.41.38-3.58,3.35-3.33a44.06,44.06,0,0,0-1,4.48,14.69,14.69,0,0,0,.1,4.14,3.1,3.1,0,0,0,2.29.25c1.35-.58,3.25-.75,2.73-3.26-.29-1.37.27-2.93.51-4.39.19-1.16,3.55-1.51,4.9-.52,2,1.44,2,3.44,1.09,5.3a9.31,9.31,0,0,1-3.07,3.5C402,356,400.67,355.23,399,354.81Zm2.48-1.23c2.57-1.86,3-3.68,1.28-5.46Z"/><path d="M425.49,349.63c-3,1.82,1.13,4.77-.17,7.52-3.08-1.24-1.55-4.58-3.36-6.5-2.21.22-4.72.14-5.51,3.41a7.69,7.69,0,0,1-1.74,2.87c-.33.39-1.09.42-1.66.61-.13-.56-.52-1.22-.35-1.66q3.55-9.2,7.27-18.33c.23-.57,1.07-.88,1.62-1.32a5.87,5.87,0,0,1,.88,1.55c.58,2.77,1,5.57,1.62,8.34A24.79,24.79,0,0,0,425.49,349.63Zm-6.75-1,3.36-.26-.8-6.53-.37-.08Z"/><path d="M321.93,352.29l1.42-.76c-.36,1.52-.57,2.8-1,4-.13.38-.85.88-1.18.8a1.79,1.79,0,0,1-1.18-1.1,17,17,0,0,1-.19-3.68c.19-3.76.45-7.53.71-11.55l-2.71.53.29-2.75,12.75-1.39c0,.23.09.35.06.4-2.06,2.45-1.89,5.46-2,8.35-.15,3.22-.05,6.46,0,9.68,0,1.26.19,2.67-2.33,1.8.23-4.22.3-8.59.75-12.92.33-3.25-.53-5.11-2.84-4.81s-2.47,2.11-2.49,3.89C321.9,346,321.93,349.2,321.93,352.29Z"/><path d="M375.11,346.33a32,32,0,0,0-3.8-4c-1.27-1-2.63-1.58-1.75-3.46s3.59-3.35,5.36-2.45c1.13.57,3.61.62,2.33,3.51-1.95-2.64-3.86-1.47-6.13-.17a66.55,66.55,0,0,1,5.51,5c1,1.14,2.39,3,2.06,4.11a13.87,13.87,0,0,1-3.72,5.31c-.48.48-2.59.18-3.08-.45a4.35,4.35,0,0,1-.45-3.48c.56-1.82,1.07-4,3.75-4,.05,2.21-3.39,3.54-1.21,7,1.24-1.59,2.54-2.75,3.09-4.2C377.29,348.46,375.82,347.25,375.11,346.33Z"/><path d="M343.39,363.67c-.24-1.72-.61-3.42-.69-5.15-.16-3.52-.3-7.06-.17-10.58,0-1.06.91-2.91,1.53-3a11.71,11.71,0,0,1,5.52.76,3.47,3.47,0,0,1,1.17,3.23c-1,2.23-2.27,4.69-4.15,6.1a3.84,3.84,0,0,0-1.83,3.78c.07,1.6,0,3.2,0,4.8Zm1.35-9.14c1.53-2.08,2.78-3.58,3.79-5.23s.19-2.4-1.54-2.44c-.61,0-1.23,0-2.25,0Z"/><path d="M359,349.51a32.24,32.24,0,0,1,3.49-5c.49-.49,2.24-.19,3.13.28,2.56,1.36,2.47,4.8.68,7.86a3.22,3.22,0,0,1-5.35.56A23.19,23.19,0,0,1,359,349.51Zm4.09-3.71a22.48,22.48,0,0,0-1.18,4.15c-.07.65.73,1.45,1.27,2.06.15.17.88.07,1.16-.15C366.39,350.23,365.78,347,363.1,345.81Z"/><path d="M339.5,345.72l-3.72.72c.09.45.07.71.17.76,2.12,1.22,3.71,2.43.38,4.21-.49.26-.67,1.1-1.44,2.49l5.59-1.18c-.41,2.6-2.29,3.14-4.19,3.38a3.07,3.07,0,0,1-2.36-.83c-1.26-1.45-1-3,.24-4.49a2.27,2.27,0,0,0,.44-1.9c-.89-1.89-.56-3.69,1-4.6.9-.52,2.54.24,3.84.42Z"/><path d="M353.79,354.85l.36-8.16c1.77-.76,2.46-.43,2.32,1.83a25.2,25.2,0,0,1-.81,4.79C355.55,353.78,354.76,354.08,353.79,354.85Z"/><path d="M381,345.77c3.95,1.39.93,5,2.8,7.09-1.88.7-2.83.35-2.81-1.63C381,349.48,381,347.73,381,345.77Z"/><path d="M400.69,343.84a33.85,33.85,0,0,1,.07-4.27c.06-.45.89-.8,1.37-1.19.39.57,1.2,1.26,1.08,1.69a27.68,27.68,0,0,1-1.74,3.9Z"/><path d="M453.79,117.84l-1.69-2.33c-5.05,2.62-10.51,3.34-15.72,1.36-3.78-1.43-7.8-3.57-10.34-6.55-2.19-2.58-2.49-6.78-3.49-10.31-.29-1,.18-2.25-.11-3.26-2.12-7.33,2.08-12.38,6.7-16.72,3.21-3,7.73-3.44,12.26-2.29,5.08,1.29,10,2.9,13.91,6.5,3.1,2.86,5.25,6.09,5.63,10.72.53,6.52-1.3,12.48-3,18.49C457.44,115.08,455.35,116.24,453.79,117.84ZM429.36,96.22c-2.46.83-3,.66-4.75-2.4,0,1.91-.08,3.47,0,5,.32,5.18,2.09,9.61,6.37,12.89,7.93,6.1,15.9,3.64,23.87.23a3.7,3.7,0,0,0,1.66-2,34.15,34.15,0,0,0,2-15.93c-2.33.63-4.38,1.06-5.16,3.57s-2.82,3.45-5,1.82a10,10,0,0,0-6.66-2.3A14.9,14.9,0,0,0,438,98.22c-1,.34-2.2,1.25-3,1C433.23,98.67,431.7,97.52,429.36,96.22Zm28.77-4.49c-3.2-4.5-8-4.64-12.52-5.49-.13,0-.43.85-.84,1.69a20.31,20.31,0,0,1-3.07-2.77,3.46,3.46,0,0,0-4.3-1.41c-3.43,1.15-6.92,2.18-10.21,3.64-.83.37-1.5,2.23-1.38,3.3s1.22,3.17,2,3.21a11.64,11.64,0,0,0,5.41-1.29c2.61-1.26,5.05-.44,5.83,1.92l7.09.45c2.17-3,6-3.56,7.89-1.37Zm-6,2.85-1.22-.87-2.86,3.06c.78.36,2.12,1.18,2.26,1A18.79,18.79,0,0,0,452.13,94.58Zm-19.6.7,0,1.12c1.05.3,2.22,1,3.12.78.68-.19,1-1.61,1.51-2.48l-.64-.84Z"/><path d="M448.68,185.66c-2.92,7.94-8.42,11.44-18.33,11.12-5.09-.17-9.11-2.87-10.88-8.73a11.19,11.19,0,0,1-2.17,1.88,9.85,9.85,0,0,1-2.75.41c2-6.42,6-11.06,9.43-16,.59-.84,1.32-1.71,2.82-.85.61.35,1.93-.7,3-.86a29.56,29.56,0,0,1,5.38-.44c3.47.12,7,.08,10.33.91,1.28.32,2.13,2.77,3,4.36,2.08,3.88,4.06,7.8,6,11.75a16.17,16.17,0,0,1,.7,3.11C451.21,191.15,451.23,187.1,448.68,185.66Zm-2.59-.41a7.29,7.29,0,0,0-8.59-7.56c-4.39.74-8.79,1.41-13.18,2.13-.32.05-.83.2-.9.42-.69,2.19-2.11,4.54-1.79,6.6.81,5.21,7,8.82,12.13,7.49,2.63-.69,5.2-1.63,7.78-2.52A7.4,7.4,0,0,0,446.1,185.25Z"/><path d="M468.15,200.23a8.89,8.89,0,0,1-.93-2.57,95.67,95.67,0,0,1,0-9.87c.37-5.27,1-10.53,1.56-16,3.88-.36,7.52-1,11.14-.94,3.41.09,6.81,1,10.2,1.58.38.07.94.45,1,.77.62,3.16,3.55,6,1.68,9.49-1.69,3.18-1.28,6.62-1.73,10a15.93,15.93,0,0,1-1.34,4.16c-.2.46-1,.66-1.49,1-.26-.6-.79-1.22-.72-1.78.23-1.94.66-3.85,1.13-6.37-5.48,5.48-11.67,5.29-18,4.47l-1.41,5.73ZM470.89,186a25.64,25.64,0,0,1,0,2.93c-.35,2.56,1.29,3.42,3.28,3.34a31.49,31.49,0,0,0,7.46-1.14,18.31,18.31,0,0,0,5.2-2.72c2.62-1.83,1.65-4.92,2.07-7.43.79-4.72-.9-6.31-5.55-5.91-3.56.31-7.12.66-10.66,1.15-.48.07-1.13,1-1.2,1.66C471.18,180.71,471.05,183.6,470.89,186Z"/><path d="M413.29,182.93c1,5.61-1.79,8.55-6.38,10.81-4.93,2.43-10,4.09-15.29,2.43a35.35,35.35,0,0,1-10.33-5.47c-1-.76-.76-3.75-.46-5.61.75-4.63,4.28-7.36,7.68-10.06a21.27,21.27,0,0,1,4.77-3.13c4-1.69,7.82.38,11.65,1.29a17.87,17.87,0,0,1,3.59,1.49C412,176.38,414.64,178.63,413.29,182.93Zm-17.44-5.66c-2.15,1.15-3.83,2-5.44,2.92-1.92,1.14-3.78,2.39-5.67,3.58-2.44,1.54-3.09,5.23-1,6.41,4.24,2.41,8.54,4.87,13.7,4,2.44-.43,4.8-1.37,7.22-1.94,4-.93,7.09-2.62,7.13-7.33,0-1.8,0-3.6,0-5.87-1.41,1.09-1.41,2.27-3.34,1.25-3.79-2-7.53-5-12.41-3.95Z"/><path d="M513.67,172.46c1,.06,2.41,2.32,3.4-.42l5.71,5.12c4.1,3.67,3,9.64-.36,12.59-1,.9-2,1.91-2.91,2.9-1.68,1.76-3.52,1.72-5.76,1s-4.43-.64-6.61-1.11c-3.17-.68-5.69-5.43-4.92-8.52a13.25,13.25,0,0,1,8.14-9.59A26.88,26.88,0,0,0,513.67,172.46Zm-4.81,5A11.1,11.1,0,0,0,507.1,179c-1.66,2-3.29,4.2-2.68,6.94a5.38,5.38,0,0,0,4.74,4.46c1.38.19,2.74.53,4.12.68,1.74.19,3.49.25,5.24.37l0-.74-1.11-.66c2.93-.07,3.66-2.33,4.5-3.57Z"/><path d="M354.44,177.12c3.37-1.79,6.89-3,10.63-1.51,1.82.73,3.29,2.3,5.08,3.13,3.91,1.81,3.39,4.35,2.34,7.87-1.4,4.67-4.56,7.42-8.4,9.49a10.71,10.71,0,0,1-6.33,1.41c-3.06-.33-5.2-1.51-6.43-4.08-1.55-3.25-2.8-6.61-.35-10.15a45.16,45.16,0,0,0,2.84-5.55Zm4,18.11c6,.5,11.43-6,12.43-11,.1-.49.11-1.25-.18-1.51-3-2.8-6.91-3.4-10.78-3.93-.43-.06-1,.55-1.45,1-1.31,1.4-2.34,3.17-3.87,4.23-2.66,1.86-2.84,3.91-1.85,6.76C353.78,193.86,355.19,195.23,358.41,195.23Z"/><path d="M459.28,118.44c.84-.49,2.08.57,3.23,1.65,3.84,3.61,7.69,7.23,11.45,10.92q7.5,7.37,14.87,14.88c3.3,3.37,6.4,6.94,9.71,10.31,1.44,1.46,3.2,2.6,4.78,3.92,1,.82,1.91,1.72,2.86,2.58l-.43,1c-.93-.18-2.07-.08-2.76-.59-8.18-6-14.29-14.08-21.32-21.25-4.67-4.76-9.7-9.17-14.35-13.94C464.43,125,461.94,121.63,459.28,118.44Z"/><path d="M456.36,132.45c-1.17-1.29-3.43-1.58-3.71-4.31-.08-.78-1.51-1.42-2.4-2.19.73-2.66,1-2.79,2.94-.79,2.64,2.77,5.57,5.4,7.57,8.59.77,1.23,1.83,1.54,2.56,2.43,1.46,1.78,2.82,3.64,4.44,5.75l-1.15-.07L483,167.76c-4.05.76-4.65.43-6.31-2.94A176.33,176.33,0,0,0,461.67,139c-1.13-1.56-2.76-2.75-4-4.21A11.66,11.66,0,0,1,456.36,132.45Z"/><path d="M417.73,122.72l-41.34,43-.39-.08c.64-1.45,1-3.17,2-4.3,3.4-3.86,7-7.52,10.58-11.24,4.51-4.71,9-9.38,13.57-14.09,4-4.13,7.9-8.3,11.91-12.39a18.59,18.59,0,0,1,2.86-2Z"/><path d="M429.58,124.9C420,139.08,413,154.61,405.79,170l-.8-.1c.31-1.78.32-3.68,1-5.3,1.41-3.32,3.21-6.47,4.79-9.72,1.92-4,3.63-8,5.68-11.92,3.16-6,6.49-11.84,9.9-17.68.38-.64,1.69-.74,2.57-1.08Z"/><path d="M435.63,169.81a22,22,0,0,1-.63-4.29q.64-13.41,1.5-26.8c.38-5.84.9-11.67,1.45-17.5a8,8,0,0,1,1-2.31l.86.33-3.16,50.28Z"/><path d="M477.91,52.19c-1.51,1.07-2.54,2.23-.81,3.94.21.21-.36,1.19-.56,1.81l-.85.23-2-4.93c-3.6-.21-6.73.36-6.47,5.46-2.6-2,.3-15.86,3.48-18.74,3.65,1.42,5,3.67,5,8.62C475.71,51.08,475.71,51.08,477.91,52.19ZM472.09,43l-1.16.08-2.18,8.27h4.8a25.78,25.78,0,0,0-.05-4.37A25,25,0,0,0,472.09,43Z"/><path d="M384.71,65.75l.63,6.35-.8.47c-.62-.72-1.76-1.43-1.78-2.16-.15-6-.08-11.94-.08-17.91l1-.27a7.23,7.23,0,0,1,1,2.31c.12,3,0,6.08,0,9.12l1.12.42c.69-.61,1.68-1.1,2-1.87.89-2.05,1.39-4.28,2.28-6.33.33-.77,1.29-1.27,2.32-2.22l.65,9h3.54c-1.53,1-3.09,2.29-3.31,2.09a21.36,21.36,0,0,1-2.82-3.68C389.11,62.82,388.87,66.57,384.71,65.75Z"/><path d="M432.13,51.63c-1.73-1.64-3.44-3.18-5.07-4.82a1.43,1.43,0,0,1,.37-2.51c1.95-1.1,3.83-2.62,5.92-3,1.14-.22,2.76,1.37,3.93,2.41.49.44.35,1.57.58,2.87l-4-3.53-5.42,3.12c1.93,1.77,3.77,3.23,5.32,5,1.22,1.36,2.58,2.92,3,4.6s-3.29,5.76-5,5.81c-1.1,0-2.95-.72-3.18-1.5a8.49,8.49,0,0,1,.12-5.1C429.08,53.7,430.69,52.91,432.13,51.63Zm1.3.77a41.35,41.35,0,0,0-3.8,4.2c-.31.45.09,1.65.51,2.27a1.91,1.91,0,0,0,1.76.46C433.82,58.58,434.85,55.21,433.44,52.4Z"/><path d="M364.41,53.94c.29,3.93-1.37,6.5-3.06,9.18a8.24,8.24,0,0,0-.89,4.59c0,.56,1.6,1,3,1.87-.73.34-1.69,1.18-2.46,1a3.37,3.37,0,0,1-2.26-1.92c-.6-2.14-.15-4.75-3.34-5.29a1.73,1.73,0,0,1-.94-1.42,68.41,68.41,0,0,1,2.24-8.11c.51-1.4,1.8-1.44,3.08-.2-1.92,2.23-4.44,4.36-3.54,7.79.14.51,1.57.68,2.37,1C360.22,59.3,359.87,55.21,364.41,53.94Z"/><path d="M409.31,63.55l-.39,7.14-1.2.16a16.37,16.37,0,0,1-.72-2.49c-.31-2.4-.32-4.85-.8-7.21-.67-3.31,3.13-9.12,6.42-9.46,2-.21,3.83,3.28,2.68,5.66C414,60,412.56,62.76,409.31,63.55Zm.17-2.5c3.3-1.82,4.88-4.41,3.55-7.26C409.55,54.81,408.81,56.33,409.49,61.06Z"/><path d="M353,60c.66,2,.11,2.79-1.63,3.33-4,1.25-6,.3-8-2.46-1.63-2.21-.65-4.42,1.08-6.34-2.76-3.9.56-9.7,6.31-10.83l.6.55a9.56,9.56,0,0,0-2,1.37c-1.45,1.67-2.81,3.41-4.14,5.18-1,1.29-.06,1.76,1.05,1.81.94,0,1.89-.32,2.83-.27a5.86,5.86,0,0,1,1.79.72c-.5.57-.89,1.35-1.52,1.67-1.41.71-3.16.93-4.33,1.89a3.19,3.19,0,0,0-.14,3.16c1.26,1.4,3,2.48,5.14,1.67C351,61.08,351.95,60.55,353,60Z"/><path d="M375.88,64.84c-2.69-2.77-.1-5.93-1-9.26l-4.8,7c-2.75-1.11-.4-3.91-1.79-5.69l-2.51,3c-.53-2.23.55-5.1,2.21-5.48,3.17-.72,1.78,2.4,2.57,3.37,1.42-1.33,2.71-2.63,4.1-3.8.47-.4,1.59-.81,1.77-.62a3.23,3.23,0,0,1,.79,2c0,1.38-.35,2.76-.42,4.14-.06,1,.11,2.1.12,3.15,0,.72-.07,1.45-.11,2.17Z"/><path d="M451.28,61.34c-.85,2.07-2.1,2.85-3.92,1.88a6.89,6.89,0,0,0-4.74-1.09c-1.62.28-3.26-2.07-3.09-4a8.13,8.13,0,0,1,.8-3.24c.93-1.63,1.89-3.58,4.44-2.51s3.66,3.41,2.66,5.87S447.46,61.6,451.28,61.34Zm-7.79-.48a35.53,35.53,0,0,0,1.79-4.53c.14-.57-.45-1.87-.79-1.9a3.15,3.15,0,0,0-2.25.82C441.06,56.46,441.53,59.09,443.49,60.85Z"/><path d="M404.07,63a21.53,21.53,0,0,1-4.13,2.86c-.79.32-2.74-.24-2.93-.81a4.73,4.73,0,0,1,.33-3.78,2.63,2.63,0,0,0,0-3.59c-1.24-1.73.37-2.65,1.31-3.07s2.41,0,4,.08L399.63,57l2.22,2.24-3.51,4c2.36,2,3.63-.51,5.28-1Z"/><path d="M420.62,53.42c.36,1.65.75,3.3,1.05,5a3,3,0,0,1-.26,1.25c-.3,1-.62,2.05-.93,3.08-.22-1-.5-2-.65-3.06a20,20,0,0,1-.4-4.12c0-.72.78-1.4,1.21-2.1Z"/><path d="M420.64,53.43c-.33-.4-.82-.76-1-1.22-.31-1.06-.44-2.17-.65-3.27l3.34.27,0,.69L420.21,51l.41,2.47Z"/><path d="M354.44,177.12l-.61.61-4.45,1.59-.34-.74c1.59-.82,3.18-1.65,4.8-2.42A8.36,8.36,0,0,1,354.44,177.12Z"/><path d="M67.59,275l2.57,3.49,3.51-1.29.55.66-3,2.55c.93,4.95,2,9.68,2.62,14.48a32.4,32.4,0,0,1-.52,8.22c-.12.83-1.11,2.07-1.8,2.14A3.6,3.6,0,0,1,68.72,304c-2.86-4.27-4.9-8.82-3.26-14.18a3.57,3.57,0,0,0,0-1.08c-4.08,4.76-7.94,3.88-10.72,1.72-2-1.59-1.88-3.71.53-7.06-4.23-5.07-4.2-5.25,1.43-7.78l-.07,1.09,3.23-.48.24.93-5.8,1.45L54,279.68c1.41.79,2.84,1.55,4.23,2.39.4.24.93.71.93,1.08s-.4,1.32-.74,1.38c-2.22.38-3.42,1.71-2.7,3.77s4.71,2.81,6.61,1.23a15.92,15.92,0,0,0,5.65-8.7c.34-1.57-.73-3.46-1.16-5.2Zm1.8,8.28c-3.64,6.29-3.51,17.79,2.76,20.28C72.73,296.47,72.84,289.65,69.4,283.25Z"/><path d="M84.79,316.31a37,37,0,0,0-.69,4,34.86,34.86,0,0,0,.06,5.32c0,.52.74,1.35,1.17,1.38a2.08,2.08,0,0,0,1.66-1c.76-1.91,1.17-4,2-5.85.62-1.48,1.7-4,2.4-4a8.88,8.88,0,0,1,5.56,2.38c1.86,2.1.58,7.93-1.54,9.78-1.26,1.1-3.51.52-4.85-1.27a19.34,19.34,0,0,1-1-1.79c-1.29,1.77-1.78,4.73-4.52,3.82-1.4-.46-2.37-2.21-3.12-3-1.5.44-3.43,1.68-4.76,1.22a4.92,4.92,0,0,1-3.18-4.91,8.53,8.53,0,0,1,4-7.83c-.38,1.41-.71,2.35-.89,3.33a33.06,33.06,0,0,0-.79,5.63c0,.64,1.17,1.82,1.76,1.79a3.23,3.23,0,0,0,2.3-1.58c.64-1.28.66-2.85,1.2-4.18a34.86,34.86,0,0,1,2.18-3.91Zm11,6.13c0-2.13-2.13-5-3.46-4.67a3.19,3.19,0,0,0-1.89,2.4,13,13,0,0,0,1.15,4.5,3.09,3.09,0,0,0,1.55,1.81c.43.12,1.39-.75,1.75-1.39A12.69,12.69,0,0,0,95.81,322.45Z"/><path d="M39.51,351.07l-2.83-4.53c2.35-.39,4.1-.63,5.83-1,2.46-.47,4.9-1.08,7.37-1.48,1.86-.3,2.2.13,2.06,1.77l-9,2v3.28c1,.79,3.49,1.35,1.77,3.67-.54.73-.59,3.93-3.15.79l-3.88,6.29.36.86,10.24-.46c-.69.9-1,1.74-1.49,1.86-3.48.88-7,1.54-10.4-.39-1.69-1-2.37-2.32-1.5-4.08C36.32,356.82,37.9,354.06,39.51,351.07Z"/><path d="M35.58,329.27c-1.19-3,1.21-3.53,2.2-4.89l-.43-.13A45.22,45.22,0,0,0,40,319a59.17,59.17,0,0,0,3.46-17.44c.07-1.84.28-1.83,2.5-1.91a41.06,41.06,0,0,0-.6,5.36c.06,4.37.23,8.75.59,13.11.08,1,1.12,1.83,1.81,2.86-1.48.89-.92,2.77-.58,4.66s.82,4-1.08,6.18c-.39-3-.67-5.55-1.13-8.07-.07-.38-1.17-1-1.4-.87a31.66,31.66,0,0,0-3.83,2.75C38.37,326.67,37.13,327.87,35.58,329.27Zm8.89-8.62-.88-6.36a18.18,18.18,0,0,0-1,3.48c-.28,1.12-.64,2.21-1.07,3.7Z"/><path d="M150.76,281.13l-3.33-1.55c-.83.4-2,1-3.14,1.51-5.24,2.27-7.76.57-7.5-5,.21-4.55,6-8.5,10.22-6.89.53.2,1.24.52,1.41,1a35.45,35.45,0,0,1,1.64,5.23C150.41,277.06,150.49,278.8,150.76,281.13Zm-6.45-10.35c-1.45.35-2.41,1.44-3.67,2.81-2,2.17-.84,3.27.4,4.2,1.71,1.28,3.13-.12,4.15-1.48a12.36,12.36,0,0,0,1.37-2.8C147.36,271.55,146.76,270.73,144.31,270.79Z"/><path d="M54.3,264c-.66,2.54-2.52,2.09-4.09,2-3.65-.27-7.3-.67-10.95-1A8.81,8.81,0,0,0,38,265c-.11,1.94-.72,3.68,1.07,5.5.83.85.45,2.92.56,4.45q.44,6.16.83,12.32a3.84,3.84,0,0,1-.15,1.82c-.26.53-.88.89-1.34,1.32-.38-.51-.8-1-1.13-1.53-.12-.19,0-.52,0-.79A100,100,0,0,0,36,265c-.36-1.79.27-2.35,2-2.21C43.4,263.21,48.79,263.57,54.3,264Z"/><path d="M152.24,359.09v-4.31a49.85,49.85,0,0,1-5.5,3,3.14,3.14,0,0,1-2.8-.5,3.33,3.33,0,0,1-.5-2.82,40.34,40.34,0,0,1,2.33-5.14l-2-3.5c2.4-3.08,5.06-3.34,7.15-.56h-4.28l-.49.58,3.2,3.69c-.49.61-1.19,1.52-1.92,2.4a11,11,0,0,0-1.48,1.67,5.48,5.48,0,0,0-.26,1.86c.62,0,1.5.22,1.81-.1,2.16-2.19,4.23-4.47,6.28-6.77.43-.49.51-1.33,1-1.74s1.08-.21,1.64-.3a3.94,3.94,0,0,1,.11,1.34c-.78,2.71-1.66,5.38-2.41,8.1a16,16,0,0,0-.22,3Z"/><path d="M131.05,355.26c1.49-2.89,6-4.28,8.58-2.48,1.37.94,1.15,3.91-.37,5.08-1.92,1.46-7.42,1.49-9.18-.09a4.29,4.29,0,0,1-1.23-2.21c-.84-4.19,2.93-10.12,7.07-11.19a12.5,12.5,0,0,1,2.34-.16c-.3,2.34-.3,2.34-2.41,2.34-1.59,0-4.72,3.91-4.91,6.22A19.93,19.93,0,0,0,131.05,355.26Zm1,1.41c1.86-.09,3.51-.12,5.14-.29.42,0,1.09-.55,1.1-.87a2.09,2.09,0,0,0-.75-1.35C136.3,353,133.09,354.33,132,356.67Z"/><path d="M71.18,329.75c-2.57,1-3.2.31-3.77-4a10.54,10.54,0,0,1-2.51,1.86c-2.59.9-4.67-.5-4.75-3.3a14.23,14.23,0,0,1,.79-5.48,4.54,4.54,0,0,1,6.46-2.63c.95.42,2.22,2.1,2,2.81C68.24,323,69.62,326.35,71.18,329.75Zm-3.77-11c-3.29-1.29-4.06-.53-5.33,4-.48,1.67.16,2.62,1.32,2.73A3.51,3.51,0,0,0,66,323.6,26.28,26.28,0,0,0,67.41,318.73Z"/><path d="M170,331.18c4.69-11.1,7-22.6,8.31-34.67C182.32,300.2,175.22,328.7,170,331.18Z"/><path d="M127,311.89c3.75.11,6.1,4.66,4.16,7.89-.48.8-.76,1.86-1.45,2.37-1.05.79-2.44,1.76-3.57,1.63s-2.1-1.46-2.81-2.49c-.48-.7-.35-1.81-.49-2.74a38.62,38.62,0,0,1-3,4.45c-.49.57-2,1-2.42.73-.62-.43-.73-1.64-1-2.54-.08-.31.15-.69.12-1-.14-1.88.26-3.3,2.78-3.08l-1.06,3.86.26.22c.45-.59.91-1.16,1.34-1.77a15.71,15.71,0,0,1,1.48-2.14,13.27,13.27,0,0,1,2.13-1.46c.37.68.74,1.36,1.12,2,.67,1.17,1.24,3.22,2.07,3.33,2.07.28,2.19-1.92,2.86-3.39C130.85,314.82,128.73,313.48,127,311.89Z"/><path d="M105.4,278.87c0-3.26,2.4-6.91,4.66-7,2.7-.13,8.16,4.4,8.09,6.72-.08,2.68-3.75,6.55-6.23,6.57A6.27,6.27,0,0,1,105.4,278.87Zm2.14-1.34c0,3.18,2.23,5.72,4.33,5.78,1.29,0,4.68-3.61,4-4.75a12.52,12.52,0,0,0-5.16-4.35C110.16,274,108.3,276.7,107.54,277.54Z"/><path d="M156.85,323.54l-.64-3.42a27,27,0,0,1-3.28,2.33c-2.71,1.37-4,.41-3.94-2.53.06-2.24.74-4.54-.71-6.75-.29-.44.59-2.16,1.34-2.61.58-.35,1.79.37,2.72.61l-.12.8-2,.54c0,.15-.07.29,0,.32,2.81,2.31,2.08,4.92.18,8.19,1.2-.4,2-.43,2.38-.84,1.5-1.83,2.82-3.8,4.3-5.65a6.57,6.57,0,0,1,1.75-1.12c.28.72,1,1.8.76,2.11-1.77,2.24-1.76,4.82-1.83,7.43C157.7,323.06,157.43,323.15,156.85,323.54Z"/><path d="M121.57,272.45l-.44-2.21c1.9,0,3.67,0,5.43,0,1.32,0,2.92.55,3.55-1.41,0-.14.9,0,1.38,0-.15.72-.09,1.87-.5,2.07a6.86,6.86,0,0,0-3.79,4.31,9.38,9.38,0,0,0-.81,3.4c.34,3.24,1.67,3.94,4.83,2.81,1.26-.45,2.46-1,4.14-1.76a7.43,7.43,0,0,1-6,4.85c-2.15.44-3.48-1.22-4.21-3-1.36-3.24-.86-6.32,2.08-9.53Z"/><path d="M159.61,255.58c-.52,4.65-.78,9.34-1.61,13.93-1,5.58-1.85,11.29-5.27,16.1a2.38,2.38,0,0,1-1.71.77c3.14-6.14,4.16-12.7,5.4-19.16.6-3.13.68-6.35,1.15-9.5a9.41,9.41,0,0,1,1.23-2.53Z"/><path d="M77.13,280c-.07-3,2.07-4.73,4-6.18.82-.61,2.89.31,4.34.74a2.59,2.59,0,0,1,1.27,1.41c1.43,3.26.15,6.26-1.63,8.76-.73,1-3.24,1.55-4.63,1.17C77.77,285.11,77.26,282.51,77.13,280Zm2.12-.35c0,1.95.26,4,2.47,4.37,2.47.36,2.55-2.12,3.22-3.73a9.38,9.38,0,0,0,.16-1.19c.48-1.86-.36-3.53-1.91-3.78-1.09-.17-2.56,1.14-3.61,2.06C79.15,277.72,79.34,278.83,79.25,279.61Z"/><path d="M117.18,353.37c1.22-1.41,2.09-2.58,3.13-3.57,1.46-1.4,2.82-1.17,3.34.75a27.54,27.54,0,0,1,.82,6.15c0,.67-.8,1.37-1.24,2.06l-.65-.24-.95-6.81c-1.32,1.49-2.49,2.87-3.73,4.18-.4.43-1.35,1-1.44,1a4.49,4.49,0,0,1-1.39-2,23,23,0,0,1-.06-4.07l-2.6,3.11c-.08-1.32-.42-2.41-.1-3.23a3.13,3.13,0,0,1,2.05-1.6C117.63,348.46,117,351.1,117.18,353.37Z"/><path d="M143.14,312.17c-4.21,3.2-4.21,3.2-4.64,4.75,1.64.22,3.3.47,5,.67a2,2,0,0,1,1.72,3c-.59,1.23-2,2.86-3,2.91-2.79.13-5.82-2.35-5.93-4.42-.21-3.87,1.12-6.34,4.43-7.15A8.1,8.1,0,0,1,143.14,312.17ZM139,318.92,138.7,320a15.45,15.45,0,0,0,3.32,1.75c.38.1,1.11-1.1,2.29-2.36Z"/><path d="M79.3,352.18c1.05-.17,2.22-.7,3.13-.41a4.34,4.34,0,0,1,2.63,2.18,70,70,0,0,1,1.66,8l-4.1-1.82c-2.73,1.21-4.95.92-5.77-1.14a3.67,3.67,0,0,1,2.48-5.26l-.89,4.63c1.17-.13,2.74.14,3.2-.45a5,5,0,0,0,.87-3.69c-.14-.65-1.87-.95-2.89-1.4Z"/><path d="M111.38,356c-.66,3.73-2.12,5-5.14,5.25-2.78.2-4.54-1-3.24-4.82.46-1.36,1.09-2.67,1.66-4-3.76,0-3.76,0-4.37-1.59l8.65-1.76c.09,1.12.4,1.79-1,2.87-1.69,1.27-2.41,3.85-3.46,5.9-.11.21.33,1,.52,1,1.09,0,2.44.22,3.2-.33,1.06-.77,1.67-2.15,2.48-3.27Z"/><path d="M55.94,355a11.4,11.4,0,0,0-.5,3,3.41,3.41,0,0,0,1.1,2.4,2.61,2.61,0,0,0,2.5-.49,17.4,17.4,0,0,0,3.16-5.28c.81-2.62-1.46-1.94-3-1.85L59,352c1-.57,2.2-1.82,2.86-1.57a4.54,4.54,0,0,1,2.49,2.79c.69,3.09-3,8.75-6.05,9.38a4.91,4.91,0,0,1-3.74-1.11,4.18,4.18,0,0,1-.91-3.42C53.86,357,52.94,354.67,55.94,355Z"/><path d="M92.88,285.76l-2.52-13.56c2.45.89,2.55,2.66,2.8,4.31a19.78,19.78,0,0,0,1.13,4.9c.86-2,1.8-3.95,2.57-6,1.24-3.24,1.44-3.38,3.95-2.51l-6.75,12.89Z"/><path d="M161.7,327a12,12,0,0,1,5-7.71c-.93-1.08-2.26-2-2.67-3.27a7.16,7.16,0,0,1,.15-4.42c.28-.78,1.8-1.1,2.76-1.63l.58.81c-.63,1.32-2.06,3-1.69,3.88.55,1.33,2.39,2.12,4.21,3.56Z"/><path d="M93.63,356.23c.92-1.73,1.62-3.09,2.35-4.43,1.13-2.07,1.87-2.11,3.32-.41C97.53,354,95.81,356.51,94,359a6.22,6.22,0,0,1-1.47,1.11,7.47,7.47,0,0,1-1-1.67,51.81,51.81,0,0,1-1.32-5.78,6.08,6.08,0,0,1,.61-2.26l.93.15Z"/><path d="M106.89,316.49l1.76-1.91c.37,1.33.69,2.34.92,3.36s.4,2.17.6,3.26l.71.05c.33-1.63.3-3.47,1.09-4.82.64-1.1-.87-3.89,2.55-3.22-.54,3.51-.69,7.1-2.91,10.16-1.07,1.47-2.28,1.38-2.93-.34a38.87,38.87,0,0,1-1-4.21C107.48,318.1,107.2,317.42,106.89,316.49Z"/><path d="M159.72,360.44c1.31-2.36,2.33-4.3,3.47-6.18a3.7,3.7,0,0,0-.16-4.36,4.59,4.59,0,0,1,.24-5.78c.51-.6,1.59-.71,2.42-1A10.3,10.3,0,0,0,165,345c-.14,1-.57,2.41-.1,3.11,2.69,4,.43,8-3.47,11.13C161,359.57,160.55,359.86,159.72,360.44Z"/><path d="M54.53,322.37c2.2-1,1.39-5.72,5.49-4.82-1.41,2.55-2.61,4.88-4,7.09a10.53,10.53,0,0,1-2.17,2,15.71,15.71,0,0,1-1.13-2.43c-.42-1.49-.67-3-1-4.54C53.76,319.13,53.76,319.13,54.53,322.37Z"/><path d="M74,349.33,70.86,360.1c-3.38-1.38-3.18-4.8-4.46-7.42l3.69,3C70.7,353.31,70.31,350.27,74,349.33Z"/><path d="M100,317.46c2.88.65,3.52,3.44,2.32,9.57C99.4,324.09,101.63,320.35,100,317.46Z"/><path d="M108.09,261.79l1.93-.93,1.54,6.34-.91.59c-.51-.54-1.24-1-1.47-1.63A40.59,40.59,0,0,1,108.09,261.79Z"/><path d="M124.85,309.31c-.78-.88-2.35-2.34-2.2-2.55a15,15,0,0,1,4-3.63c-1.52,4.18-1.72,4.91-1.24,5.7Z"/><path d="M120,338.71l2.17,4.3a33.46,33.46,0,0,1-3.76-1.56,2.3,2.3,0,0,1-.69-1.47A17.63,17.63,0,0,1,120,338.71Z"/><path class="a" d="M423.89,372.45l-.64-1.5c11.11-.12,17.81,2.32,19.77,7.26.47-.14,1.12-.56,1.39-.39,2.64,1.65,5.1.62,7.67-.19a2.65,2.65,0,0,1,2.37.57c.46.61.24,1.73.31,2.63,0,.46,0,.93.08,1.39.62,4.74-.62,9.22-2.39,13.46-.6,1.44-2.67,2.35-4.2,3.31-3.8,2.38-7.43,5.29-11.57,6.83-8.19,3-15.81,1.43-22.68-4.27a18.68,18.68,0,0,1-7-13.32c-.25-2.68,1.89-3.82,3.31-5.25,2.13-2.16,4.73-3.84,7-5.83a9.14,9.14,0,0,0,1.38-2.11C419.92,373.23,421.32,371.88,423.89,372.45Zm17.06,20c-1.76,2-3.23,3.85-5,5.47-4.44,4.16-8.88,4.41-12.74-1-.48-.67-1.48-1-2.24-1.43.21,1,.11,2.21.68,2.89,1.56,1.87,3.37,3.64,6,3.77,1.92.09,4.18.56,5.71-.25,2.56-1.36,4.52-3.79,7-5.41C442.21,395.29,441.71,394.19,441,392.45Zm-24.07-8.79c-.59,2.66,1.14,3.2,2.57,3.54,1.62.38,3.82-2.85,3.82-5.62a2.25,2.25,0,0,0-1.4-1.66C419.53,379.53,417,381.76,416.89,383.67Zm17.89-.54c.05,1.95,2.33,4.9,4.14,5.13a2.16,2.16,0,0,0,1.61-.95c1.54-2.36.12-5.1-2.83-5.91C435.93,380.92,434.65,380.79,434.78,383.13Z"/><path class="a" d="M393.65,389.82l5.85-3.9C396.42,390.87,395.84,391.26,393.65,389.82Z"/><path class="a" d="M385.67,480.82l2.38,3.63c1.41-.77,2.4-1.64,3.53-1.88,3.27-.68,5.69.4,7,3.72.24.6,1.6.65,2.23,1.21,1.1,1,2.46,2,2.91,3.23s.12,3.13.12,5.16c-3.69,1.65-7.43,3.38-11.22,5-4.09,1.76-11.55,0-13.95-3.7-.67-1-.39-3.18.22-4.44,1.75-3.6,3.9-7,5.89-10.49C385.15,481.68,385.51,481.1,385.67,480.82Zm-1.16,13.12-.72.56a11.1,11.1,0,0,0,.45,3.37,5.53,5.53,0,0,0,5.87,3.16c4.39-.8,7.09-3.52,6.43-6.33-.39.15-1,.2-1.09.46-.93,2.16-2.8,2.83-4.87,3.38-2.59.69-4.22-.26-4.84-2.9C385.58,495,384.94,494.51,384.52,493.94Z"/><path class="a" d="M532.1,501.45a8.72,8.72,0,0,1-7.41-1.61,11.89,11.89,0,0,1-3-3.17,4,4,0,0,1-.22-3.3,58.93,58.93,0,0,1,5.1-8.06c.46-.61,2.12-.65,3.13-.46,3.36.63,6.67,1.48,10.93,2.45l-2-2.45a23.57,23.57,0,0,1,3.5-.62c.47,0,1.18.59,1.43,1.09.5,1,.69,2.14,1.13,3.17,2.35,5.49,2.07,6.37-3,9.72-.83.55-1.39,1.54-2.25,2a28.45,28.45,0,0,1-3.81,1.47l4.31-5.83c-2.41-1.25-3,.15-3.56,1.42-1.19,2.92-4.93,3-6.26,1.19-.68-.92-.73-2.32-1.32-4.43-.58,1.33-1.26,2.12-1.2,2.86C527.88,500.19,528.71,500.9,532.1,501.45Zm4.23-11.95c0,2.63,1.69,4.6,3.18,4,1.11-.44,1.79-2,2.66-3a17.16,17.16,0,0,0-3.75-2C537.77,488.31,536.83,489.24,536.34,489.5Zm-8.81,4.21c1.19-1.43,2.19-2.09,2.33-2.89.48-2.74-2.16-1.47-3.27-2.19-.15-.1-1.42,1-1.34,1.17A35.61,35.61,0,0,0,527.53,493.71Z"/><path class="a" d="M501.5,499.37a16.38,16.38,0,0,0-2.23.25c-7.2,2.08-14.36,4.54-21.94,1.56-2.46-1-5.26-6.93-4.2-9.26a2.39,2.39,0,0,1,1.15-1c4.05-1.9,7.72-4.34,12.23-5.61,3.6-1,6,.87,8.94.92a4.36,4.36,0,0,0,1.86,0c2.27-1.14,4.07-.63,5.26,1.63,1.76,3.34,1.88,6.62-.31,9.85A8.9,8.9,0,0,0,501.5,499.37Zm-17.69-3.26c-.33.59-1.08,1.49-.91,1.72.87,1.19,1.79,2.77,3,3.19,4.19,1.4,8-2.09,7.47-6.51,3.18-1.13,4-2.55,2.46-4.82a5.3,5.3,0,0,0-3.7-2.19c-1.7,0-1.81,1.94-1.53,3.35.22,1.12,1,2.13,1.26,3.25.55,2.11-.64,4-3,4.72C486.62,499.51,484.87,498.95,483.82,496.12Zm-1.2-8.4c-2.87,1.06-2.65,2.81-2,4.45.22.59,1.46,1.34,1.9,1.17,1-.39,2.72-1.7,2.61-2A21,21,0,0,0,482.62,487.71Z"/><path class="a" d="M452.26,484.31c-6.89.14-13.49,1.48-20.24-1.24l2.07,4.17-.27.9a33.17,33.17,0,0,1,5.48-.68,8.34,8.34,0,0,1,4.38,1.24c1.77,1.26,3.61,1.92,4.68-.05,1.16-2.14,2.87-2.31,4.76-2.62,2.48,4.84.62,9.73-4.77,11.74a22.14,22.14,0,0,1-16.16,0,3.08,3.08,0,0,1-2.3-3.37,15.25,15.25,0,0,0-.49-3.6c-.74-4.24,1.79-7.35,4.36-9.86,1.28-1.25,4.34-.94,6.57-.84,1.85.08,3.67.89,5.51,1.32a2.55,2.55,0,0,0,1.3-.05C450.92,480.13,450.92,480.12,452.26,484.31Zm-18,5.94-.59.7c.41,4.37,7.21,8.57,11.24,6.94,2.45-1,3.75-3.15,3.05-5.43-.71.36-1.75.53-2,1.06a3.87,3.87,0,0,1-5.29,2.15c-1.86-.74-3.28-2.58-4.87-3.95C435.32,491.26,434.82,490.74,434.31,490.25Z"/><path class="a" d="M331.81,494c2.54-3.14,4.57-5.63,6.58-8.14a8.27,8.27,0,0,0,1.09-1.75c1.51-3.38,3.78-5.09,7.78-4.81a4,4,0,0,1,2.95,1.07,12.84,12.84,0,0,0,3.9,2.52c1.79.71,2.12,1.93,2.64,3.65,1.41,4.67.65,8.42-3.17,11.56-3.57,2.93-7.51,4.2-12.05,3-1.67-.44-3.59-.7-4.85-1.72A41.75,41.75,0,0,1,331.81,494Zm19.71,1.25-.64-1.11c-.88.24-1.76.47-2.64.73-2.79.85-5.57,2.07-8.51.8-1-.42-2-1.91-2.46.14-.13.56,1.21,2.11,1.89,2.12a55,55,0,0,0,9.17-.59C349.47,497.14,350.46,496,351.51,495.24Zm-1.93-11.38c-3.52-.38-3.83-.12-3.43,2.83C348.18,487,349.65,486.62,349.58,483.85Z"/><path class="a" d="M401.45,353.58l1.28-5.46C404.43,349.9,404,351.72,401.45,353.58Z"/><path class="a" d="M418.74,348.58l2.19-6.87.37.08.8,6.53Z"/><path class="a" d="M375.11,346.33c.7.92,2.17,2.13,2,2.7-.55,1.45-1.85,2.61-3.09,4.2-2.18-3.44,1.27-4.76,1.21-7Z"/><path class="a" d="M344.74,354.54v-7.68c1,0,1.64,0,2.25,0,1.74,0,2.52.84,1.54,2.44S346.27,352.46,344.74,354.54Z"/><path class="a" d="M363.1,345.81c2.69,1.2,3.29,4.42,1.25,6.06-.27.22-1,.32-1.16.15-.54-.61-1.34-1.41-1.27-2.06A22.48,22.48,0,0,1,363.1,345.81Z"/><path class="a" d="M429.36,96.22c2.34,1.3,3.87,2.45,5.59,3,.82.26,2-.65,3-1a14.9,14.9,0,0,1,3.68-1.08,10,10,0,0,1,6.66,2.3c2.19,1.63,4.21.72,5-1.82s2.84-2.94,5.16-3.57a34.15,34.15,0,0,1-2,15.93,3.7,3.7,0,0,1-1.66,2c-8,3.41-15.94,5.87-23.87-.23-4.28-3.29-6.05-7.72-6.37-12.89-.09-1.55,0-3.11,0-5C426.39,96.88,426.9,97,429.36,96.22Zm19,9.2a15.9,15.9,0,0,0-2.69,2,5.59,5.59,0,0,1-5.85,2c-2.18-.58-3.17-2.31-3-4.62a3.39,3.39,0,0,0-.3-1.07l-.88-.08c-.24,1.23-1,2.6-.63,3.65.75,2.44,4.64,5,6.45,4.77C445.13,111.51,448.21,109,448.39,105.41Z"/><path class="a" d="M458.13,91.73,454,93.61c-1.88-2.19-5.72-1.6-7.89,1.37L439,94.53c-.78-2.36-3.22-3.18-5.83-1.92a11.64,11.64,0,0,1-5.41,1.29c-.75,0-1.84-2-2-3.21s.55-2.93,1.38-3.3c3.3-1.46,6.78-2.49,10.21-3.64a3.46,3.46,0,0,1,4.3,1.41,20.31,20.31,0,0,0,3.07,2.77c.41-.84.71-1.72.84-1.69C450.1,87.09,454.93,87.22,458.13,91.73Z"/><path class="a" d="M452.13,94.58a18.79,18.79,0,0,1-1.82,3.21c-.14.17-1.48-.65-2.26-1l2.86-3.06Z"/><path class="a" d="M432.53,95.27l4-1.42.64.84c-.49.87-.83,2.3-1.51,2.48-.9.25-2.07-.47-3.12-.78Z"/><path class="a" d="M446.1,185.25a7.4,7.4,0,0,1-4.54,6.56c-2.58.89-5.15,1.83-7.78,2.52-5.08,1.33-11.31-2.28-12.13-7.49-.32-2.06,1.1-4.4,1.79-6.6.07-.22.57-.37.9-.42,4.39-.72,8.79-1.4,13.18-2.13A7.29,7.29,0,0,1,446.1,185.25Zm-5.85.08a12.64,12.64,0,0,0-1.79,2.35c-1.14,2.55-2.69,3.39-5.41,2.4a39.2,39.2,0,0,1-4.35-2.2c-1.4,1.4-.85,2.53.77,3.06a27.09,27.09,0,0,0,5.3,1.11C438.26,192.47,441.19,189.48,440.25,185.34Z"/><path class="a" d="M470.89,186c.16-2.35.28-5.25.59-8.12.06-.61.71-1.59,1.2-1.66,3.54-.49,7.1-.84,10.66-1.15,4.65-.4,6.34,1.2,5.55,5.91-.42,2.5.55,5.6-2.07,7.43a18.31,18.31,0,0,1-5.2,2.72,31.49,31.49,0,0,1-7.46,1.14c-2,.08-3.63-.78-3.28-3.34A25.64,25.64,0,0,0,470.89,186Zm2.73,1.53c-.1,1.73,2.4,3.85,4,3.3,1.8-.63,4-.92,4.57-3.29.23-.89.6-1.76.77-2.66,0-.17-.62-.47-1-.71a6.45,6.45,0,0,1-1.07,2.13,9.78,9.78,0,0,1-3.26,2c-.48.16-1.35-.65-1.94-1.14a7,7,0,0,1-1-1.38Z"/><path class="a" d="M395.85,177.26l.17-1c4.88-1,8.62,1.95,12.41,3.95,1.93,1,1.93-.17,3.34-1.25,0,2.26,0,4.07,0,5.87,0,4.71-3.16,6.4-7.13,7.33-2.43.57-4.78,1.51-7.22,1.94-5.16.91-9.46-1.54-13.7-4-2.06-1.17-1.41-4.87,1-6.41,1.89-1.19,3.75-2.44,5.67-3.58C392,179.24,393.7,178.41,395.85,177.26Zm-3.07,9.49c-.78,2.52-.07,3.7,1.85,4.35a8.55,8.55,0,0,0,8.11-1.28c.62-.45.62-1.78.9-2.7l-.9-.45-2.49,3.15A6.29,6.29,0,0,1,392.78,186.76Z"/><path class="a" d="M508.86,177.51l13.1,9c-.84,1.24-1.57,3.5-4.5,3.57l1.11.66,0,.74c-1.75-.12-3.5-.18-5.24-.37-1.38-.15-2.74-.49-4.12-.68a5.38,5.38,0,0,1-4.74-4.46c-.61-2.74,1-4.94,2.68-6.94A11.1,11.1,0,0,1,508.86,177.51Zm-1.38,9c.8.8,1.48,2.06,2.37,2.24a26.56,26.56,0,0,0,5.82.13,1.83,1.83,0,0,0,.27-1.34,1.61,1.61,0,0,0-1.2-.73C512.55,186.7,510.35,186.66,507.48,186.56Z"/><path class="a" d="M358.41,195.23c-3.22,0-4.64-1.37-5.7-4.45-1-2.85-.8-4.91,1.85-6.76,1.53-1.07,2.56-2.83,3.87-4.23.4-.43,1-1,1.45-1,3.87.53,7.75,1.13,10.78,3.93.29.27.28,1,.18,1.51C369.85,189.22,364.46,195.74,358.41,195.23Zm8.27-7.75c-3,.69-5.43,3.64-8.4.49v3.37C364,191.83,365.89,191.08,366.68,187.49Z"/><path class="a" d="M472.09,43a25,25,0,0,1,1.41,4,25.78,25.78,0,0,1,.05,4.37h-4.8L470.93,43Z"/><path class="a" d="M433.44,52.4c1.42,2.81.38,6.18-1.52,6.93a1.91,1.91,0,0,1-1.76-.46c-.42-.62-.82-1.82-.51-2.27A41.35,41.35,0,0,1,433.44,52.4Z"/><path class="a" d="M409.49,61.06c-.68-4.72.06-6.25,3.55-7.26C414.37,56.65,412.79,59.24,409.49,61.06Z"/><path class="a" d="M443.49,60.85c-2-1.76-2.44-4.39-1.24-5.61a3.15,3.15,0,0,1,2.25-.82c.33,0,.93,1.33.79,1.9A35.53,35.53,0,0,1,443.49,60.85Z"/><path class="a" d="M69.4,283.25c3.44,6.4,3.34,13.22,2.76,20.28C65.89,301,65.75,289.54,69.4,283.25Z"/><path class="a" d="M95.81,322.45a12.69,12.69,0,0,1-.9,2.65c-.35.64-1.31,1.52-1.75,1.39a3.09,3.09,0,0,1-1.55-1.81,13,13,0,0,1-1.15-4.5,3.19,3.19,0,0,1,1.89-2.4C93.68,317.47,95.83,320.32,95.81,322.45Z"/><path class="a" d="M44.47,320.64l-3,.83c.44-1.49.8-2.59,1.07-3.7a18.18,18.18,0,0,1,1-3.48Z"/><path class="a" d="M144.31,270.79c2.46-.06,3.05.77,2.25,2.73a12.36,12.36,0,0,1-1.37,2.8c-1,1.36-2.45,2.75-4.15,1.48-1.24-.93-2.4-2-.4-4.2C141.9,272.22,142.85,271.13,144.31,270.79Z"/><path class="a" d="M132,356.67c1.07-2.34,4.28-3.62,5.49-2.5a2.09,2.09,0,0,1,.75,1.35c0,.32-.69.82-1.1.87C135.52,356.55,133.88,356.58,132,356.67Z"/><path class="a" d="M67.41,318.73A26.28,26.28,0,0,1,66,323.6a3.51,3.51,0,0,1-2.56,1.81c-1.15-.1-1.79-1.05-1.32-2.73C63.35,318.2,64.12,317.44,67.41,318.73Z"/><path class="a" d="M107.54,277.54c.76-.84,2.62-3.55,3.13-3.32a12.52,12.52,0,0,1,5.16,4.35c.73,1.13-2.67,4.78-4,4.75C109.77,283.26,107.49,280.71,107.54,277.54Z"/><path class="a" d="M79.25,279.61c.09-.78-.1-1.89.33-2.27,1.05-.93,2.52-2.24,3.61-2.06,1.55.25,2.39,1.93,1.91,3.78a9.38,9.38,0,0,1-.16,1.19c-.67,1.61-.75,4.09-3.22,3.73C79.51,283.65,79.27,281.55,79.25,279.61Z"/><path class="a" d="M139,318.92l5.26.44c-1.18,1.26-1.91,2.46-2.29,2.36A15.45,15.45,0,0,1,138.7,320Z"/><path d="M441,392.45c.75,1.74,1.25,2.83-.57,4-2.45,1.62-4.41,4-7,5.41-1.52.81-3.79.34-5.71.25-2.65-.13-4.46-1.89-6-3.77-.57-.68-.47-1.91-.68-2.89.76.47,1.76.76,2.24,1.43,3.86,5.41,8.3,5.17,12.74,1C437.72,396.31,439.19,394.41,441,392.45Z"/><path d="M416.89,383.67c.11-1.91,2.65-4.14,5-3.74a2.25,2.25,0,0,1,1.4,1.66c0,2.77-2.19,6-3.82,5.62C418,386.87,416.3,386.33,416.89,383.67Z"/><path d="M434.78,383.13c-.13-2.34,1.15-2.21,2.92-1.73,2.95.81,4.37,3.54,2.83,5.91a2.16,2.16,0,0,1-1.61.95C437.11,388,434.83,385.08,434.78,383.13Z"/><path d="M384.52,493.94c.42.56,1.07,1.07,1.21,1.7.63,2.64,2.26,3.58,4.84,2.9,2.07-.55,3.94-1.22,4.87-3.38.11-.26.71-.3,1.09-.46.66,2.81-2,5.53-6.43,6.33a5.53,5.53,0,0,1-5.87-3.16,11.1,11.1,0,0,1-.45-3.37Z"/><path d="M536.34,489.5c.49-.26,1.44-1.19,2.09-1a17.16,17.16,0,0,1,3.75,2c-.87,1.05-1.54,2.6-2.66,3C538,494.1,536.34,492.14,536.34,489.5Z"/><path d="M527.53,493.71a35.61,35.61,0,0,1-2.28-3.92c-.08-.18,1.19-1.27,1.34-1.17,1.12.73,3.75-.55,3.27,2.19C529.72,491.62,528.72,492.28,527.53,493.71Z"/><path d="M483.82,496.12c1.06,2.83,2.81,3.39,5,2.72,2.41-.73,3.59-2.61,3-4.72-.29-1.12-1-2.13-1.26-3.25-.27-1.41-.17-3.32,1.53-3.35a5.3,5.3,0,0,1,3.7,2.19c1.58,2.27.71,3.69-2.46,4.82.54,4.42-3.28,7.9-7.47,6.51-1.24-.41-2.16-2-3-3.19C482.74,497.61,483.49,496.71,483.82,496.12Z"/><path d="M482.62,487.71a21,21,0,0,1,2.48,3.67c.11.25-1.58,1.56-2.61,2-.45.17-1.68-.59-1.9-1.17C480,490.52,479.75,488.78,482.62,487.71Z"/><path d="M434.31,490.25c.52.49,1,1,1.55,1.47,1.6,1.37,3,3.21,4.87,3.95a3.87,3.87,0,0,0,5.29-2.15c.24-.53,1.28-.7,2-1.06.7,2.28-.6,4.44-3.05,5.43-4,1.63-10.83-2.57-11.24-6.94Z"/><path d="M351.51,495.24c-1.06.72-2,1.91-3.18,2.08a55,55,0,0,1-9.17.59c-.68,0-2-1.56-1.89-2.12.49-2.05,1.49-.56,2.46-.14,2.94,1.27,5.73.06,8.51-.8.87-.27,1.76-.49,2.64-.73Z"/><path d="M349.58,483.85c.06,2.76-1.4,3.14-3.43,2.83C345.75,483.73,346.07,483.47,349.58,483.85Z"/><path d="M448.39,105.41c-.18,3.57-3.26,6.1-6.93,6.66-1.81.27-5.7-2.33-6.45-4.77-.32-1.05.39-2.43.63-3.65l.88.08a3.39,3.39,0,0,1,.3,1.07c-.15,2.32.85,4,3,4.62a5.59,5.59,0,0,0,5.85-2A15.9,15.9,0,0,1,448.39,105.41Z"/><path d="M440.25,185.34c.94,4.14-2,7.13-5.47,6.72a27.09,27.09,0,0,1-5.3-1.11c-1.63-.54-2.17-1.67-.77-3.06a39.2,39.2,0,0,0,4.35,2.2c2.72,1,4.27.16,5.41-2.4A12.64,12.64,0,0,1,440.25,185.34Z"/><path d="M473.63,187.49l1.07-1.79a7,7,0,0,0,1,1.38c.59.49,1.46,1.3,1.94,1.14a9.78,9.78,0,0,0,3.26-2,6.45,6.45,0,0,0,1.07-2.13c.34.24,1,.53,1,.71-.16.9-.53,1.77-.77,2.66-.62,2.37-2.77,2.66-4.57,3.29C476,191.34,473.53,189.22,473.63,187.49Z"/><path d="M392.78,186.76a6.29,6.29,0,0,0,7.48,3.07l2.49-3.15.9.45c-.28.92-.28,2.25-.9,2.7a8.55,8.55,0,0,1-8.11,1.28C392.72,190.46,392,189.27,392.78,186.76Z"/><path d="M507.48,186.56c2.86.1,5.07.14,7.27.29a1.61,1.61,0,0,1,1.2.73,1.83,1.83,0,0,1-.27,1.34,26.56,26.56,0,0,1-5.82-.13C509,188.62,508.29,187.35,507.48,186.56Z"/><path d="M366.68,187.49c-.79,3.6-2.66,4.34-8.4,3.85V188C361.25,191.12,363.72,188.18,366.68,187.49Z"/></svg>